<?xml version="1.0" encoding="UTF-8"?><svg id="Componentes_fijos" xmlns="http://www.w3.org/2000/svg" viewBox="0 0 39 39"><defs><style>.cls-1{fill:#fff;}</style></defs><g><path class="cls-1" d="M18.22,27.79H2.94c-.5,0-.9-.4-.9-.9s.4-.9,.9-.9h15.29c.5,0,.9,.4,.9,.9s-.4,.9-.9,.9Z"/><g><path class="cls-1" d="M22.72,32.17c-.74,0-1.34-.59-1.34-1.32s.6-1.32,1.34-1.32,1.34,.59,1.34,1.32-.6,1.32-1.34,1.32Zm0-1.44s-.09,.05-.09,.11c0,.12,.18,.12,.18,0,0-.06-.04-.11-.09-.11Z"/><path class="cls-1" d="M15.51,32.17c-.74,0-1.34-.59-1.34-1.32s.6-1.32,1.34-1.32,1.34,.59,1.34,1.32-.6,1.32-1.34,1.32Zm0-1.44s-.09,.05-.09,.11c0,.12,.18,.12,.18,0,0-.06-.04-.11-.09-.11Z"/><path class="cls-1" d="M19.11,32.17c-.74,0-1.34-.59-1.34-1.32s.6-1.32,1.34-1.32,1.34,.59,1.34,1.32-.6,1.32-1.34,1.32Zm0-1.44s-.09,.05-.09,.11c0,.12,.18,.12,.18,0,0-.06-.04-.11-.09-.11Z"/></g><path class="cls-1" d="M33.16,23.33h-2.8c-1.29,0-2.35-1.05-2.35-2.35V12.35c0-.3-.25-.55-.55-.55h-.62c-.3,0-.55,.25-.55,.55v1.94c0,1.29-1.05,2.35-2.35,2.35h-.58c-1.29,0-2.35-1.05-2.35-2.35v-3.91c0-.3-.25-.55-.55-.55s-.55,.25-.55,.55v7.3c0,1.29-1.05,2.35-2.35,2.35h-.35c-1.29,0-2.35-1.05-2.35-2.35v-.85c0-.3-.25-.55-.55-.55h-.12c-1.29,0-2.35-1.05-2.35-2.35v-2.52c0-.3-.25-.55-.55-.55h-.12c-.3,0-.55,.25-.55,.55v9.57c0,1.29-1.05,2.35-2.35,2.35h-1.22c-.5,0-.9-.4-.9-.9s.4-.9,.9-.9h1.22c.3,0,.55-.25,.55-.55V11.41c0-1.29,1.05-2.35,2.35-2.35h.12c1.29,0,2.35,1.05,2.35,2.35v2.52c0,.3,.25,.55,.55,.55h.12c1.29,0,2.35,1.05,2.35,2.35v.85c0,.3,.25,.55,.55,.55h.35c.3,0,.55-.25,.55-.55v-7.3c0-1.29,1.05-2.35,2.35-2.35s2.35,1.05,2.35,2.35v3.91c0,.3,.25,.55,.55,.55h.58c.3,0,.55-.25,.55-.55v-1.94c0-1.29,1.05-2.35,2.35-2.35h.62c1.29,0,2.35,1.05,2.35,2.35v8.64c0,.3,.25,.55,.55,.55h2.8c.5,0,.9,.4,.9,.9s-.4,.9-.9,.9Z"/></g><path class="cls-1" d="M19.5,39C8.75,39,0,30.25,0,19.5S8.75,0,19.5,0s19.5,8.75,19.5,19.5-8.75,19.5-19.5,19.5Zm0-37C9.85,2,2,9.85,2,19.5s7.85,17.5,17.5,17.5,17.5-7.85,17.5-17.5S29.15,2,19.5,2Z"/></svg>