<?xml version="1.0" encoding="UTF-8"?>
<svg id="Capa_1" data-name="Capa 1" xmlns="http://www.w3.org/2000/svg" viewBox="0 0 46.41 44.13">
  <defs>
    <style>
      .cls-1 {
        fill: #5a5aff;
      }
    </style>
  </defs>
  <g id="Grupo_1430" data-name="Grupo 1430">
    <path id="Trazado_2014" data-name="Trazado 2014" class="cls-1" d="M9.35,33.22c-.85-.33-1.81,0-2.3,.76-1.61,2.5-3.15,5.03-4.62,7.61-.43,.73-.19,1.68,.54,2.11,.03,.02,.06,.04,.1,.05,.63,.46,1.49,.44,2.1-.04,2.68-2.38,4.1-5.51,5.7-8.48-.26-.96-.58-1.7-1.52-2.01"/>
    <path id="Trazado_2015" data-name="Trazado 2015" class="cls-1" d="M28.47,31.37c-.83-.38-1.81-.14-2.37,.58-1.95,2.42-3.59,5.07-4.89,7.9-.41,.79-.11,1.77,.67,2.19,.65,.44,1.52,.37,2.09-.18,2.18-2.52,4.02-5.31,5.47-8.31,.03-1.18-.2-1.85-.97-2.18"/>
    <path id="Trazado_2019" data-name="Trazado 2019" class="cls-1" d="M37.5,31.37c-.83-.38-1.82-.12-2.35,.62-1.97,2.41-3.59,5.09-4.81,7.95-.5,1.25,.03,2.34,1.84,2.4,.29-.12,.75-.18,.95-.42,2.2-2.53,3.99-5.38,5.3-8.47,.34-.79-.03-1.7-.82-2.04-.03-.01-.07-.03-.11-.04"/>
    <path id="Trazado_2020" data-name="Trazado 2020" class="cls-1" d="M42.35,12.92c-.95-.47-1.95-.84-2.98-1.1,.08-1.03,.02-2.06-.15-3.08C37.11,2.22,30.54-1.83,23.98,.83c-3.22,1.31-7.64,5.71-7.64,5.71,0,0-6.34-2.42-10.37,1.07C2.18,10.9-.9,14.61,.24,19.15c1.2,4.8,5.6,8.27,11.58,8.65,4.27,.27,8.57,.05,12.85,.05v-.03c4.41,0,8.83,.19,13.23-.06,3.83-.07,7.16-2.62,8.24-6.3,.96-3.65-.62-6.52-3.79-8.55m-.38,7.67c-.61,2.59-2.96,3.32-5.53,3.4-2.01,.06-4.03,.03-6.04,.03s-4.03,0-6.04,0v-.05c-4.03,0-8.06,.15-12.08-.04-5.53-.26-8.82-3.7-8.11-8.15,.67-4.2,4.95-6.88,9.94-5.81,2.7,.58,4.08-.16,5.55-2.23,2.11-3.08,6-4.42,9.55-3.27,3.88,1.02,5.88,3.54,6.09,7.21-.11,1.87,1.18,3.53,3.01,3.9,2.5,.75,4.28,2.38,3.66,5.02"/>
    <path id="Trazado_2021" data-name="Trazado 2021" class="cls-1" d="M17.71,33.65c-2.58,2.34-4.48,5.32-5.52,8.64-.47,1.66,1.08,2.19,2.7,1.61,1.21-.43,5.79-7.73,5.69-9.13-.36-1.41-1.62-2.32-2.88-1.12"/>
  </g>
</svg>