<?xml version="1.0" encoding="UTF-8"?>
<svg id="Capa_1" data-name="Capa 1" xmlns="http://www.w3.org/2000/svg" viewBox="0 0 40 40">
  <defs>
    <style>
      .cls-1 {
        fill: #fff;
      }

      .cls-2 {
        fill: #73d36e;
      }
    </style>
  </defs>
  <g id="Grupo_1290" data-name="Grupo 1290">
    <g id="Elipse_118-2" data-name="Elipse 118-2">
      <circle class="cls-2" cx="20" cy="20" r="20"/>
      <path class="cls-2" d="M20,40C8.97,40,0,31.03,0,20S8.97,0,20,0s20,8.97,20,20-8.97,20-20,20ZM20,1C9.52,1,1,9.52,1,20s8.52,19,19,19,19-8.52,19-19S30.48,1,20,1Z"/>
    </g>
    <g id="Trazado_1866" data-name="Trazado 1866">
      <path class="cls-1" d="M20,33.43c-.55,0-1-.45-1-1V7.56c0-.55,.45-1,1-1s1,.45,1,1v24.87c0,.55-.45,1-1,1Z"/>
    </g>
    <g id="Trazado_1867" data-name="Trazado 1867">
      <path class="cls-1" d="M32.44,21H7.56c-.55,0-1-.45-1-1s.45-1,1-1h24.87c.55,0,1,.45,1,1s-.45,1-1,1Z"/>
    </g>
  </g>
</svg>