<svg id="Filtro_Policia" data-name="Filtro Policia" xmlns="http://www.w3.org/2000/svg" xmlns:xlink="http://www.w3.org/1999/xlink" width="34.12" height="34.12" viewBox="0 0 34.12 34.12">
  <defs>
    <clipPath id="clip-path">
      <rect id="Rectángulo_478" data-name="Rectángulo 478" width="18.464" height="20.673" fill="#365494"/>
    </clipPath>
  </defs>
  <g id="Grupo_1012" data-name="Grupo 1012">
    <path id="Trazado_1731" data-name="Trazado 1731" d="M17.06,0A17.06,17.06,0,1,1,0,17.06,17.06,17.06,0,0,1,17.06,0Z" fill="#fff"/>
  </g>
  <g id="Grupo_1015" data-name="Grupo 1015" transform="translate(7.487 7.585)">
    <g id="Grupo_1015-2" data-name="Grupo 1015" clip-path="url(#clip-path)">
      <path id="Trazado_1729" data-name="Trazado 1729" d="M15.544,0c.307.322.612.646.921.965.52.538,1.04,1.076,1.569,1.606a.228.228,0,0,1,.033.344A5.666,5.666,0,0,0,17.183,6a5.966,5.966,0,0,0,.5,2.356,9.264,9.264,0,0,1,.775,3.875,5.522,5.522,0,0,1-3.092,4.956,11.331,11.331,0,0,1-2.544.907,8.831,8.831,0,0,0-1.854.742,3.676,3.676,0,0,0-1.552,1.6c-.168.315-.208.32-.364,0a4.4,4.4,0,0,0-2.657-2.1c-.537-.2-1.1-.323-1.647-.485A7.6,7.6,0,0,1,1.9,16.37,5.314,5.314,0,0,1,.082,13.037,8.723,8.723,0,0,1,.7,8.565a7.645,7.645,0,0,0,.526-1.819,5.809,5.809,0,0,0-.761-3.73c-.2-.335-.216-.248.055-.529L2.922,0h.162A3.467,3.467,0,0,0,4,.31,9.585,9.585,0,0,0,8.363.319a3.532,3.532,0,0,1,1.758.008,9.617,9.617,0,0,0,3.732.1A5.143,5.143,0,0,0,15.382,0ZM2.532,5.986a5.842,5.842,0,0,1-.062.987A9.177,9.177,0,0,1,1.855,9.06,7.483,7.483,0,0,0,1.318,12.8a4.1,4.1,0,0,0,1.491,2.692,6.889,6.889,0,0,0,2.762,1.285,8.493,8.493,0,0,1,3.546,1.68.156.156,0,0,0,.244-.013,3.75,3.75,0,0,1,.476-.374,9.427,9.427,0,0,1,3.054-1.294,7.415,7.415,0,0,0,2.358-.982,4.2,4.2,0,0,0,1.939-3.374,7.845,7.845,0,0,0-.63-3.49,7.765,7.765,0,0,1-.626-2.679,7.277,7.277,0,0,1,.629-3.2.169.169,0,0,0-.033-.216q-.638-.649-1.268-1.3a.209.209,0,0,0-.233-.061,10.913,10.913,0,0,1-3.16.332,9.85,9.85,0,0,1-2.375-.323.99.99,0,0,0-.554.01,9.858,9.858,0,0,1-2.719.327,10.006,10.006,0,0,1-2.758-.34.255.255,0,0,0-.286.081q-.6.63-1.212,1.247a.217.217,0,0,0-.046.283,7.149,7.149,0,0,1,.614,2.9" transform="translate(0)" fill="#365494"/>
      <path id="Trazado_1730" data-name="Trazado 1730" d="M92.978,104.933c.089-.521.176-1.032.265-1.543.112-.65.223-1.3.34-1.95a.371.371,0,0,0-.12-.374c-.831-.8-1.655-1.6-2.48-2.409-.045-.044-.129-.08-.1-.159s.107-.041.164-.05c1.152-.171,2.3-.345,3.456-.506a.329.329,0,0,0,.28-.215q.752-1.534,1.511-3.064c.032-.064.046-.168.121-.173.1-.006.106.107.139.175q.759,1.53,1.512,3.064a.329.329,0,0,0,.281.214c1.16.162,2.318.337,3.476.509.051.008.121-.011.144.049s-.047.1-.088.142c-.829.81-1.656,1.622-2.492,2.426a.372.372,0,0,0-.117.375q.294,1.681.582,3.363c.012.072.056.162-.007.21s-.138-.026-.2-.059c-1-.526-2.006-1.051-3-1.584a.409.409,0,0,0-.432,0q-1.525.813-3.058,1.611c-.067.035-.181.143-.176-.05m5.24-2.151c0-.058,0-.084-.007-.109-.093-.551-.183-1.1-.284-1.651a.4.4,0,0,1,.13-.411c.39-.362.767-.738,1.147-1.11.036-.035.1-.064.078-.127s-.08-.038-.126-.045c-.539-.079-1.077-.166-1.618-.234a.347.347,0,0,1-.3-.219c-.226-.474-.46-.945-.693-1.416-.029-.058-.039-.153-.109-.157s-.084.093-.113.15q-.355.715-.7,1.433a.3.3,0,0,1-.249.2c-.547.073-1.092.157-1.638.238-.056.008-.136-.016-.156.058-.016.058.052.089.089.125.381.372.758.748,1.147,1.111a.38.38,0,0,1,.122.394c-.068.343-.125.689-.184,1.033-.04.234-.075.468-.118.74.576-.3,1.114-.578,1.647-.863a.276.276,0,0,1,.3,0c.258.145.523.279.786.416l.857.445" transform="translate(-87.196 -90.66)" fill="#365494"/>
    </g>
  </g>
</svg>
