<?xml version="1.0" encoding="UTF-8"?><svg id="Capa_1" xmlns="http://www.w3.org/2000/svg" viewBox="0 0 40.09 38.36"><defs><style>.cls-1{fill:#fff;}</style></defs><path class="cls-1" d="M38.99,5.35v14.43c-.02,.07-.05,.13-.07,.2-.54,1.54-1.93,2.64-3.57,2.64s-3.26,0-4.9,0c-.27,0-.41,.21-.32,.46,.82,2.23,1.64,4.47,2.46,6.7,.54,1.47,1.09,2.94,1.61,4.41,.21,.61-.08,1.2-.65,1.43-.56,.23-1.13,.02-1.44-.55-.07-.13-.13-.27-.18-.41-.69-1.89-1.39-3.77-2.08-5.66-.74-2-1.48-4-2.2-6.01-.11-.29-.26-.4-.57-.39-.3,.01-.35,.22-.43,.42-1.18,3.24-2.36,6.49-3.54,9.73-.28,.78-.51,1.57-.88,2.31-.29,.57-.88,.77-1.44,.53-.55-.23-.82-.8-.65-1.41,.06-.21,.14-.42,.22-.63,1.28-3.51,2.55-7.02,3.83-10.53,.09-.24,.21-.47-.31-.43-1.05,.08-2.09,.03-3.14,0-.19,0-.33,.05-.43,.21-.83,1.31-2.61,1.85-4.28,.91-.62-.35-1.24-.71-1.89-.98-1.25-.52-1.26-.8-1.26-.07,0,3.87,0,7.74,0,11.62,0,.78-.63,1.41-1.41,1.41-2.21,0-4.41,0-6.62,0-.78,0-1.41-.63-1.41-1.41,0-1.84,0-3.68,0-5.51,0-.2,.01-.39-.22-.5-1.15-.5-1.81-1.4-2.12-2.59v-5.18c.04-.14,.08-.28,.11-.43,.35-1.78,1.28-3.18,2.69-4.29,.2-.16,.55-.23,.58-.47,.03-.27-.3-.42-.46-.63-1.39-1.69-1.56-4.2-.39-6.09,1.79-2.91,6.04-3.66,8.69-.51,1.58,1.88,1.49,4.64-.01,6.58-.21,.28-.18,.38,.13,.52,.82,.38,1.62,.8,2.43,1.2,.25,.12,.45,0,.45-.28,0-1.48,0-2.96,0-4.44,.02-1.97-.07-3.94,.05-5.92,.1-1.78,1.61-3.24,3.39-3.25,5.63-.02,11.25,0,16.88,0,.75,0,1.42,.28,2.02,.72,.72,.53,1.1,1.28,1.34,2.11Zm-11.8-.56c-2.69,0-5.37,0-8.06,0-.83,0-1.5,.67-1.5,1.5,0,3.43,0,6.86,0,10.28q0,1.24,1.11,1.76s.02,0,.03,.02c.21,.14,.33,.06,.43-.15,.19-.4,.39-.8,.59-1.19,.51-1.03,1.02-2.05,1.54-3.07,.28-.56,.75-.81,1.25-.72,.82,.15,1.21,.94,.81,1.73-.81,1.65-1.64,3.29-2.46,4.93-.23,.46-.23,.46,.27,.46,4.65,0,9.3,0,13.95,0,.87,0,1.58-.71,1.58-1.57,0-1.55,0-3.11,0-4.66,0-2.6,0-5.2,0-7.81,0-.53-.11-1.01-.6-1.31-.3-.18-.63-.21-.96-.21-2.66,0-5.33,0-7.99,0ZM10.55,26.7c0-1.92,0-3.85,0-5.77,0-.26,0-.52,.03-.77,.14-.81,.85-1.2,1.61-.9,.14,.05,.27,.12,.4,.19,1.52,.76,3.04,1.52,4.56,2.28,.2,.1,.4,.2,.63,.18,.35-.03,.57-.22,.67-.54,.1-.33-.04-.58-.33-.74-.11-.06-.22-.12-.33-.17-2-1-4.02-1.95-5.98-3-1.45-.77-2.95-.9-4.52-.67-1.97,.29-3.74,2.25-3.9,4.24-.11,1.34-.05,2.68-.04,4.02,0,.67,.55,1.17,1.22,1.23s1.08,.44,1.15,1.13c.02,.22,.03,.44,.03,.66,0,1.62,0,3.23,0,4.85,0,.27,.22,.49,.49,.49,1.27,0,2.54,0,3.82,0,.47,0,.49-.03,.49-.51,0-2.06,0-4.12,0-6.18Zm-2.23-18.3c-1.8-.1-3.22,1.31-3.16,3.1,.06,1.47,1.26,2.73,2.73,2.85,1.85,.15,3.35-1.33,3.23-3.18-.09-1.47-1.34-2.7-2.81-2.77Z"/><path class="cls-1" d="M27.17,7.25c1.95,0,3.89,0,5.84,0,.91,0,1.48,.77,1.17,1.56-.15,.38-.43,.63-.84,.7-.23,.04-.47,.05-.7,.05-3.66,0-7.32,0-10.98,0-.2,0-.4,0-.59-.04-.62-.1-1.02-.58-.99-1.18,.02-.59,.47-1.06,1.09-1.09,.32-.02,.64,0,.96,0,1.68,0,3.35,0,5.03,0Z"/><path class="cls-1" d="M30.18,11.4c.95,0,1.9-.02,2.85,0,.94,.02,1.51,.87,1.12,1.65-.22,.44-.6,.66-1.08,.66-1.95,.01-3.9,.02-5.85,0-.7,0-1.2-.52-1.21-1.15,0-.65,.51-1.15,1.23-1.16,.97-.02,1.95,0,2.92,0Z"/><path class="cls-1" d="M30.12,17.88c-.97,0-1.95,.02-2.92,0-.83-.02-1.37-.79-1.09-1.54,.14-.39,.42-.64,.83-.72,.22-.04,.44-.06,.66-.06,1.7,0,3.4,0,5.11,0,.18,0,.37,.01,.55,.04,.64,.1,1.06,.6,1.02,1.2-.04,.6-.52,1.07-1.16,1.08-1,.02-2,0-3,0Z"/></svg>
