<?xml version="1.0" encoding="UTF-8"?><svg id="Capa_1" xmlns="http://www.w3.org/2000/svg" viewBox="0 0 40.09 38.36"><defs><style>.cls-1{fill:#fff;}</style></defs><path class="cls-1" d="M38.43,20.62c-.39,0-.76-.14-1.07-.4-.11-.09-.21-.19-.31-.3L20.78,3.66c-.27-.27-.52-.4-.76-.4s-.49,.13-.76,.4L2.97,19.95c-.27,.27-.71,.64-1.32,.64-.12,0-.25-.02-.38-.05C.49,20.36,0,19.72,0,18.91c-.02-.58,.31-.99,.6-1.28C.6,17.64,14.85,3.39,16.95,1.28c.79-.79,1.65-1.22,2.64-1.32,.16-.02,.32-.02,.47-.02,1.05,0,1.99,.38,2.78,1.12,.47,.44,.92,.9,1.38,1.36l15.22,15.22c.36,.36,.76,.88,.61,1.65-.16,.79-.83,1.34-1.62,1.34Z"/><path class="cls-1" d="M29.58,38.29c-1.57,0-3.09-.56-4.28-1.59-1.41-1.22-2.21-2.98-2.21-4.83v-2.79c0-1.64-1.37-2.98-3.05-2.99-1.68,0-3.05,1.34-3.05,2.99v2.79c0,1.85-.81,3.61-2.21,4.83-1.18,1.03-2.7,1.59-4.28,1.59-3.58,0-6.49-2.88-6.49-6.43v-9.28c0-.95,.77-1.72,1.72-1.72s1.72,.77,1.72,1.72v9.28c0,1.65,1.37,2.99,3.05,2.99,.74,0,1.46-.26,2.02-.75,.7-.67,1.04-1.44,1.04-2.25v-2.79c0-3.5,2.85-6.36,6.37-6.42h.12c3.58,0,6.48,2.89,6.48,6.42v2.79c0,.81,.34,1.58,.95,2.16l.05,.05v.02c.63,.52,1.33,.77,2.05,.77,1.68,0,3.05-1.34,3.05-2.99v-9.28c0-.95,.77-1.72,1.72-1.72s1.72,.77,1.72,1.72v9.28c0,3.54-2.91,6.43-6.49,6.43Z"/><circle class="cls-1" cx="20.04" cy="18.97" r="2.47"/></svg>