<?xml version="1.0" encoding="UTF-8"?>
<svg id="Capa_1" data-name="Capa 1" xmlns="http://www.w3.org/2000/svg" viewBox="0 0 25.51 25.51">
  <defs>
    <style>
      .cls-1 {
        fill: none;
      }

      .cls-2 {
        fill: #fff;
      }
    </style>
  </defs>
  <g id="Accion_descartar" data-name="Accion descartar">
    <g id="Elipse_62" data-name="Elipse 62">
      <circle class="cls-1" cx="12.76" cy="12.76" r="12.44"/>
      <path class="cls-2" d="M12.76,25.2C5.9,25.2,.32,19.61,.32,12.76S5.9,.32,12.76,.32s12.44,5.58,12.44,12.44-5.58,12.44-12.44,12.44ZM12.76,1.63C6.62,1.63,1.63,6.62,1.63,12.76s4.99,11.13,11.13,11.13,11.13-4.99,11.13-11.13S18.89,1.63,12.76,1.63Z"/>
    </g>
    <g id="Grupo_921" data-name="Grupo 921">
      <g id="Trazado_1692" data-name="Trazado 1692">
        <path class="cls-2" d="M18.26,18.99c-.24,0-.48-.09-.67-.27L6.19,8.04c-.4-.37-.42-.99-.04-1.39s.99-.41,1.39-.04l11.39,10.68c.4,.37,.42,.99,.04,1.39-.19,.21-.45,.31-.72,.31Z"/>
      </g>
      <g id="Trazado_1693" data-name="Trazado 1693">
        <path class="cls-2" d="M7.22,19.35c-.24,0-.48-.09-.67-.27-.4-.37-.42-.99-.04-1.39L17.18,6.3c.37-.4,.99-.41,1.39-.04,.4,.37,.42,.99,.04,1.39L7.93,19.04c-.19,.21-.45,.31-.72,.31Z"/>
      </g>
    </g>
  </g>
</svg>