<?xml version="1.0" encoding="UTF-8"?>
<svg id="Capa_1" data-name="Capa 1" xmlns="http://www.w3.org/2000/svg" viewBox="0 0 23.66 23.66">
  <defs>
    <style>
      .cls-1 {
        fill: #79f088;
      }
    </style>
  </defs>
  <path class="cls-1" d="M11.83,23.66C5.31,23.66,0,18.35,0,11.83S5.31,0,11.83,0s11.83,5.31,11.83,11.83-5.31,11.83-11.83,11.83ZM11.83,1C5.86,1,1,5.86,1,11.83s4.86,10.83,10.83,10.83,10.83-4.86,10.83-10.83S17.8,1,11.83,1Z"/>
  <g>
    <rect class="cls-1" x="11.33" y="5.8" width="1" height="10.86"/>
    <path class="cls-1" d="M7.03,9.83c.23-.15,.54-.08,.69,.15l4.11,6.45,4.11-6.45c.15-.23,.46-.3,.69-.15s.3,.46,.15,.69l-4.53,7.11c-.09,.14-.25,.23-.42,.23s-.33-.09-.42-.23l-4.53-7.11c-.05-.08-.08-.18-.08-.27,0-.17,.08-.33,.23-.42Z"/>
  </g>
</svg>