<?xml version="1.0" encoding="UTF-8"?>
<svg id="Capa_1" data-name="Capa 1" xmlns="http://www.w3.org/2000/svg" xmlns:xlink="http://www.w3.org/1999/xlink" viewBox="0 0 85 85">
  <defs>
    <style>
      .cls-1 {
        fill: #fff;
      }

      .cls-2 {
        fill: #365494;
      }

      .cls-3 {
        fill: #73d36e;
      }

      .cls-4 {
        fill: url(#Degradado_sin_nombre_8-2);
      }

      .cls-5 {
        fill: url(#Degradado_sin_nombre_6-2);
      }

      .cls-6 {
        fill: url(#Degradado_sin_nombre_6);
      }

      .cls-7 {
        fill: url(#Degradado_sin_nombre_3);
      }

      .cls-8 {
        fill: url(#Degradado_sin_nombre_8);
      }
    </style>
    <radialGradient id="Degradado_sin_nombre_3" data-name="Degradado sin nombre 3" cx="-170.67" cy="1578.21" fx="-170.67" fy="1578.21" r="2.85" gradientTransform="translate(956.98 1059.73) scale(3.75 -.63)" gradientUnits="userSpaceOnUse">
      <stop offset="0" stop-color="#c9cbcc"/>
      <stop offset=".11" stop-color="#c9cbcc" stop-opacity=".84"/>
      <stop offset=".35" stop-color="#c9cbcc" stop-opacity=".55"/>
      <stop offset=".56" stop-color="#c9cbcc" stop-opacity=".31"/>
      <stop offset=".75" stop-color="#c9cbcc" stop-opacity=".14"/>
      <stop offset=".9" stop-color="#c9cbcc" stop-opacity=".04"/>
      <stop offset="1" stop-color="#c9cbcc" stop-opacity="0"/>
    </radialGradient>
    <radialGradient id="Degradado_sin_nombre_6" data-name="Degradado sin nombre 6" cx="-170.72" cy="1360.28" fx="-170.72" fy="1360.28" r="1.36" gradientTransform="translate(931.43 1376.97) scale(3.75 -1.34)" gradientUnits="userSpaceOnUse">
      <stop offset="0" stop-color="#c9cbcc" stop-opacity=".7"/>
      <stop offset=".15" stop-color="#c9cbcc" stop-opacity=".51"/>
      <stop offset=".32" stop-color="#c9cbcc" stop-opacity=".33"/>
      <stop offset=".5" stop-color="#c9cbcc" stop-opacity=".19"/>
      <stop offset=".67" stop-color="#c9cbcc" stop-opacity=".08"/>
      <stop offset=".84" stop-color="#c9cbcc" stop-opacity=".02"/>
      <stop offset="1" stop-color="#c9cbcc" stop-opacity="0"/>
    </radialGradient>
    <radialGradient id="Degradado_sin_nombre_6-2" data-name="Degradado sin nombre 6" cx="-148.1" cy="1439.57" fx="-148.1" fy="1439.57" r="1.15" gradientTransform="translate(705.72 4687.64) scale(3.75 -3.75)" xlink:href="#Degradado_sin_nombre_6"/>
    <linearGradient id="Degradado_sin_nombre_8" data-name="Degradado sin nombre 8" x1="-199.44" y1="1200.06" x2="-199.94" y2="1200.92" gradientTransform="translate(1423.23 8453.54) scale(7.02 -7.02)" gradientUnits="userSpaceOnUse">
      <stop offset="0" stop-color="#ababff"/>
      <stop offset=".09" stop-color="#99f"/>
      <stop offset=".3" stop-color="#77f"/>
      <stop offset=".48" stop-color="#6161ff"/>
      <stop offset=".59" stop-color="#5a5aff"/>
      <stop offset=".66" stop-color="#5859f9"/>
      <stop offset=".74" stop-color="#5258e9"/>
      <stop offset=".84" stop-color="#4957ce"/>
      <stop offset=".95" stop-color="#3d55a9"/>
      <stop offset="1" stop-color="#365494"/>
    </linearGradient>
    <linearGradient id="Degradado_sin_nombre_8-2" data-name="Degradado sin nombre 8" x1="-219.79" y1="1173.46" x2="-219.15" y2="1173.72" gradientTransform="translate(3771.02 28959.35) scale(17.07 -24.64)" xlink:href="#Degradado_sin_nombre_8"/>
  </defs>
  <g id="Grupo_1340" data-name="Grupo 1340">
    <g id="Grupo_1356" data-name="Grupo 1356">
      <circle id="Elipse_122" data-name="Elipse 122" class="cls-3" cx="42.5" cy="42.5" r="42.5"/>
    </g>
  </g>
  <g id="Componentes_fijos" data-name="Componentes fijos">
    <g id="Toolbar_-_recogida" data-name="Toolbar - recogida">
      <g id="Grupo_310" data-name="Grupo 310">
        <g id="Grupo_306" data-name="Grupo 306">
          <ellipse id="Elipse_39" data-name="Elipse 39" class="cls-7" cx="30.11" cy="58.48" rx="14.99" ry="1.88"/>
          <ellipse id="Elipse_40" data-name="Elipse 40" class="cls-6" cx="51.72" cy="58.48" rx="7.15" ry="1.88"/>
          <ellipse id="Elipse_41" data-name="Elipse 41" class="cls-5" cx="65.89" cy="58.48" rx="7.15" ry="1.88"/>
        </g>
        <g id="Grupo_309" data-name="Grupo 309">
          <path id="Trazado_1126" data-name="Trazado 1126" class="cls-1" d="M58.67,33.6c-2.77,0-5.42,1.11-7.37,3.09-3.98-4.06-10.5-4.13-14.57-.15-1.95,1.91-3.06,4.52-3.09,7.26v4.31c0,1.25-.55,2.43-1.5,3.25h0c1.22-1.06,3.07-.93,4.12,.29,1.06,1.22,.93,3.07-.29,4.12h0c2.23-1.93,3.51-4.72,3.51-7.67v-4.31c.06-2.45,2.1-4.39,4.56-4.33,2.36,.06,4.26,1.96,4.33,4.33v11.57c-.03,1.62,1.26,2.95,2.87,2.98,1.62,.03,2.95-1.26,2.98-2.87,0-.04,0-.07,0-.11v-11.56c.06-2.45,2.1-4.39,4.56-4.33,2.36,.06,4.26,1.96,4.33,4.33v11.57c.03,1.62,1.36,2.9,2.98,2.87,1.57-.03,2.84-1.3,2.87-2.87v-11.57c-.03-5.65-4.64-10.21-10.29-10.19h0Z"/>
          <path id="Trazado_1127" data-name="Trazado 1127" class="cls-1" d="M51.29,58.28c-1.61,0-2.92-1.31-2.92-2.92v-11.57c-.05-2.45-2.08-4.39-4.53-4.34-2.38,.05-4.29,1.96-4.34,4.34v4.31c0,2.94-1.28,5.74-3.51,7.67-1.22,1.06-3.07,.93-4.13-.3-1.06-1.22-.93-3.07,.3-4.13,.95-.81,1.49-2,1.49-3.25v-4.31c.06-5.68,4.71-10.25,10.39-10.19,5.6,.06,10.13,4.58,10.19,10.19v11.57c0,1.61-1.31,2.92-2.92,2.92h-.02Z"/>
          <g id="Grupo_308" data-name="Grupo 308">
            <path id="Trazado_1128" data-name="Trazado 1128" class="cls-2" d="M36.28,51.63c-1.06-1.22-2.9-1.35-4.13-.3h0c-1.22,1.06-1.35,2.91-.29,4.13,1.06,1.22,2.91,1.35,4.13,.29h0c1.22-1.06,1.35-2.9,.3-4.13h-.01Z"/>
            <g id="Grupo_307" data-name="Grupo 307">
              <path id="Trazado_1129" data-name="Trazado 1129" class="cls-1" d="M43.73,32.01c1.94,0,3.51-1.57,3.51-3.51,0-1.94-1.57-3.51-3.51-3.51s-3.51,1.57-3.51,3.51c0,1.94,1.57,3.51,3.51,3.51Z"/>
              <path id="Trazado_1130" data-name="Trazado 1130" class="cls-8" d="M21.8,32.01c1.94,0,3.51-1.57,3.51-3.51s-1.57-3.51-3.51-3.51c-1.94,0-3.51,1.57-3.51,3.51,0,1.94,1.57,3.51,3.51,3.51Z"/>
              <path id="Trazado_1131" data-name="Trazado 1131" class="cls-4" d="M35.98,55.76c-1.22,1.06-3.07,.93-4.13-.29-1.06-1.22-.93-3.07,.29-4.13-.82,.71-1.86,1.09-2.94,1.09-2.42,.02-4.41-1.92-4.44-4.34v-11.58c-.03-1.62-1.36-2.9-2.98-2.87-1.57,.03-2.84,1.3-2.87,2.87v11.57c.06,5.69,4.73,10.26,10.43,10.19,2.44-.03,4.8-.92,6.65-2.53h0Z"/>
            </g>
          </g>
        </g>
      </g>
    </g>
  </g>
</svg>