<?xml version="1.0" encoding="UTF-8"?>
<svg id="Capa_1" data-name="Capa 1" xmlns="http://www.w3.org/2000/svg" viewBox="0 0 20.2 28.36">
  <defs>
    <style>
      .cls-1 {
        fill: #fff;
      }
    </style>
  </defs>
  <g id="perfil">
    <path id="Trazado_98" data-name="Trazado 98" class="cls-1" d="M18.81,28.36c-.77,0-1.39-.62-1.39-1.38,0,0,0,0,0,0v-4.21c0-4.04-3.28-7.32-7.32-7.32s-7.32,3.28-7.32,7.32v4.21c0,.77-.62,1.39-1.39,1.39C.62,28.36,0,27.74,0,26.97v-4.21c0-5.58,4.52-10.1,10.1-10.1,5.58,0,10.1,4.52,10.1,10.1v4.21c0,.77-.62,1.39-1.38,1.39,0,0,0,0,0,0Z"/>
    <path id="Trazado_99" data-name="Trazado 99" class="cls-1" d="M10.1,15.18c-4.19,0-7.59-3.4-7.59-7.59S5.91,0,10.1,0s7.59,3.4,7.59,7.59c0,4.19-3.4,7.58-7.59,7.59Zm0-12.4c-2.66,0-4.81,2.15-4.81,4.81s2.15,4.81,4.81,4.81,4.81-2.15,4.81-4.81h0c0-2.65-2.16-4.81-4.81-4.81Z"/>
  </g>
</svg>