<?xml version="1.0" encoding="UTF-8"?>
<svg id="Capa_1" data-name="Capa 1" xmlns="http://www.w3.org/2000/svg" viewBox="0 0 72.41 72.22">
  <defs>
    <style>
      .cls-1 {
        fill: #5d55ff;
      }
    </style>
  </defs>
  <path class="cls-1" d="M.08,25.65c.47-1.2,1.07-2.3,2.25-2.97,1.6-.92,3.22-.96,4.83-.07,1.56,.87,2.4,2.25,2.41,4.03,.03,5.26,.01,10.52,.01,15.78,0,.19,0,.38,0,.56,0,.13-.05,.31,.11,.38,.15,.07,.25-.09,.36-.17,1.47-1.04,3.05-1.26,4.75-.68,.11,.04,.23,.07,.33,.13,3.38,2.16,6.89,4.15,9.62,7.18,2.63,2.92,4.2,6.36,4.99,10.19,.67,3.26,1.36,6.52,2.05,9.78,.03,.16,.07,.32,.1,.48,.16,.95-.29,1.71-1.13,1.89-.81,.17-1.55-.31-1.76-1.23-.37-1.6-.66-3.22-1.02-4.82-.63-2.79-1.01-5.64-1.94-8.36-1.29-3.78-3.68-6.72-6.95-8.97-1.51-1.04-3.03-2.06-4.55-3.08-1.13-.76-2.3-.67-3.04,.22-.75,.9-.68,2.19,.2,3.14,2.11,2.27,4.24,4.52,6.36,6.78,.37,.39,.66,.81,.62,1.37-.07,1.14-1.35,1.75-2.3,1.07-.41-.3-.77-.69-1.11-1.07-2.14-2.34-4.43-4.54-6.46-6.98-1.39-1.67-2.12-3.65-2.12-5.84-.02-5.59,0-11.18,0-16.77,0-.42-.02-.84-.11-1.26-.19-.81-.83-1.36-1.64-1.4-.85-.04-1.57,.46-1.82,1.26-.11,.36-.14,.74-.14,1.11,0,6.91,0,13.81,0,20.72,0,2.63,.71,5.05,2.28,7.19,.69,.95,1.36,1.91,2.04,2.87,.28,.39,.51,.8,.44,1.3-.09,.64-.44,1.08-1.06,1.27-.64,.19-1.19-.03-1.56-.54C2.91,57.2,.58,54.3,.08,50.46V25.65Z"/>
  <path class="cls-1" d="M36.72,0c.69,.42,.96,1.04,.9,1.84-.04,.56,0,1.12-.02,1.69-.04,.88-.65,1.46-1.48,1.45-.8-.02-1.38-.59-1.41-1.45-.03-.56,.02-1.13-.02-1.69-.06-.8,.21-1.42,.9-1.84h1.13Z"/>
  <path class="cls-1" d="M45.46,44.57c-1.39,0-2.77,.03-4.16,0-.95-.02-1.57-.64-1.58-1.47-.01-.77,.59-1.38,1.49-1.5,.25-.03,.52-.05,.77-.02,.59,.06,.79-.19,.76-.77-.04-.68-.03-1.36,0-2.04,.03-.86,.62-1.43,1.42-1.44,.84-.01,1.44,.57,1.48,1.46,.03,.7,.03,1.41,0,2.11-.02,.54,.2,.7,.71,.69,2.28-.05,1.9,.3,1.92-1.87,.01-.94,.1-1.89-.1-2.81-.53-2.41-2.07-3.89-4.43-4.52-1.02-.27-2.06-.48-3.08-.75-.45-.12-.67,.02-.85,.45-.67,1.6-1.39,3.18-2.08,4.78-.3,.71-.7,1.32-1.55,1.34-.85,.01-1.27-.58-1.58-1.29-.68-1.6-1.41-3.18-2.08-4.78-.2-.49-.46-.62-.96-.48-1.22,.34-2.47,.58-3.68,.96-2.23,.71-3.74,2.74-3.83,5.06-.04,1.08,0,2.16-.03,3.24,0,.48,.19,.67,.67,.67,2.41-.05,1.9,.32,1.96-1.89,0-.35-.01-.71,.02-1.06,.07-.79,.69-1.33,1.47-1.31,.75,.01,1.36,.55,1.4,1.31,.05,.77,.04,1.55,.02,2.32-.01,.46,.17,.65,.62,.62,.4-.02,.8,0,1.19,.12,.65,.21,1.01,.67,1.06,1.35,.05,.64-.38,1.21-1.03,1.44-.3,.1-.6,.11-.9,.11-2.51,0-5.03,0-7.54,0-1.38,0-1.93-.55-1.94-1.92,0-1.46-.03-2.91,.01-4.37,.01-.6-.21-.76-.78-.75-1.78,.03-3.57,.02-5.36,0-1.17,0-1.75-.55-1.76-1.71,0-1.48-.15-2.97,.33-4.4,.82-2.42,2.53-3.9,4.98-4.52,.61-.16,1.23-.29,1.85-.45,.47-.12,.54-.35,.15-.67-1.78-1.47-2.51-3.39-2.4-5.67,.07-1.47-.14-2.95,.28-4.41,1.17-4.03,6.1-5.85,9.57-3.48,.51,.35,.67,.28,.96-.25,1.57-2.85,4-4.38,7.26-4.39,3.29-.01,5.74,1.53,7.34,4.39,.29,.53,.45,.57,.96,.24,1.99-1.26,4.11-1.43,6.23-.38,2.2,1.09,3.41,2.91,3.55,5.36,.08,1.33,.06,2.68,0,4.02-.08,1.83-.9,3.33-2.29,4.51-.15,.13-.4,.23-.31,.49,.07,.21,.28,.21,.47,.26,.84,.22,1.69,.41,2.51,.68,2.66,.87,4.46,3.28,4.55,6.09,.03,.87,.02,1.74,0,2.61-.02,1.13-.58,1.69-1.7,1.7-1.81,.01-3.62,.02-5.43,0-.57,0-.79,.16-.77,.76,.04,1.43,.01,2.87,.01,4.3,0,1.46-.54,1.98-2.01,1.98-1.27,0-2.54,0-3.81,0h0Zm-3.98-24.92c.3-1.01-.27-1.68-1.3-2.11-.39-.16-.74-.41-1.1-.64-.27-.18-.48-.18-.75,.04-1.77,1.44-3.8,2.05-6.08,2-1.54-.03-1.46-.32-1.4,1.49,.14,3.8,3.77,6.22,7.27,4.88,2.17-.83,3.36-2.78,3.36-5.67Zm2.97,9.7c2.7,.84,4.73,2.37,5.96,4.9,.13,.26,.32,.38,.61,.38,1.53,0,3.05,0,4.58,0,.39,0,.52-.17,.55-.55,.18-2.2-.93-3.77-3.09-4.3-.96-.24-1.91-.48-2.88-.69-.85-.19-1.47-.57-1.58-1.53-.08-.66-.64-.26-.97-.36-.34-.1-.45,.08-.48,.4-.08,.81-.6,1.24-1.35,1.42-.45,.11-.91,.23-1.36,.34Zm-16.61,0c-.5-.13-.99-.26-1.49-.39-.68-.18-1.1-.61-1.2-1.31-.04-.32-.09-.56-.5-.47-.36,.08-.9-.25-.96,.46-.08,.83-.62,1.21-1.37,1.39-.98,.23-1.96,.46-2.94,.7-2.25,.55-3.28,1.91-3.23,4.2,.01,.52,.19,.7,.7,.69,1.36-.03,2.72-.04,4.08,0,.58,.02,.89-.18,1.13-.71,.22-.48,.54-.94,.87-1.36,1.27-1.6,2.93-2.6,4.91-3.22Zm13.39-14.63c.04-.18,.07-.22,.06-.26-.56-2.22-2.79-4.26-5.9-3.87-2.35,.29-4.47,2.54-4.54,4.92,0,.31,.07,.49,.41,.5,2.21,.1,4.25-.24,5.85-1.98,.78-.85,1.36-.9,2.37-.34,.57,.32,1.12,.66,1.75,1.02Zm6.62,9.48c1.79,0,3.1-1.22,3.43-3.17,.1-.6-.02-.87-.69-.84-1.55,.07-3.08-.05-4.6-.43-.48-.12-1.06-.64-1.4-.28-.26,.28-.1,.98-.09,1.49,.06,1.77,1.57,3.22,3.35,3.22Zm-20.04-3.66c0-.26,0-.52,0-.77,0-.29-.13-.46-.44-.35-1.86,.69-3.78,.84-5.74,.78-.38-.01-.55,.16-.56,.54,0,.75,.17,1.44,.62,2.05,.88,1.18,2.38,1.68,3.75,1.25,1.51-.47,2.36-1.73,2.38-3.5Zm21.58-3.35c.42,0,.84,0,1.27,0,.5,0,.61-.26,.46-.69-.46-1.31-1.39-2.13-2.75-2.33-1.37-.2-2.48,.33-3.3,1.45-.26,.35-.21,.55,.22,.73,1.31,.56,2.67,.87,4.1,.84Zm-26.52,0c1.43,.04,2.79-.28,4.11-.82,.51-.21,.51-.43,.21-.82-.82-1.05-1.89-1.56-3.2-1.38-1.3,.18-2.24,.92-2.73,2.17-.27,.7-.17,.84,.55,.86,.35,0,.7,0,1.06,0Zm13.19,15.62c.06,0,.13-.01,.19-.02,.38-.86,.75-1.71,1.13-2.57,.14-.32,.3-.63,.32-1,.02-.43-.06-.65-.58-.6-.58,.06-1.17,.03-1.76,.02-.76-.02-.96,.15-.69,.88,.4,1.12,.92,2.19,1.39,3.28Zm5.01-5.7c.86-.21,1.59-.38,2.3-.58,.26-.07,.62-.02,.72-.34,.11-.34-.26-.45-.43-.65-.08-.09-.17-.16-.25-.25-.23-.27-.41-.22-.6,.05-.46,.65-1.06,1.17-1.74,1.76Zm-10.1-.07c-.3-.35-.7-.8-1.09-1.25-.68-.78-.74-.78-1.47-.03-.33,.34-.28,.56,.18,.68,.85,.22,1.7,.42,2.39,.6Z"/>
  <path class="cls-1" d="M72.29,38.08c0,3.57,0,7.14,0,10.71,0,2.68-.71,5.17-2.24,7.37-3.56,5.11-7.18,10.17-10.78,15.24-.41,.58-.94,.93-1.68,.78-.62-.12-.97-.55-1.12-1.14-.15-.59,.16-1.05,.47-1.49,1.68-2.38,3.37-4.75,5.05-7.13,1.7-2.39,3.38-4.8,5.1-7.18,1.54-2.13,2.26-4.52,2.26-7.12,0-6.95,0-13.9,0-20.86,0-1.46-.73-2.32-1.91-2.28-.81,.02-1.48,.57-1.67,1.36-.11,.44-.12,.88-.12,1.33,0,5.45-.01,10.9,0,16.35,0,2.59-.83,4.85-2.55,6.75-2.21,2.43-4.49,4.8-6.74,7.2-.46,.49-1.01,.78-1.7,.55-.57-.18-.9-.59-.99-1.17-.1-.59,.19-1.04,.57-1.45,2.09-2.23,4.17-4.46,6.27-6.67,.56-.59,.9-1.24,.82-2.08-.14-1.48-1.76-2.51-2.99-1.71-2.93,1.89-6,3.62-8.41,6.23-2.38,2.58-3.76,5.64-4.45,9.04-.68,3.36-1.4,6.71-2.1,10.06-.15,.72-.48,1.29-1.26,1.42-1.07,.19-1.91-.75-1.67-1.91,.76-3.68,1.52-7.35,2.31-11.02,.46-2.15,1.27-4.17,2.38-6.07,1.62-2.8,3.81-5.05,6.47-6.86,1.53-1.05,3.07-2.09,4.62-3.11,2.04-1.35,4.03-1.34,6.05,.02,.11,.07,.21,.25,.36,.15,.18-.12,.1-.35,.1-.53,0-2.98,0-5.97,0-8.95,0-2.37-.01-4.74,0-7.12,.02-2.71,2.09-4.78,4.78-4.81,2.57-.03,4.73,2.12,4.75,4.77,.02,3.78,0,7.56,0,11.34Z"/>
  <path class="cls-1" d="M12.3,66.34c.54-.02,.95,.23,1.25,.65,.66,.91,1.32,1.82,1.95,2.75,.58,.86,.46,1.73-.27,2.23-.68,.47-1.55,.28-2.14-.52-.71-.96-1.43-1.92-2.04-2.94-.62-1.04,.08-2.18,1.25-2.17Z"/>
  <path class="cls-1" d="M31.41,5.48c0,1.27-1.23,1.97-2.2,1.34-.79-.51-1.45-1.2-1.97-1.98-.38-.57-.27-1.18,.17-1.68,.44-.51,1.05-.7,1.65-.36,.93,.53,1.65,1.3,2.22,2.19,.11,.17,.11,.4,.13,.49Z"/>
  <path class="cls-1" d="M45.24,4.18c0,.26-.05,.52-.21,.73-.56,.73-1.18,1.4-1.94,1.93-.56,.39-1.26,.3-1.75-.15-.49-.46-.65-1.23-.27-1.8,.52-.79,1.18-1.47,1.98-1.97,.99-.62,2.2,.11,2.18,1.27Z"/>
  <path class="cls-1" d="M7.93,63.66c0-.83,.67-1.51,1.45-1.49,.79,.02,1.47,.72,1.45,1.51-.02,.79-.66,1.44-1.43,1.45-.81,.02-1.47-.65-1.47-1.47Z"/>
  <path class="cls-1" d="M36.18,41.63c.82,.01,1.45,.69,1.42,1.52-.03,.78-.7,1.42-1.47,1.41-.78-.02-1.42-.68-1.42-1.46,0-.82,.66-1.48,1.47-1.47Z"/>
</svg>