<?xml version="1.0" encoding="UTF-8"?>
<svg id="Capa_1" data-name="Capa 1" xmlns="http://www.w3.org/2000/svg" viewBox="0 0 41.8 40">
  <defs>
    <style>
      .cls-1 {
        fill: #fff;
        stroke: #fff;
        stroke-width: .5px;
      }
    </style>
  </defs>
  <g id="SimulacioÌn">
    <g id="Grupo_820" data-name="Grupo 820">
      <path id="Trazado_1517" data-name="Trazado 1517" class="cls-1" d="M19.59,28.52H4c-.51,.02-.93-.38-.95-.89-.02-.51,.38-.93,.89-.95,.02,0,.04,0,.06,0h15.6c.51,.02,.9,.44,.89,.95-.02,.48-.4,.87-.89,.89h-.01Z"/>
      <g id="Grupo_819" data-name="Grupo 819">
        <path id="Trazado_1518" data-name="Trazado 1518" class="cls-1" d="M24.18,32.99c-.74-.01-1.34-.62-1.33-1.37,.01-.74,.62-1.34,1.37-1.33,.74,.01,1.33,.61,1.33,1.35,0,.75-.62,1.35-1.37,1.34Zm0-1.47s-.09,.05-.09,.11c0,.05,.04,.09,.09,.09,.05,0,.09-.04,.09-.09h0c0-.06-.04-.11-.09-.11h0Z"/>
        <path id="Trazado_1519" data-name="Trazado 1519" class="cls-1" d="M16.83,32.99c-.74-.01-1.34-.62-1.33-1.37,.01-.74,.62-1.34,1.37-1.33,.74,.01,1.33,.61,1.33,1.35,0,.75-.62,1.35-1.37,1.34Zm0-1.47s-.09,.05-.09,.11c0,.05,.04,.09,.09,.09,.05,0,.09-.04,.09-.09h0c0-.06-.04-.11-.09-.11h0Z"/>
        <path id="Trazado_1520" data-name="Trazado 1520" class="cls-1" d="M20.5,32.99c-.74-.01-1.34-.62-1.33-1.37,.01-.74,.62-1.34,1.37-1.33,.74,.01,1.33,.61,1.33,1.35,0,.75-.62,1.35-1.37,1.34Zm0-1.47s-.09,.05-.09,.11c0,.05,.04,.09,.09,.09,.05,0,.09-.04,.09-.09h0c0-.06-.04-.11-.09-.11h0Z"/>
      </g>
      <path id="Trazado_1521" data-name="Trazado 1521" class="cls-1" d="M34.84,23.98h-2.86c-1.33,0-2.4-1.07-2.4-2.4h0V12.77c0-.31-.25-.55-.56-.56h-.63c-.31,0-.55,.25-.56,.56v1.98c0,1.32-1.07,2.4-2.4,2.4h-.59c-1.32,0-2.4-1.07-2.4-2.4v-3.99c0-.31-.25-.56-.56-.56s-.56,.25-.56,.56v7.45c0,1.32-1.07,2.4-2.4,2.4h-.36c-1.33,0-2.4-1.07-2.4-2.4h0v-.87c0-.31-.25-.55-.56-.56h-.12c-1.32,0-2.4-1.07-2.4-2.4v-2.57c0-.31-.25-.55-.56-.56h-.12c-.31,0-.55,.25-.56,.56v9.77c0,1.33-1.08,2.4-2.4,2.4h-1.24c-.51-.02-.9-.44-.89-.95,.02-.48,.4-.87,.89-.89h1.24c.31,0,.55-.25,.56-.56V11.81c0-1.32,1.08-2.4,2.4-2.4h.12c1.32,0,2.4,1.07,2.4,2.4v2.57c0,.31,.25,.55,.56,.56h.12c1.32,0,2.4,1.07,2.4,2.4v.87c0,.31,.25,.55,.56,.56h.36c.31,0,.55-.25,.56-.56v-7.45c0-1.32,1.08-2.4,2.4-2.4,1.32,0,2.4,1.07,2.4,2.4v3.99c0,.31,.25,.55,.56,.56h.59c.31,0,.55-.25,.56-.56v-1.98c0-1.32,1.07-2.4,2.4-2.4h.64c1.32,0,2.4,1.07,2.4,2.4v8.82c0,.31,.25,.55,.56,.56h2.86c.51-.02,.93,.38,.95,.89,.02,.51-.38,.93-.89,.95-.02,0-.04,0-.06,0h0Z"/>
    </g>
    <path id="Trazado_1522" data-name="Trazado 1522" class="cls-1" d="M20.9,39.97C9.91,39.97,1,31.06,1,20.06S9.91,.16,20.9,.16s19.9,8.91,19.9,19.9c-.01,10.99-8.92,19.89-19.9,19.9Zm0-37.76C11.04,2.2,3.04,10.2,3.04,20.06s8,17.86,17.86,17.86,17.86-8,17.86-17.86h0c-.01-9.86-8-17.85-17.86-17.86Z"/>
  </g>
</svg>