<?xml version="1.0" encoding="UTF-8"?>
<svg id="Capa_1" data-name="Capa 1" xmlns="http://www.w3.org/2000/svg" viewBox="0 0 74.04 65.34">
  <defs>
    <style>
      .cls-1, .cls-2 {
        fill: #98ed94;
      }

      .cls-2 {
        stroke: #98ed94;
        stroke-linecap: round;
        stroke-width: 4px;
      }
    </style>
  </defs>
  <g id="Trazado_2002" data-name="Trazado 2002">
    <path class="cls-1" d="M64.37,47.21h-.44c-.46,0-46.39-.11-50.02,0-2.78,.09-7.94-3.07-11.06-7.92-3.5-5.43-3.79-11.76-.81-17.81C7.26,10.84,18.28,10.29,24.89,11.75,26.49,6.66,31.65-.27,43.24,0c12.37,.29,17.09,11.59,18.12,18.86,4.34,.48,10.71,3.18,12.36,11.22,1.9,9.24-5.02,15.11-8.95,16.93l-.4,.19ZM19.24,15.16c-4.55,0-10.36,1.48-13.61,8.08-2.99,6.08-1.33,10.91,.59,13.88,2.57,3.99,6.47,6.08,7.55,6.08,0,0,.02,0,.02,0,3.53-.11,44.45-.01,49.66,0,1.62-.88,7.89-4.81,6.35-12.31-1.7-8.29-9.83-8.12-10.18-8.1l-1.94,.06-.13-1.93s-.31-4.38-2.35-8.63c-2.56-5.37-6.62-8.16-12.06-8.28-13.23-.28-14.74,10.03-14.8,10.47l-.32,2.4-2.3-.76c-.26-.09-3.01-.96-6.5-.96Z"/>
  </g>
  <path id="Trazado_2004" data-name="Trazado 2004" class="cls-2" d="M23.19,63.34l4.61-6.69,3.59-5.2"/>
  <path id="Trazado_2007" data-name="Trazado 2007" class="cls-2" d="M50.47,58.95l1.5-2.3,3.59-5.2"/>
  <path id="Trazado_2007-2" data-name="Trazado 2007" class="cls-2" d="M11.88,58.95l1.5-2.3,3.59-5.2"/>
  <path id="Trazado_2005" data-name="Trazado 2005" class="cls-2" d="M36.05,63.34l4.61-6.69,3.59-5.2"/>
</svg>