<?xml version="1.0" encoding="UTF-8"?>
<svg id="Capa_1" data-name="Capa 1" xmlns="http://www.w3.org/2000/svg" viewBox="0 0 35.66 45.78">
  <defs>
    <style>
      .cls-1 {
        fill: #5a5aff;
      }
    </style>
  </defs>
  <path id="Trazado_2045" data-name="Trazado 2045" class="cls-1" d="M34.09,23.25c-3.99-7.69-8.72-14.97-14.12-21.74-1.7-2.16-3.01-1.9-4.65,.12C9.89,8.34,4.98,15.34,1.48,23.11c-5.02,11.13,3.3,22.64,16.24,22.66,12.35,.57,21.8-11.9,16.36-22.51m-16.89,18.5c-8.84,.08-15.46-8.81-12.09-16.38,2.79-6.14,6.31-11.92,10.48-17.22,1.3-1.67,2.53-2.27,4.02-.2,3.73,5.19,7.92,10.13,10.39,16.03,3.75,8.94-2.58,17.68-12.8,17.77"/>
</svg>