<?xml version="1.0" encoding="UTF-8"?>
<svg id="Capa_1" data-name="Capa 1" xmlns="http://www.w3.org/2000/svg" viewBox="0 0 40.78 28.24">
  <defs>
    <style>
      .cls-1 {
        fill: #5a5aff;
      }
    </style>
  </defs>
  <g id="Grupo_1432" data-name="Grupo 1432">
    <path id="Trazado_2011" data-name="Trazado 2011" class="cls-1" d="M2.65,28c.86,.17,1.73,.25,2.6,.24,4.97,.02,9.94,0,14.91,0v-.02c5.46,0,10.92,.02,16.38-.01,1.23,0,2.48-.36,2.56-1.73,.08-1.41-1.18-1.73-2.39-1.88-.49-.05-.97-.07-1.46-.05-9.94,0-19.88,0-29.83,0-.97,0-1.94,.11-2.88,.33-.78,.11-1.36,.79-1.34,1.59,.06,.79,.67,1.43,1.45,1.52"/>
    <path id="Trazado_2013" data-name="Trazado 2013" class="cls-1" d="M12.07,20.87c1.43,.19,2.02-.47,2.35-1.78,.89-3.6,2.71-5.18,5.67-5.22,2.92-.04,4.97,1.66,5.82,5.09,.31,1.26,.76,2.1,2.25,1.87,1.41-.22,1.43-1.28,1.42-2.33-.02-4.36-4.56-8.32-9.49-8.25s-9.38,3.98-9.5,8.35c-.03,1.06,.04,2.08,1.47,2.28"/>
    <path id="Trazado_2027" data-name="Trazado 2027" class="cls-1" d="M8.16,20.48H1.46c-.76,.05-1.41-.52-1.46-1.28-.05-.76,.52-1.41,1.28-1.46,.06,0,.12,0,.18,0h6.69c.76-.05,1.41,.52,1.46,1.28,.05,.76-.52,1.41-1.28,1.46-.06,0-.12,0-.18,0"/>
    <path id="Trazado_2028" data-name="Trazado 2028" class="cls-1" d="M39.32,20.48h-7.16c-.76,.05-1.41-.52-1.46-1.28-.05-.76,.52-1.41,1.28-1.46,.06,0,.12,0,.18,0h7.16c.76-.05,1.41,.52,1.46,1.28,.05,.76-.52,1.41-1.28,1.46-.06,0-.12,0-.18,0"/>
    <path id="Trazado_2029" data-name="Trazado 2029" class="cls-1" d="M11.74,12.37c-.38,0-.75-.14-1.03-.4L5.97,7.53c-.53-.49-.57-1.31-.09-1.85,.03-.03,.06-.06,.09-.09,.59-.53,1.48-.53,2.07,0l4.73,4.44c.54,.49,.57,1.32,.09,1.85-.03,.03-.06,.06-.09,.09-.28,.26-.65,.4-1.03,.4"/>
    <path id="Trazado_2030" data-name="Trazado 2030" class="cls-1" d="M29.04,12.37c-.38,0-.75-.14-1.03-.4-.54-.49-.57-1.32-.09-1.85,.03-.03,.06-.06,.09-.09l4.73-4.43c.59-.53,1.48-.53,2.07,0,.53,.49,.57,1.31,.09,1.85-.03,.03-.06,.06-.09,.09l-4.73,4.43c-.28,.26-.65,.4-1.03,.4"/>
    <path id="Trazado_2031" data-name="Trazado 2031" class="cls-1" d="M20.39,9.02c-.78,.02-1.44-.59-1.46-1.37V1.37c.05-.81,.75-1.42,1.56-1.37,.74,.05,1.32,.63,1.37,1.37V7.64c-.03,.78-.68,1.39-1.46,1.37"/>
  </g>
</svg>