<?xml version="1.0" encoding="UTF-8"?>
<svg id="Capa_1" data-name="Capa 1" xmlns="http://www.w3.org/2000/svg" viewBox="0 0 218.89 94.05">
  <defs>
    <style>
      .cls-1 {
        fill: #fff;
      }
    </style>
  </defs>
  <g>
    <path class="cls-1" d="m21.07,55.38c-6.51,0-13.02,0-19.53,0-.55,0-.91-.08-.99-.74C.27,52.27.03,49.89,0,47.5c-.03-2.72.16-5.43.62-8.12,1.5-8.84,5.13-16.73,11.1-23.43,3.67-4.13,7.99-7.57,12.95-10.2C30.06,2.89,35.76,1.06,41.8.34c9.08-1.08,17.77.38,26.05,4.24,4.46,2.08,8.4,4.9,12.08,8.11.33.29.51.46.09.92-3.77,4.06-7.5,8.15-11.23,12.24-5.08,5.57-10.14,11.15-15.22,16.72-3.69,4.06-7.4,8.11-11.08,12.17-.55.6-1.26.62-1.96.62-4.32.01-8.65,0-12.97,0-2.16,0-4.32,0-6.48,0h0Z"/>
    <path class="cls-1" d="m88.56,23.4c.91,1.22.88,1.6,1.5,2.98.27.6.77,1.24.69,1.8-.07.49-.81.87-1.23,1.33-3.29,3.6-6.58,7.22-9.87,10.82-3.05,3.34-6.11,6.68-9.17,10.02-2.56,2.8-5.13,5.59-7.69,8.39-.11.12-.32.23-.2.44.08.15.27.1.42.11.2,0,.41,0,.61,0,9.33,0,18.67,0,28,0,.05,0,.1-.01.15,0,.48.13,1.13-.36,1.4.09.17.29-.17.9-.31,1.35-2.15,6.58-5.44,12.52-10.16,17.65-3.17,3.45-6.67,6.51-10.73,8.87-5.01,2.91-10.33,5.15-16.1,6.05-4.43.69-8.88,1.05-13.43.5-4.82-.59-9.4-1.87-13.9-3.57-.28-.11-.59-.18-.76-.42,1.95-1.36,3.31-3.28,4.89-4.97,3.56-3.81,7.03-7.7,10.53-11.55,5.02-5.52,10.04-11.04,15.06-16.55,3.58-3.92,7.18-7.83,10.76-11.75,4.14-4.54,8.28-9.09,12.42-13.63,1.94-2.13,3.85-4.3,5.83-6.39.73-.77,1.3-1.54,1.3-1.54Z"/>
    <path class="cls-1" d="m85.28,21.01c-2.16,2.34-4.31,4.69-6.46,7.05-2.73,2.99-5.45,5.99-8.18,8.98-3.6,3.94-7.2,7.89-10.8,11.83-3.14,3.44-6.28,6.87-9.42,10.31-4.91,5.38-9.82,10.76-14.73,16.15-3.58,3.93-7.14,7.87-10.71,11.8-.58.64-.54.84.23,1.22.68.33,1.34.69,2.1,1.08-1.4.1-8.54-4.63-11.77-7.62-3.51-3.23-6.53-6.84-8.95-10.94-2.39-4.06-4.3-8.32-5.39-12.95.3.03.34.24.36.38.14.91.72,1,1.53,1,13.3-.02,26.61-.02,39.91,0,.85,0,1.41-.21,2-.89,2.45-2.83,5.02-5.56,7.53-8.33,2.65-2.92,5.3-5.85,7.94-8.78,3.06-3.38,6.12-6.75,9.17-10.13,4.24-4.69,8.56-9.32,12.68-14.11.66-.77.79-1.15,1.23-.64,1.14,1.32,1.53,1.8,2.44,3.3.44.73.23.13.26.39,0,0-.36.24-.98.92Z"/>
    <path class="cls-1" d="m112.87,21.76c1.65,0,3.31,0,4.96,0,1.04,0,1.14.08,1.33,1.12.73,4.09,1.44,8.18,2.18,12.27,1.08,5.95,2.19,11.89,3.28,17.83.46,2.5.84,5.02,1.42,7.49.12.5-.02.7-.55.69-2.77-.01-5.54-.01-8.31,0-.51,0-.73-.23-.78-.71-.18-1.73-.41-3.45-.69-5.16-.1-.61-.36-.8-.95-.8-1.45.02-2.9.03-4.35,0-.67-.02-.88.29-.95.89-.19,1.62-.44,3.24-.64,4.87-.08.66-.33.94-1.06.93-2.47-.05-4.93-.04-7.4,0-.69,0-.8-.21-.68-.84,2.06-10.91,4.09-21.83,6.13-32.75.3-1.61.59-3.22.84-4.84.11-.72.4-1.03,1.19-1.01,1.68.06,3.36.02,5.03.02Zm.04,8.02c-.06,0-.13,0-.19-.01-.02.09-.06.18-.07.27-.44,3.8-.88,7.6-1.33,11.39-.2,1.65-.42,3.29-.64,4.94-.08.58.13.83.75.81.89-.03,1.78-.02,2.67,0,.51.01.72-.2.63-.68-.27-1.49-.3-3.01-.52-4.5-.4-2.62-.51-5.26-.83-7.88-.18-1.44-.3-2.89-.45-4.34Z"/>
    <path class="cls-1" d="m127.99,41.42c0-5.8,0-11.59,0-17.39,0-.18,0-.35,0-.53q-.06-1.74,1.73-1.74c3.99,0,7.99-.09,11.98.03,2.76.08,5.39.73,7.38,2.89,1.58,1.71,2.19,3.8,2.29,6.03.1,2.49.18,4.98-.23,7.47-.61,3.67-2.94,6.1-6.58,6.99-2,.49-4,.19-5.99.26-1.81.07-1.61-.17-1.62,1.65,0,4.08,0,8.16,0,12.25,0,1.85,0,1.85-1.87,1.85-1.96,0-3.92,0-5.87,0q-1.19,0-1.19-1.16c0-6.2,0-12.4,0-18.6h0Zm8.94-7.8h0c0,.78,0,1.56,0,2.34,0,2.36,0,2.44,2.4,2.1,1.68-.23,2.87-.64,3.1-2.89.12-1.21.11-2.42-.11-3.61-.17-.9-.69-1.58-1.57-1.9-.96-.35-1.94-.57-2.98-.57-.61,0-.87.19-.85.83.04,1.23.01,2.47.01,3.7Z"/>
    <path class="cls-1" d="m154.85,41.4c0-5.8,0-11.59,0-17.39,0-.5-.02-1.01-.06-1.51-.04-.55.17-.76.74-.75,1.35.03,2.7,0,4.04,0,4.78,0,9.56,0,14.34,0,.99,0,1.02.03,1.02,1.03,0,2.02-.02,4.03,0,6.05.01.66-.21.88-.88.88-3.03-.03-6.05-.01-9.08,0-1.05,0-1.05,0-1.05,1.07,0,1.74.02,3.48-.03,5.22-.02.71.26.91.94.91,2.62-.03,5.24-.01,7.86,0,.94,0,1,.06,1,.98,0,2.02-.02,4.03,0,6.05.01.68-.2.94-.91.93-2.57-.03-5.14-.01-7.71-.01q-1.16,0-1.16,1.11c0,2.12.02,4.23-.03,6.35-.02.75.28.94.99.94,3.13-.03,6.26.01,9.38-.03.78,0,1,.25.99,1-.04,1.99-.01,3.98-.02,5.97,0,.99,0,.99-1.04.99-6.1,0-12.21,0-18.31,0-1.01,0-1.03-.02-1.03-1.01,0-6.25,0-12.5,0-18.75h0Z"/>
    <path class="cls-1" d="m178.66,41.81c0-5.9,0-11.79,0-17.69,0-.53-.05-1.06-.08-1.58-.04-.53.15-.78.73-.78,2.54.02,5.08.01,7.63,0,.52,0,.72.21.72.73-.02,9.42-.03,18.85-.05,28.27,0,.48,0,.96,0,1.44,0,1.01.01,1.03,1.01,1.03,2.59,0,5.19,0,7.78,0,1.11,0,1.12.02,1.12,1.09,0,1.94,0,3.88,0,5.82,0,1.01-.01,1.04-1,1.04-5.62,0-11.24-.01-16.86.02-.79,0-.99-.27-.99-1.01.02-6.12.01-12.25.01-18.37h0Z"/>
    <path class="cls-1" d="m200.03,41.43c0-5.82,0-11.64,0-17.46,0-.55-.03-1.11-.05-1.66-.02-.39.17-.54.55-.54,2.62,0,5.24,0,7.86,0,.51,0,.64.27.64.72-.02,9.9-.04,19.81-.05,29.71,0,1.01.01,1.03,1.01,1.03,2.64,0,5.29.02,7.93-.01.72,0,.99.21.98.95-.04,2.04-.04,4.08,0,6.12.01.72-.27.9-.94.89-5.64-.02-11.29-.02-16.93,0-.79,0-.99-.27-.99-1.01.02-6.25.01-12.5.01-18.75h0Z"/>
    <path class="cls-1" d="m92.56,32.15c.31,1.24.66,2.6.98,3.96.98,4.24,1.43,8.54,1.25,12.89-.07,1.81-.32,3.61-.5,5.41-.06.59-.34.86-.99.88-6.56.19-13.11.04-19.67.07-.63,0-1.25-.13-2.12.02,3.67-4,7.19-7.81,10.67-11.66,3.46-3.83,7.08-7.53,10.38-11.56Z"/>
  </g>
  <g>
    <path class="cls-1" d="m150.19,74.58v-9.03h2.44c.91,0,1.59.23,2.03.7.45.48.67,1.1.67,1.86,0,1.13-.48,1.74-1.45,1.84.55.09.95.3,1.21.63s.39.8.39,1.42c0,.78-.22,1.4-.65,1.87-.43.48-1,.71-1.7.71h-2.94Zm2.1-5.52h.14c.25,0,.45-.07.6-.2.15-.14.22-.33.22-.57,0-.52-.25-.78-.74-.78-.02,0-.05,0-.09,0-.04,0-.08,0-.13,0v1.55Zm0,3.56s.08,0,.11,0,.06,0,.08,0c.26,0,.47-.08.63-.24.16-.16.23-.37.23-.64s-.08-.48-.23-.63c-.16-.15-.37-.23-.64-.23h-.17v1.73Z"/>
    <path class="cls-1" d="m161.89,74.58h-2.17l-.16-1.15h-1.41l-.17,1.15h-2.17l1.87-9.03h2.57l1.65,9.03Zm-2.57-3.08l-.14-1.05s-.01-.06-.02-.16c0-.09-.04-.43-.11-1.02,0-.07-.02-.16-.03-.27,0-.11-.02-.26-.04-.44l-.07-.85c0,.08-.02.17-.03.27s-.02.21-.04.33c-.02.24-.04.41-.05.5,0,.09-.02.15-.02.17l-.15,1.09-.21,1.42h.89Z"/>
    <path class="cls-1" d="m168.03,74.58h-2.27l-1.04-3.22c-.01-.05-.03-.13-.05-.22-.03-.09-.06-.2-.09-.32l.02.6v3.16h-2.09v-9.03h2.15c.95,0,1.65.22,2.12.65.6.55.9,1.34.9,2.36,0,1.09-.4,1.85-1.2,2.26l1.56,3.76Zm-3.43-4.85h.14c.24,0,.44-.11.6-.32.16-.21.24-.49.24-.82,0-.67-.3-1.01-.91-1.01h-.08v2.15Z"/>
    <path class="cls-1" d="m174.25,74.58h-2.27l-1.04-3.22c-.01-.05-.03-.13-.05-.22-.03-.09-.06-.2-.09-.32l.02.6v3.16h-2.09v-9.03h2.15c.95,0,1.65.22,2.12.65.6.55.9,1.34.9,2.36,0,1.09-.4,1.85-1.2,2.26l1.56,3.76Zm-3.43-4.85h.14c.24,0,.44-.11.6-.32.16-.21.24-.49.24-.82,0-.67-.3-1.01-.91-1.01h-.08v2.15Z"/>
    <path class="cls-1" d="m180.54,74.58h-2.17l-.16-1.15h-1.41l-.17,1.15h-2.17l1.87-9.03h2.57l1.65,9.03Zm-2.57-3.08l-.14-1.05s-.01-.06-.02-.16c0-.09-.04-.43-.11-1.02,0-.07-.02-.16-.03-.27,0-.11-.02-.26-.04-.44l-.07-.85c0,.08-.02.17-.03.27s-.02.21-.04.33c-.02.24-.04.41-.05.5,0,.09-.02.15-.02.17l-.15,1.09-.21,1.42h.89Z"/>
    <path class="cls-1" d="m181.15,74.58v-9.03h2l1.05,3.17c.06.19.12.4.19.64.07.24.15.52.24.84l.22.8c-.08-.78-.14-1.46-.18-2.01-.04-.56-.06-1.03-.06-1.4v-2.03h2v9.03h-2l-1.06-3.32c-.11-.35-.21-.69-.3-1s-.17-.61-.23-.89c.04.64.08,1.19.1,1.66.02.47.03.89.03,1.24v2.31h-2Z"/>
    <path class="cls-1" d="m193.51,74.76l-1.69,1.08-.72-1.21c-.24.08-.45.12-.62.12-.83,0-1.53-.39-2.08-1.18-.59-.84-.89-2-.89-3.48s.27-2.57.81-3.42c.54-.85,1.26-1.28,2.16-1.28s1.59.42,2.13,1.27c.55.85.82,1.95.82,3.31,0,1.55-.29,2.73-.88,3.56l.96,1.24Zm-2.26-4.65c0-.39-.02-.73-.06-1.04-.04-.3-.09-.56-.16-.77-.07-.21-.15-.37-.25-.48-.1-.11-.21-.17-.33-.17-.23,0-.42.22-.56.66-.14.47-.21,1.06-.21,1.76,0,.37.02.71.05,1.01.04.3.09.55.15.75.07.2.15.36.24.46.1.11.21.16.33.16s.23-.05.33-.16c.1-.1.18-.26.25-.46.07-.2.12-.45.16-.74.04-.29.05-.62.05-.99Z"/>
    <path class="cls-1" d="m197.58,65.55h2.1v6.39c0,.53-.07.97-.22,1.3-.14.35-.38.66-.71.94-.44.37-.98.56-1.62.56-.72,0-1.32-.21-1.81-.62-.62-.53-.93-1.37-.93-2.53v-6.04h2.1v5.83c0,.39.04.67.12.84.08.16.22.25.42.25s.34-.08.42-.23c.08-.16.12-.44.12-.85v-5.83Z"/>
    <path class="cls-1" d="m202.87,74.58h-2.1v-9.03h2.1v9.03Z"/>
    <path class="cls-1" d="m207.63,74.58h-3.68v-9.03h2.1v6.86h1.58v2.17Z"/>
    <path class="cls-1" d="m211.93,74.58h-3.68v-9.03h2.1v6.86h1.58v2.17Z"/>
    <path class="cls-1" d="m218.43,74.58h-2.17l-.16-1.15h-1.41l-.17,1.15h-2.17l1.87-9.03h2.57l1.65,9.03Zm-2.57-3.08l-.14-1.05s-.01-.06-.02-.16c0-.09-.04-.43-.11-1.02,0-.07-.02-.16-.03-.27,0-.11-.02-.26-.04-.44l-.07-.85c0,.08-.02.17-.03.27s-.02.21-.04.33c-.02.24-.04.41-.05.5,0,.09-.02.15-.02.17l-.15,1.09-.21,1.42h.89Z"/>
  </g>
</svg>