<?xml version="1.0" encoding="UTF-8"?>
<svg id="Capa_1" data-name="Capa 1" xmlns="http://www.w3.org/2000/svg" viewBox="0 0 25.51 25.51">
  <defs>
    <style>
      .cls-1 {
        fill: #73d36e;
      }
    </style>
  </defs>
  <g id="Acción_grabar_voz" data-name="Acción grabar voz">
    <g id="_142-microphone" data-name=" 142-microphone">
      <path class="cls-1" d="M7.51,12.76V5.21C7.51,2.32,9.86-.03,12.76-.03s5.24,2.35,5.24,5.24v2.55c0,.55-.45,1-1,1s-1-.45-1-1v-2.55c0-1.79-1.45-3.25-3.25-3.25s-3.25,1.45-3.25,3.25v7.54c0,1.79,1.45,3.25,3.25,3.25s3.25-1.45,3.25-3.25c0-.55,.45-1,1-1s1,.45,1,1c0,2.9-2.35,5.24-5.24,5.24s-5.24-2.35-5.24-5.24Zm14.48,0c0-.55-.45-1-1-1s-1,.45-1,1c0,4-3.24,7.24-7.24,7.24s-7.24-3.24-7.24-7.24c0-.55-.45-1-1-1s-1,.45-1,1c0,4.71,3.56,8.67,8.24,9.19v1.6h-2.95c-.55,0-1,.45-1,1s.45,1,1,1h7.99c.55,0,1-.45,1-1s-.45-1-1-1h-3.05v-1.6c4.69-.52,8.24-4.47,8.24-9.19h0Z"/>
    </g>
  </g>
</svg>