<?xml version="1.0" encoding="UTF-8"?>
<svg id="Capa_1" data-name="Capa 1" xmlns="http://www.w3.org/2000/svg" viewBox="0 0 40 40">
  <defs>
    <style>
      .cls-1 {
        fill: #73d36e;
      }
    </style>
  </defs>
  <g id="Elipse_118" data-name="Elipse 118">
    <path class="cls-1" d="M20.04,40C9.01,40,.04,31.03,.04,20S9.01,0,20.04,0s20,8.97,20,20-8.97,20-20,20ZM20.04,1.64C9.91,1.64,1.67,9.88,1.67,20s8.24,18.36,18.36,18.36,18.36-8.24,18.36-18.36S30.16,1.64,20.04,1.64Z"/>
  </g>
  <g id="Trazado_1865" data-name="Trazado 1865">
    <path class="cls-1" d="M18.64,28.93c-.29-.03-.55-.17-.72-.41l-5.26-7.23c-.32-.45-.23-1.07,.22-1.4,.45-.32,1.07-.23,1.4,.22l4.49,6.18,10.15-12.49c.35-.43,.98-.49,1.41-.15,.43,.35,.49,.98,.15,1.41l-10.97,13.5c-.2,.24-.49,.38-.8,.37-.02,0-.04,0-.06,0Z"/>
  </g>
</svg>