<?xml version="1.0" encoding="UTF-8"?>
<svg id="Capa_1" data-name="Capa 1" xmlns="http://www.w3.org/2000/svg" viewBox="0 0 25.51 25.51">
  <defs>
    <style>
      .cls-1 {
        fill: #73d36e;
      }
    </style>
  </defs>
  <g id="accion_adjuntar" data-name="accion adjuntar">
    <g id="accion_adjuntar-2" data-name="accion adjuntar-2">
      <path class="cls-1" d="M7.97,1.2c.49-.35,1.03-.62,1.6-.8,1.81-.63,3.82-.23,5.25,1.06,.88,.82,1.4,1.95,1.44,3.15,0,.17,0,.33,0,.49,0,3.6,0,7.2,0,10.8,.04,.85-.25,1.69-.79,2.34-.72,.99-1.92,1.53-3.14,1.41-1.48-.19-2.67-1.32-2.93-2.79-.03-.24-.05-.49-.05-.73,0-3.08,0-6.15,.02-9.23-.05-.52,.34-.98,.85-1.02,.16-.01,.33,.01,.48,.08,.32,.13,.53,.43,.55,.77,0,.09,0,.18,0,.26,0,3.02-.02,6.03-.03,9.05-.02,.48,.13,.94,.43,1.32,.39,.51,1.1,.65,1.66,.33,.66-.32,1.08-.99,1.06-1.73,0-3.69,0-7.37,0-11.06,.02-.73-.23-1.44-.7-2-.55-.64-1.36-1-2.2-1-1.85-.16-3.48,1.2-3.64,3.05,0,.1-.01,.19-.01,.29,0,4.02-.01,8.04,0,12.06,0,.63,0,1.25,0,1.89,.17,2.44,2.16,4.36,4.61,4.44,1.39,.11,2.75-.36,3.78-1.3,.99-.87,1.54-2.13,1.5-3.44-.01-4.66-.02-9.31-.02-13.97,0-.12,0-.25,.03-.37,.07-.43,.44-.75,.88-.75,.44-.03,.85,.26,.96,.69,.02,.12,.04,.24,.03,.36,0,4.67,0,9.35,0,14.03,.03,1.56-.55,3.08-1.61,4.23-1.43,1.61-3.52,2.45-5.67,2.27-1.72-.07-3.35-.79-4.55-2.02-1.11-1.07-1.77-2.53-1.83-4.08-.02-.35-.02-.68-.02-1.02,0-4.31,0-8.62,0-12.93-.01-.86,.19-1.71,.59-2.46,.17-.29,.36-.57,.56-.84l.88-.83h0Z"/>
    </g>
  </g>
</svg>