<?xml version="1.0" encoding="UTF-8"?>
<svg id="Capa_1" data-name="Capa 1" xmlns="http://www.w3.org/2000/svg" viewBox="0 0 40 40">
  <defs>
    <style>
      .cls-1 {
        fill: #ff7171;
      }
    </style>
  </defs>
  <g id="Grupo_1314" data-name="Grupo 1314">
    <g id="Elipse_114" data-name="Elipse 114">
      <path class="cls-1" d="M20,40C8.97,40,0,31.03,0,20S8.97,0,20,0s20,8.97,20,20-8.97,20-20,20Zm0-37.98C10.09,2.02,2.02,10.09,2.02,20s8.06,17.98,17.98,17.98,17.98-8.06,17.98-17.98S29.91,2.02,20,2.02Z"/>
    </g>
    <g id="Línea_212" data-name="Línea 212">
      <path class="cls-1" d="M25.44,26.77c-.26,0-.52-.1-.72-.3l-9.96-9.96c-.4-.4-.4-1.04,0-1.43s1.04-.4,1.43,0l9.96,9.96c.4,.4,.4,1.04,0,1.43-.2,.2-.46,.3-.72,.3Z"/>
    </g>
    <g id="Trazado_1879" data-name="Trazado 1879">
      <path class="cls-1" d="M15.5,26.57c-.27,0-.53-.1-.73-.31-.39-.4-.38-1.04,.03-1.43l9.92-9.55c.4-.39,1.04-.37,1.43,.03,.39,.4,.38,1.04-.03,1.43l-9.92,9.55c-.2,.19-.45,.28-.7,.28Z"/>
    </g>
  </g>
</svg>