<?xml version="1.0" encoding="UTF-8"?>
<svg id="Capa_1" data-name="Capa 1" xmlns="http://www.w3.org/2000/svg" viewBox="0 0 25.51 25.51">
  <defs>
    <style>
      .cls-1 {
        fill: none;
      }

      .cls-2 {
        fill: #fff;
      }
    </style>
  </defs>
  <g id="Accion_descartar" data-name="Accion descartar">
    <g id="Elipse_62" data-name="Elipse 62">
      <circle class="cls-1" cx="12.76" cy="12.76" r="12.44"/>
      <path class="cls-2" d="M21.55,21.55c-4.85,4.85-12.74,4.85-17.59,0S-.89,8.81,3.96,3.96,16.7-.89,21.55,3.96s4.85,12.74,0,17.59ZM4.89,4.89C.55,9.23,.55,16.29,4.89,20.63s11.4,4.34,15.74,0,4.34-11.4,0-15.74C16.29,.55,9.23,.55,4.89,4.89Z"/>
    </g>
    <g id="Grupo_921" data-name="Grupo 921">
      <g id="Trazado_1692" data-name="Trazado 1692">
        <path class="cls-2" d="M19.27,13.49c-.18,.16-.41,.26-.67,.26l-11.69-.03c-.54,0-.98-.44-.98-.98s.44-.98,.98-.98l11.69,.03c.54,0,.98,.44,.98,.98,0,.28-.12,.54-.31,.72Z"/>
      </g>
      <g id="Trazado_1693" data-name="Trazado 1693">
        <path class="cls-2" d="M13.41,19.32c-.18,.16-.41,.26-.67,.26-.54,0-.98-.44-.98-.98l.03-11.69c0-.54,.44-.98,.98-.98,.54,0,.98,.44,.98,.98l-.03,11.69c0,.28-.12,.54-.31,.72Z"/>
      </g>
    </g>
  </g>
</svg>