<?xml version="1.0" encoding="UTF-8"?>
<svg id="Capa_1" data-name="Capa 1" xmlns="http://www.w3.org/2000/svg" viewBox="0 0 25.51 25.51">
  <defs>
    <style>
      .cls-1 {
        fill: #fff;
      }
    </style>
  </defs>
  <g id="Accion_escuchar" data-name="Accion escuchar">
    <g id="_157-volume" data-name=" 157-volume">
      <path class="cls-1" d="M19.88,16.14c-.55,0-1-.44-1-1,0-.17,.04-.33,.12-.48l.02-.04c.34-.56,.51-1.21,.51-1.86,.01-.67-.17-1.33-.52-1.9-.27-.48-.1-1.09,.38-1.36,.48-.27,1.09-.1,1.36,.38,.52,.87,.79,1.87,.78,2.88,.01,.99-.25,1.96-.75,2.82l-.02,.04c-.17,.32-.51,.53-.88,.52Zm2.35-11.24c-.41-.36-1.04-.32-1.41,.09-.33,.38-.33,.95,0,1.32,3.56,3.51,3.6,9.23,.09,12.79-.03,.03-.06,.06-.09,.09-.4,.38-.42,1.01-.04,1.41,.38,.4,1.01,.42,1.41,.04,.01-.01,.02-.02,.04-.04,4.34-4.28,4.39-11.27,.11-15.61-.03-.04-.07-.07-.11-.11h0ZM14.71,.24C13.6-.24,12.31,0,11.45,.86c-.02,.02-.04,.04-.06,.06L5.75,7.47h-1.76c-2.2,0-3.99,1.78-3.99,3.99v2.59c0,2.2,1.79,3.98,3.99,3.98h1.76l5.64,6.55s.04,.04,.06,.06c.56,.55,1.31,.86,2.09,.86,.41,0,.81-.08,1.18-.24,1.11-.46,1.84-1.55,1.83-2.75,0-.55-.45-1-1-1s-1,.45-1,1c0,.4-.24,.77-.61,.92-.36,.16-.78,.08-1.07-.19l-5.91-6.87c-.19-.22-.46-.35-.75-.35H3.99c-1.1,0-1.99-.89-1.99-1.99v-2.58c0-1.1,.89-1.99,1.99-1.99h2.21c.29,0,.57-.13,.75-.35L12.87,2.26c.41-.37,1.05-.34,1.42,.07,.17,.19,.26,.43,.26,.68v14.53c0,.55,.45,1,1,1s1-.45,1-1V3c.01-1.21-.71-2.3-1.83-2.76Z"/>
    </g>
  </g>
</svg>