<?xml version="1.0" encoding="UTF-8"?>
<svg id="Capa_1" data-name="Capa 1" xmlns="http://www.w3.org/2000/svg" viewBox="0 0 119.72 100">
  <defs>
    <style>
      .cls-1 {
        fill: #fff;
      }

      .cls-2 {
        fill: #5a5afd;
      }
    </style>
  </defs>
  <path id="Rectángulo_371" data-name="Rectángulo 371" class="cls-2" d="M19.86,0H119.86V100H19.86C8.81,100-.14,91.05-.14,80V20C-.14,8.95,8.81,0,19.86,0Z"/>
  <g id="Alerta">
    <path id="Trazado_1589" data-name="Trazado 1589" class="cls-1" d="M58.8,75.54h-18.53c-.99,0-1.79-.8-1.79-1.79s.8-1.79,1.79-1.79h18.53c.99,0,1.79,.8,1.79,1.79s-.8,1.79-1.79,1.79Z"/>
    <path id="Trazado_1590" data-name="Trazado 1590" class="cls-1" d="M79.06,75.54h-4.94c-.99,.03-1.82-.74-1.85-1.73-.03-.99,.74-1.82,1.73-1.85,.04,0,.08,0,.12,0h4.94c2.07,.08,3.81-1.52,3.89-3.59s-1.52-3.81-3.59-3.89c-.1,0-.2,0-.3,0H40.56c-2.07-.08-3.81,1.52-3.89,3.59-.08,2.07,1.52,3.81,3.59,3.89,.1,0,.2,0,.3,0,.99-.03,1.82,.74,1.85,1.73s-.74,1.82-1.73,1.85c-.04,0-.08,0-.12,0-4.04,.15-7.44-3.01-7.59-7.05-.15-4.04,3.01-7.44,7.05-7.59,.18,0,.36,0,.54,0h38.51c4.04-.15,7.44,3.01,7.59,7.05,.15,4.04-3.01,7.44-7.05,7.59-.18,0-.36,0-.54,0Z"/>
    <circle id="Elipse_53" data-name="Elipse 53" class="cls-1" cx="67.4" cy="73.75" r="1.79"/>
    <g id="KMfWwr.tif">
      <g id="Grupo_854" data-name="Grupo 854">
        <path id="Trazado_1591" data-name="Trazado 1591" class="cls-1" d="M60.36,20.45c.07,.18,.26,.14,.39,.21,.78,.33,1.29,1.09,1.29,1.94,.02,2.3,.02,4.61,0,6.91-.04,1.19-1.02,2.14-2.22,2.14-1.09-.01-2.01-.8-2.19-1.87-.06-.5-.07-1.01-.05-1.51,0-1.55,.05-3.11-.02-4.66-.06-1.4,.26-2.53,1.64-3.15h1.16Z"/>
        <path id="Trazado_1592" data-name="Trazado 1592" class="cls-1" d="M31.99,47.97c.18-.06,.15-.25,.22-.38,.32-.66,.95-1.11,1.68-1.2,.97-.11,1.96-.11,2.93,0,1.21,.19,2.04,1.32,1.86,2.53-.15,.96-.9,1.71-1.86,1.86-.92,.1-1.85,.12-2.77,.03-.86-.05-1.61-.6-1.92-1.41-.03-.07-.01-.18-.14-.18v-1.26h0Z"/>
        <path id="Trazado_1593" data-name="Trazado 1593" class="cls-1" d="M75.94,64.5H43.18l-1.84-.06v-1.74c.02-1.13,.01-2.28,0-3.4-.01-2.13-.03-4.33,.07-6.52,.18-3.66,1.59-7.15,4.01-9.91,3.05-3.66,7.42-5.97,12.17-6.42,4.75-.56,9.54,.68,13.44,3.46,3.65,2.59,6.15,6.49,6.98,10.88,.18,.98,.27,1.97,.26,2.96v10.68l-1.83,.06h-.13c-.12,0-.24,0-.39,0h.02Zm-30.81-3.58h29.36v-7.19c0-.79-.07-1.58-.21-2.35-.66-3.5-2.65-6.6-5.55-8.66-3.1-2.21-6.92-3.19-10.71-2.74-3.77,.36-7.24,2.2-9.66,5.11-1.91,2.18-3.04,4.94-3.18,7.83-.11,2.09-.08,4.25-.07,6.33v1.66h.04Z"/>
        <path id="Trazado_1594" data-name="Trazado 1594" class="cls-1" d="M47.65,34.36c0,.84-.52,1.6-1.3,1.92-.8,.43-1.79,.28-2.43-.37-1.67-1.61-3.31-3.25-4.92-4.92-.82-.92-.75-2.33,.17-3.15,.85-.76,2.14-.76,2.99,0,1.67,1.61,3.3,3.27,4.93,4.92,.39,.43,.6,1.01,.57,1.59h0Z"/>
        <path id="Trazado_1595" data-name="Trazado 1595" class="cls-1" d="M72.06,34.27c-.02-.6,.22-1.19,.66-1.6,1.56-1.57,3.12-3.14,4.7-4.7,.86-.88,2.26-.89,3.14-.03,.88,.86,.89,2.26,.03,3.14h0c-1.57,1.61-3.17,3.2-4.78,4.77-.63,.66-1.61,.83-2.42,.43-.82-.32-1.35-1.13-1.33-2.01Z"/>
        <path id="Trazado_1596" data-name="Trazado 1596" class="cls-1" d="M84.06,46.39c.49,0,.98-.01,1.47,0,1.22,0,2.2,.99,2.2,2.2,0,1.21-.98,2.2-2.2,2.2-1,.02-1.99,.02-2.99,0-1.22,0-2.2-.98-2.2-2.19s.98-2.2,2.19-2.2h0c.51-.02,1.01,0,1.52,0h0Z"/>
        <path id="Trazado_1597" data-name="Trazado 1597" class="cls-1" d="M48.31,52.48c.11-4.43,3.29-8.19,7.65-9.03,.57-.11,1.16-.16,1.74-.17,.93,0,1.72,.69,1.85,1.61,.15,.98-.49,1.9-1.46,2.09-.73,.06-1.45,.17-2.16,.33-2.25,.77-3.8,2.85-3.88,5.23,.07,1.02-.69,1.91-1.72,1.99-.07,0-.14,0-.2,0-1.04-.03-1.86-.9-1.84-1.94,0-.04,0-.07,0-.11h0Z"/>
        <circle id="Elipse_54" data-name="Elipse 54" class="cls-1" cx="49.97" cy="58.97" r="2.15"/>
      </g>
    </g>
  </g>
</svg>