<?xml version="1.0" encoding="UTF-8"?>
<svg id="Capa_1" data-name="Capa 1" xmlns="http://www.w3.org/2000/svg" viewBox="0 0 85.87 72.69">
  <defs>
    <style>
      .cls-1 {
        fill: #5d55ff;
      }
    </style>
  </defs>
  <path class="cls-1" d="M61.98,72.69H12.36c-6.81,0-12.36-5.54-12.36-12.36V23.86c0-6.81,5.54-12.36,12.36-12.36H61.98c6.81,0,12.36,5.54,12.36,12.36V60.33c0,6.81-5.54,12.36-12.36,12.36ZM12.36,14.83c-4.98,0-9.03,4.05-9.03,9.03V60.33c0,4.98,4.05,9.03,9.03,9.03H61.98c4.98,0,9.03-4.05,9.03-9.03V23.86c0-4.98-4.05-9.03-9.03-9.03H12.36Z"/>
  <path class="cls-1" d="M37.79,32.65H1.66c-.92,0-1.66-.74-1.66-1.66s.74-1.66,1.66-1.66H37.79c.92,0,1.66,.74,1.66,1.66s-.74,1.66-1.66,1.66Z"/>
  <path class="cls-1" d="M72.67,32.65h-18.66c-.92,0-1.66-.74-1.66-1.66s.74-1.66,1.66-1.66h18.66c.92,0,1.66,.74,1.66,1.66s-.74,1.66-1.66,1.66Z"/>
  <path class="cls-1" d="M78.26,20.42c-.92,0-1.66-.74-1.66-1.66,0-5.25-4.27-9.52-9.52-9.52-.92,0-1.66-.74-1.66-1.66s.74-1.66,1.66-1.66c7.08,0,12.84,5.76,12.84,12.84,0,.92-.74,1.66-1.66,1.66Z"/>
  <path class="cls-1" d="M84.18,20.42c-.92,0-1.66-.74-1.66-1.66,0-8.51-6.92-15.43-15.43-15.43-.92,0-1.66-.74-1.66-1.66s.74-1.66,1.66-1.66c10.34,0,18.76,8.41,18.76,18.76,0,.92-.74,1.66-1.66,1.66Z"/>
  <g>
    <path class="cls-1" d="M16.46,56.79v-13.74h3.17v13.74h-3.17Z"/>
    <path class="cls-1" d="M25.44,48.91v7.88h-3.17v-13.74h2.52l6.37,8.09v-8.09h3.15v13.74h-2.57l-6.29-7.88Z"/>
    <path class="cls-1" d="M36.95,56.79v-13.74h9.31v2.79h-6.13v2.94h5.07v2.61h-5.07v5.4h-3.17Z"/>
    <path class="cls-1" d="M53.77,56.88c-1.01,0-1.93-.2-2.76-.59s-1.55-.92-2.16-1.59c-.61-.66-1.07-1.41-1.39-2.24-.32-.83-.48-1.69-.48-2.58s.17-1.79,.51-2.61c.34-.83,.82-1.56,1.43-2.22,.61-.65,1.34-1.16,2.18-1.54,.84-.37,1.75-.56,2.75-.56s1.94,.2,2.78,.59c.83,.39,1.55,.93,2.15,1.6s1.06,1.42,1.38,2.25c.32,.83,.48,1.68,.48,2.55,0,.92-.17,1.79-.5,2.61-.34,.83-.81,1.56-1.43,2.22-.62,.65-1.34,1.17-2.18,1.55-.83,.38-1.75,.57-2.76,.57Zm-3.58-6.97c0,.53,.08,1.04,.24,1.54,.16,.5,.39,.94,.7,1.33s.68,.7,1.12,.93c.45,.23,.97,.35,1.58,.35s1.12-.12,1.57-.36c.45-.24,.83-.56,1.12-.97,.3-.41,.52-.85,.67-1.34s.22-.99,.22-1.51-.08-1.04-.24-1.53c-.16-.49-.39-.93-.7-1.33-.3-.39-.68-.7-1.13-.92-.45-.22-.96-.33-1.53-.33-.61,0-1.14,.12-1.59,.35-.45,.23-.83,.55-1.12,.95s-.52,.84-.68,1.33c-.16,.48-.23,.99-.23,1.52Z"/>
  </g>
</svg>