<?xml version="1.0" encoding="UTF-8"?>
<svg id="Capa_1" data-name="Capa 1" xmlns="http://www.w3.org/2000/svg" viewBox="0 0 74.3 72.38">
  <defs>
    <style>
      .cls-1 {
        fill: #5d55ff;
      }
    </style>
  </defs>
  <path class="cls-1" d="M47.24,45.88l-.67,2.89h7.67s2.98,0,2.98,0h4.14s5.28,0,5.28,0h2.71c-3.88,9.99-10.7,16.69-20.82,20.47-.5,.19-1,.38-1.51,.57l-.28,.11H27.37c-.18-.07-.36-.15-.54-.22-.29-.12-.58-.24-.87-.36,4.18-4.54,8.36-9.16,12.41-13.65l1.24-1.37c2.54-2.81,5.09-5.63,7.63-8.44m21.31-27.2c-.68,0-1.07,1.19-1.52,1.67-9.78,10.75-19.5,21.54-29.24,32.32-4.9,5.42-9.79,10.84-14.74,16.21-1.12,1.21-.92,1.77,.57,2.23,1.12,.35,2.19,.84,3.29,1.27h20.3c.73-.28,1.47-.56,2.2-.83,10.96-4.1,18.46-11.64,22.52-22.61,.95-2.58,.92-2.63-1.73-2.63-1.18,0-2.36,0-3.55,0-3.14,0-6.28,0-9.42,0-.99,0-1.98,0-2.98,0-1.5,0-3.02,0-4.58,0,.32-1.38,1.15-2.03,1.8-2.76,3.56-3.98,7.19-7.9,10.78-11.85,2.59-2.85,5.15-5.72,7.72-8.58,1.5-1.68,.19-3.19-.78-4.11-.24-.23-.45-.32-.64-.32h0Z"/>
  <path class="cls-1" d="M37.19,2.46c8.21,0,15.92,2.84,22.28,8.21-9.78,10.74-18.46,20.34-26.54,29.36-.75,.84-1.41,1.13-2.54,1.13h-.12c-1.72-.03-3.59-.05-5.87-.05-1.31,0-2.63,0-3.94,0-1.31,0-2.61,0-3.92,0h-2.46v.09c-.51,0-1.02,0-1.53,0-1.34,0-2.68-.02-4.01-.02-2.09,0-3.86,.02-5.47,.07-.78-6.11-.02-12.01,2.28-17.53C10.71,10.81,23.21,2.46,37.19,2.46m0-2.46C22.98,0,9.14,8.18,3.07,22.79,.47,29.03-.26,35.53,.71,42.21c.11,.74-.03,1.54,1.3,1.54,.04,0,.08,0,.13,0,2.13-.07,4.26-.1,6.39-.1,2.67,0,5.33,.03,8,.03,0-.03,0-.07,0-.1,2.62,0,5.24-.02,7.86-.02,1.94,0,3.89,.01,5.83,.05,.06,0,.11,0,.17,0,1.79,0,3.14-.57,4.37-1.95,8.82-9.83,17.69-19.63,26.58-29.39,1.2-1.31,1.32-2.13-.18-3.4C54.05,2.84,45.56,0,37.19,0h0Z"/>
  <path class="cls-1" d="M34.5,48.48c-5.07,5.59-10.28,11.36-15.34,17.1-.15,.17-.27,.29-.36,.37-.08-.04-.18-.11-.32-.19-6.38-4.24-10.84-9.8-13.61-16.98,1.76,0,3.52-.01,5.28-.01h3.72s3.73,0,3.73,0h.64c1.27,0,2.54,0,3.81,0,1.35,0,2.7,0,4.05,0,2.35,0,4.26,.01,6.02,.04h.15c.8,0,1.54-.1,2.23-.32M64.53,12.92c-.77,0-1.13,1.17-1.57,1.66-9.07,10.01-18.1,20.07-27.1,30.15-1.01,1.13-2.11,1.61-3.59,1.61-.04,0-.07,0-.11,0-2.02-.03-4.04-.04-6.06-.04-2.62,0-5.24,.01-7.86,.02-.21,0-.42,0-.64,0-2.48,0-4.96,0-7.45,0-1.94,0-3.89,0-5.83,.01-2.55,.01-2.84,.39-1.97,2.74,2.9,7.84,7.78,14.1,14.77,18.74,.7,.47,1.27,.7,1.79,.7,.72,0,1.34-.44,2.1-1.3,6.81-7.72,13.75-15.32,20.65-22.96,8.11-8.98,16.18-17.99,24.4-26.88,1.64-1.78,.7-2.77-.46-3.89-.42-.41-.77-.57-1.05-.57h0Z"/>
  <path class="cls-1" d="M70.85,30.1c.75,3.83,.89,7.43,.42,11.01-.86,0-1.73,0-2.59,0-.68,0-1.36,0-2.04,0-.68,0-1.35,0-2.03,0l-2.46,.02h0c-.38,0-.76,0-1.15,0-.07,0-.13,0-.2,0,2.53-2.8,5.09-5.62,7.58-8.35l1.32-1.45c.31-.35,.72-.78,1.14-1.22m.71-4.28c-.89,0-1.47,1.55-2.22,2.31-.5,.5-.98,1.02-1.45,1.54-3.59,3.95-7.18,7.9-10.76,11.87-.4,.44-1.08,.91-.8,1.58,.17,.41,.51,.5,.88,.5,.26,0,.54-.04,.78-.04,0,0,.02,0,.03,0,1,.01,2,.02,2.99,.02,1.2,0,2.4,0,3.61,0,0,0,0-.01,0-.02,1.35,0,2.71,0,4.06,0,.92,0,1.85,0,2.77,.01,.01,0,.03,0,.04,0,1.42,0,2.03-.69,2.22-2.11,.54-4.09,.31-8.15-.51-12.17-.26-1.25-.12-3.09-1.42-3.45-.08-.02-.15-.03-.22-.03h0Z"/>
</svg>