<?xml version="1.0" encoding="UTF-8"?>
<svg id="Capa_1" data-name="Capa 1" xmlns="http://www.w3.org/2000/svg" viewBox="0 0 92.96 92.96">
  <defs>
    <style>
      .cls-1 {
        fill: #98ed94;
      }

      .cls-2 {
        fill: #73d363;
      }
    </style>
  </defs>
  <g id="Mesa_de_trabajo_15" data-name="Mesa de trabajo 15">
    <g id="Vista_1-2" data-name="Vista 1-2">
      <g id="Grupo_851" data-name="Grupo 851">
        <circle id="Elipse_45" data-name="Elipse 45" class="cls-1" cx="46.48" cy="46.48" r="46.48"/>
        <g id="Grupo_850" data-name="Grupo 850">
          <path id="Trazado_1566" data-name="Trazado 1566" class="cls-2" d="M46.15,20.32c.31,.3,.46,.73,.42,1.16-.02,.75,0,1.5,0,2.25q0,.67,.7,.67h23.54c.84,0,1.1,.26,1.1,1.11V58.09c0,1.02-.23,1.25-1.27,1.25h-11.69q-.72,0-.49,.7c1.26,3.71,2.52,7.42,3.78,11.12,.26,.77,.12,1.27-.38,1.43-.53,.17-.92-.13-1.18-.9-1.33-3.92-2.67-7.83-3.98-11.75-.07-.39-.43-.67-.83-.61-2.88,.02-5.75,.02-8.63,0-.51,0-.67,.15-.67,.67,.02,3.71,0,7.42,0,11.13v.46c0,.63-.34,1.02-.84,1.01s-.82-.39-.82-1.03v-11.49q0-.74-.73-.74c-2.83,0-5.65,.02-8.48,0-.45-.06-.86,.24-.93,.69-1.3,3.91-2.64,7.8-3.97,11.7-.03,.1-.06,.19-.1,.29-.13,.46-.61,.72-1.06,.59,0,0-.02,0-.03,0-.42-.15-.64-.62-.49-1.04,0-.02,.01-.03,.02-.05,.31-.99,.65-1.97,.99-2.95,.98-2.88,1.96-5.77,2.95-8.65,.15-.44,.07-.56-.4-.56-3.98,0-7.97,0-11.95,0-.45,.05-.89-.15-1.14-.52V24.92c.23-.37,.65-.57,1.08-.53,2.12,.01,4.25,0,6.37,0h17.18c.68,0,.69,0,.69-.68,0-.75,.02-1.5,0-2.24-.03-.43,.12-.85,.42-1.15h.81Zm-.46,37.37h23.8c.37,.06,.71-.19,.77-.56,0-.06,.01-.13,0-.19V26.81q0-.76-.77-.76H22c-.77,0-.78,0-.78,.75v30.13c-.05,.37,.22,.71,.59,.76,.06,0,.12,0,.18,0h23.7Z"/>
          <path id="Trazado_1567" data-name="Trazado 1567" class="cls-2" d="M42.1,41.86c.25,.17,.48,.37,.69,.58,1.46,1.37,1.53,3.66,.16,5.12-.59,.63-1.4,1.03-2.26,1.12-1.52,.25-2.57-.65-3.42-1.8-.05-.07-.08-.15-.13-.22-.08-.11-.12-.3-.26-.28-.19,.02-.17,.23-.2,.37-.24,1.02-.8,1.93-1.6,2.61-.63,.6-1.5,.86-2.35,.72-.3-.04-.6-.1-.9-.17-2.75-.77-2.88-3.08-1.92-5.13,.04-.09,.11-.17,.16-.26s.14-.18,.07-.28c-.08-.13-.21-.05-.32-.02-.65,.21-1.34,.28-2.02,.19-1.69-.19-2.97-1.6-2.99-3.3-.28-1.59,.72-3.13,2.29-3.52,.69-.25,1.41-.35,2.14-.32,.07-.21-.09-.27-.17-.36-.22-.26-.46-.5-.66-.78-1.25-1.55-1.01-3.81,.54-5.06,1.55-1.25,3.81-1.01,5.06,.54,.14,.17,.26,.36,.37,.55,.12,.17,.16,.51,.38,.49,.26-.03,.15-.37,.21-.56,.31-1.47,1.38-2.65,2.81-3.11,1.49-.38,3.07,.18,3.98,1.42,.65,1.21,.61,2.68-.12,3.85-.04,.06-.07,.12-.1,.18-.06,.15-.29,.27-.15,.44,.11,.13,.29-.02,.43-.06,.77-.24,1.58-.27,2.37-.1,1.38,.28,2.42,1.41,2.59,2.81,.39,2.32-.84,3.41-2.72,3.99-.6,.15-1.23,.22-1.85,.21l-.1,.17v-.03Zm.35-1.83c.63,.04,1.27-.1,1.83-.39,.63-.2,1.02-.83,.9-1.48-.15-1.15-.49-1.65-1.32-1.83-.64-.14-1.3-.09-1.91,.13-.72,.28-1.54,.05-2.01-.57-.47-.62-.46-1.48,.02-2.09,.25-.34,.42-.74,.5-1.16,.18-.5,.1-1.06-.21-1.5-.8-.78-2.07-.8-2.89-.05-.46,.5-.78,1.13-.9,1.8-.1,.77-.71,1.38-1.48,1.48-.75,.09-1.48-.32-1.79-1.01-.22-.41-.52-.76-.89-1.04-.8-.6-1.36-.57-2.26,.12-.67,.46-.92,1.33-.61,2.08,.15,.44,.41,.83,.74,1.15,.71,.47,1,1.36,.71,2.16-.34,.82-1.21,1.29-2.08,1.11-.65,0-1.29,.18-1.83,.54-.3,.17-.5,.48-.53,.83-.05,.42,0,.85,.12,1.26,.17,.61,.69,1.06,1.31,1.14,.57,.08,1.16,.02,1.71-.16,.76-.26,1.59,.02,2.04,.68,.42,.59,.42,1.38-.02,1.96-.17,.27-.31,.57-.42,.87-.23,.5-.22,1.08,.01,1.58,.74,.9,2.06,1.05,2.98,.33,.49-.52,.82-1.18,.96-1.88,.09-.75,.69-1.35,1.44-1.45,.77-.12,1.52,.28,1.85,.99,.24,.46,.58,.84,1.01,1.13,.6,.48,1.48,.42,2-.15,.7-.39,1.01-1.22,.76-1.98-.21-.62-.59-1.16-1.1-1.56-.65-.49-.85-1.39-.46-2.11,.34-.68,1.08-1.05,1.83-.93h-.01Z"/>
          <path id="Trazado_1568" data-name="Trazado 1568" class="cls-2" d="M50.98,48.98c-2.45,.15-4.05-1.12-4-3.13,.05-2.08,1.12-3.43,4.38-3.11-.74-.96-.97-2.22-.62-3.38,.31-.79,.93-1.42,1.71-1.74,1.91-.89,3.08-.35,4.51,2.11,.37-.71,.88-1.33,1.51-1.83,1.48-1.01,3.51-.62,4.51,.86,.19,.28,.34,.6,.44,.93,.14,.99-.16,2-.81,2.76-.08,.11-.17,.21-.26,.31,0,.03,0,.06-.02,.09,.24,.06,.49,.08,.73,.05,1.75-.07,3.22,1.29,3.29,3.04,.02,.63-.14,1.26-.48,1.8-.78,1.07-2.1,1.6-3.4,1.37-.21-.03-.42-.07-.67-.11,1.35,2.41,1.12,4.06-.67,5.07-1.98,1.12-3.31,.58-4.8-1.98-.38,.79-.96,1.47-1.68,1.96-1.58,.92-3.61,.39-4.53-1.19-.05-.08-.09-.16-.13-.25-.38-1.1-.13-2.32,.64-3.2,.09-.12,.19-.23,.34-.41v-.02Zm11.59-4.45h-.25c-.72,.11-1.42-.29-1.7-.96-.31-.64-.13-1.41,.43-1.85,.32-.31,.55-.7,.69-1.12,.11-.23,.13-.5,.06-.75-.43-.82-1.45-1.14-2.27-.7-.06,.03-.11,.06-.17,.1-.36,.32-.64,.72-.82,1.16-.27,.87-1.2,1.35-2.07,1.08-.58-.18-1.01-.66-1.12-1.26-.08-.26-.21-.5-.38-.72-.36-.61-1.15-.81-1.75-.45-.01,0-.02,.01-.04,.02-.7,.22-1.1,.96-.89,1.67,.09,.4,.26,.78,.5,1.11,.46,.54,.5,1.32,.1,1.9-.39,.59-1.12,.86-1.79,.65-.45-.1-.92-.11-1.37-.02-.67,.07-1.16,.66-1.09,1.33,0,.01,0,.02,0,.04-.09,.66,.33,1.28,.98,1.42,.42,.14,.86,.19,1.3,.13,.64-.11,1.28,.22,1.58,.8,.34,.54,.29,1.23-.11,1.72-.13,.18-.3,.32-.43,.5-.42,.42-.58,1.03-.44,1.6,.43,.81,1.43,1.12,2.23,.69,.07-.04,.13-.08,.2-.12,.4-.4,.72-.86,.96-1.37,.39-.8,1.35-1.14,2.15-.75,.41,.2,.71,.56,.84,.99,.1,.31,.23,.61,.41,.88,.32,.61,1.07,.85,1.68,.53,.03-.02,.06-.03,.09-.05,.71-.21,1.11-.96,.9-1.67,0-.01,0-.03-.01-.04-.1-.4-.28-.77-.53-1.09-.49-.54-.55-1.33-.15-1.94,.38-.62,1.15-.88,1.83-.63,.53,.13,1.08,.13,1.61-.02,.55-.09,.94-.58,.91-1.13,.16-.76-.32-1.5-1.08-1.66-.12-.03-.25-.04-.37-.03-.2-.02-.41,0-.61,0h-.01Z"/>
          <path id="Trazado_1569" data-name="Trazado 1569" class="cls-2" d="M25.64,52c-.44,.01-.82-.33-.83-.78,0,0,0,0,0,0,.02-.44,.37-.8,.81-.83,.44,0,.81,.36,.82,.8,0,.44-.34,.8-.77,.81,0,0-.02,0-.03,0Z"/>
          <path id="Trazado_1570" data-name="Trazado 1570" class="cls-2" d="M40.72,54.37c-.01,.45-.37,.8-.82,.8-.43,.01-.8-.33-.81-.76,0-.01,0-.03,0-.04,0-.44,.35-.8,.79-.81,0,0,0,0,.01,0,.44,.02,.8,.37,.83,.81Z"/>
          <path id="Trazado_1571" data-name="Trazado 1571" class="cls-2" d="M25.63,34.57c.02,.41-.29,.76-.7,.78-.04,0-.07,0-.11,0-.44,0-.8-.36-.8-.8,0,0,0,0,0-.01,.02-.45,.38-.8,.83-.8,.44,.01,.79,.38,.78,.82,0,0,0,0,0,.01Z"/>
          <path id="Trazado_1572" data-name="Trazado 1572" class="cls-2" d="M57.35,29.81c-.02,.45-.38,.8-.83,.81-.45-.02-.8-.39-.78-.83,0,0,0,0,0,0,.01-.44,.38-.78,.81-.77,0,0,.02,0,.03,0,.42,.03,.75,.38,.77,.8Z"/>
          <path id="Trazado_1573" data-name="Trazado 1573" class="cls-2" d="M45.44,51.21c0,.43-.33,.78-.76,.79-.02,0-.04,0-.06,0-.43-.01-.77-.35-.79-.78,.01-.44,.37-.8,.81-.83,.45,0,.8,.37,.8,.81,0,0,0,0,0,0Z"/>
          <path id="Trazado_1574" data-name="Trazado 1574" class="cls-2" d="M66.86,52.79c-.03,.44-.39,.79-.83,.8-.43,0-.77-.35-.78-.78,0-.45,.34-.82,.79-.83,.44,.01,.8,.37,.82,.81Z"/>
          <path id="Trazado_1575" data-name="Trazado 1575" class="cls-2" d="M51.78,32.95c.02,.44-.33,.82-.77,.84-.44-.02-.8-.37-.82-.81,.01-.42,.34-.77,.76-.81,.44-.02,.81,.33,.83,.77,0,0,0,0,0,.01Z"/>
          <path id="Trazado_1576" data-name="Trazado 1576" class="cls-2" d="M63.59,34.56c-.43-.05-.73-.43-.69-.86,.03-.42,.38-.74,.8-.71,0,0,.02,0,.03,0,.44,.04,.76,.42,.72,.86s-.42,.76-.86,.72h0Z"/>
          <path id="Trazado_1577" data-name="Trazado 1577" class="cls-2" d="M39.01,39.52c-.01,1.82-1.46,3.31-3.28,3.37-1.88,0-3.41-1.51-3.44-3.39,0-1.85,1.49-3.36,3.34-3.36,.01,0,.02,0,.04,0,1.83-.02,3.33,1.46,3.34,3.28,0,.04,0,.07,0,.11h0Zm-3.34,1.63c.93-.01,1.68-.77,1.66-1.7-.01-.93-.77-1.68-1.7-1.66h0c-.93,.02-1.67,.76-1.69,1.69,0,.93,.75,1.68,1.67,1.68,.02,0,.04,0,.06,0Z"/>
          <path id="Trazado_1578" data-name="Trazado 1578" class="cls-2" d="M56.57,42.89c-1.69,0-3.05,1.37-3.05,3.06,0,1.69,1.37,3.05,3.06,3.05s3.05-1.37,3.05-3.06c0-1.68-1.37-3.05-3.05-3.05h0Zm0,1.66c-.75,0-1.37,.6-1.39,1.35,0,.75,.6,1.35,1.34,1.35s1.35-.6,1.35-1.34c0-.73-.58-1.33-1.31-1.36Z"/>
        </g>
      </g>
    </g>
  </g>
</svg>