<?xml version="1.0" encoding="UTF-8"?>
<svg id="Capa_1" data-name="Capa 1" xmlns="http://www.w3.org/2000/svg" viewBox="0 0 92.96 92.96">
  <defs>
    <style>
      .cls-1 {
        fill: #98ed94;
      }

      .cls-2 {
        fill: #73d363;
      }
    </style>
  </defs>
  <g id="Mesa_de_trabajo_14" data-name="Mesa de trabajo 14">
    <g id="Vista_1" data-name="Vista 1">
      <g id="Grupo_849" data-name="Grupo 849">
        <circle id="Elipse_44" data-name="Elipse 44" class="cls-1" cx="46.48" cy="46.48" r="46.48"/>
        <g id="Grupo_848" data-name="Grupo 848">
          <path id="Trazado_1563" data-name="Trazado 1563" class="cls-2" d="M28.13,68.82c-2.27,.02-4.23-1.57-4.68-3.79,0-.04-.02-.08-.03-.12v-1.49c.02-.12,.04-.18,.05-.23,1.65-7.74,7.2-14.08,14.65-16.74,.43-.08,.79-.39,.91-.81l.17-.56-.32-.29s-.4-.36-.48-.44c-3.09-2.47-4.61-6.4-4-10.3,.47-4.21,3.31-7.79,7.3-9.22,.8-.29,1.62-.51,2.46-.64l.3-.06h2.54l.3,.06c.84,.13,1.67,.35,2.47,.64,4,1.43,6.83,5.01,7.3,9.23,.61,3.91-.93,7.84-4.02,10.3-.08,.07-.15,.13-.23,.21l-1.36,1.27,1.5,.48c.84,.28,1.66,.6,2.46,.98,.4,.16,.64,.57,.58,1-.05,.36-.3,.65-.64,.75-.09,.03-.19,.05-.29,.05-.16,0-.31-.04-.45-.11-1.67-.78-3.43-1.34-5.24-1.66-1.22-.21-2.46-.31-3.7-.31-3.39,0-6.73,.84-9.72,2.45-3.25,1.72-5.99,4.26-7.94,7.38-1.27,2.02-2.18,4.24-2.68,6.57-.22,.83-.06,1.71,.44,2.41,.55,.69,1.38,1.1,2.26,1.12,.11,0,.21,.01,.32,.01h21.81c.58,0,.81,.18,.97,.45,.18,.28,.19,.63,.03,.92-.17,.3-.5,.48-.85,.47h-11.75c-1.04,0-2.08,0-3.12-.01-1.07,0-2.11-.01-3.15-.01-1.35,0-2.71,0-4.06,.04h-.11ZM45.72,25.98c-5.29-.04-9.61,4.2-9.65,9.49-.04,5.29,4.2,9.61,9.49,9.65h.35c5.28-.11,9.48-4.48,9.38-9.76-.1-5.19-4.33-9.36-9.53-9.38l-.04-.23s0,.23,0,.23Z"/>
          <path id="Trazado_1564" data-name="Trazado 1564" class="cls-2" d="M60.35,68.8c-.49,.02-.9-.36-.92-.85,0-.02,0-.04,0-.06,0-1.49,0-2.98,0-4.48,.02-.39-.11-.76-.37-1.05-.28-.26-.65-.4-1.03-.38-.75,0-1.47,0-2.18,0h-2.24c-.51,.04-.96-.34-.99-.86-.04-.51,.34-.96,.86-.99,.05,0,.1,0,.15,0h2.33c.65,0,1.31,0,1.96,.02,.74,.1,1.42-.43,1.52-1.17,.02-.12,.02-.24,0-.36-.03-1.41-.02-2.82,0-4.38,0-.44,.31-.82,.74-.9,.06,0,.11,0,.16,0,.42,0,.8,.27,.91,.68,.02,.12,.03,.25,.02,.37v4.37c-.02,.38,.11,.75,.37,1.03,.27,.26,.64,.39,1.01,.37,.74,0,1.46,0,2.18,0h2.24c.51-.05,.96,.31,1.01,.82,0,.03,0,.06,0,.09,.01,.24-.07,.48-.24,.65-.22,.19-.5,.29-.79,.28h-4.29c-.73-.09-1.4,.43-1.49,1.16-.02,.12-.01,.24,0,.37,.02,.5,.02,1,0,1.49v2.86c.03,.48-.34,.9-.82,.93-.03,0-.06,0-.09,0h-.02Z"/>
        </g>
      </g>
    </g>
  </g>
</svg>