<?xml version="1.0" encoding="UTF-8"?>
<svg id="Capa_1" data-name="Capa 1" xmlns="http://www.w3.org/2000/svg" viewBox="0 0 92.96 92.96">
  <defs>
    <style>
      .cls-1 {
        fill: #98ed94;
      }

      .cls-2 {
        fill: #45c43a;
      }
    </style>
  </defs>
  <g id="Mesa_de_trabajo_16-2" data-name="Mesa de trabajo 16-2">
    <g id="Vista_1-4" data-name="Vista 1-4">
      <g id="Grupo_853-2" data-name="Grupo 853-2">
        <circle id="Elipse_46-2" data-name="Elipse 46-2" class="cls-1" cx="46.48" cy="46.48" r="46.48"/>
        <g id="Grupo_872" data-name="Grupo 872">
          <g id="Grupo_872-2" data-name="Grupo 872-2">
            <g id="Trazado_1615" data-name="Trazado 1615">
              <path class="cls-2" d="M61.6,69.03c-.56,0-1.1-.2-1.53-.56l-13.83-11.79-13.84,11.78c-.43,.37-.98,.57-1.54,.57-1.31,0-2.37-1.07-2.37-2.37V30.51c0-1.11,.9-2.01,2.01-2.01h31.47c1.11,0,2.01,.9,2.01,2.01v36.14c0,.56-.2,1.11-.56,1.54-.41,.48-.98,.78-1.62,.83-.07,0-.13,0-.2,0Zm-15.37-14.32l14.81,12.61c.18,.15,.4,.23,.64,.2,.23-.02,.44-.13,.59-.31,.13-.16,.21-.36,.21-.56V30.51c0-.28-.23-.51-.51-.51H30.5c-.28,0-.51,.23-.51,.51v36.14c0,.48,.39,.87,.87,.87,.21,0,.41-.07,.57-.21l14.81-12.61Z"/>
            </g>
          </g>
        </g>
      </g>
    </g>
  </g>
</svg>