<?xml version="1.0" encoding="UTF-8"?>
<svg id="Capa_1" data-name="Capa 1" xmlns="http://www.w3.org/2000/svg" xmlns:xlink="http://www.w3.org/1999/xlink" viewBox="0 0 40.13 40.13">
  <defs>
    <style>
      .cls-1 {
        fill: none;
      }

      .cls-2 {
        clip-path: url(#clippath);
      }

      .cls-3 {
        fill: #fff;
      }

      .cls-4 {
        fill: #5957f4;
      }
    </style>
    <clipPath id="clippath">
      <rect class="cls-1" x="5.98" y="5.98" width="28.16" height="28.17"/>
    </clipPath>
  </defs>
  <g id="filtro_salud" data-name="filtro salud">
    <circle id="Elipse_76" data-name="Elipse 76" class="cls-3" cx="20.07" cy="20.07" r="20.07"/>
    <g id="Grupo_996" data-name="Grupo 996">
      <g class="cls-2">
        <g id="Grupo_995" data-name="Grupo 995">
          <path id="Trazado_1727" data-name="Trazado 1727" class="cls-4" d="M18.92,34.15c-.73-.08-1.45-.2-2.16-.37-3.76-.9-6.98-3.31-8.9-6.67-1-1.68-1.61-3.55-1.8-5.49-.46-3.94,.79-7.9,3.44-10.85,2.01-2.36,4.78-3.95,7.83-4.51,4.31-.91,8.8,.3,12.06,3.26,2.53,2.19,4.18,5.22,4.64,8.53,.05,.29,.07,.58,.11,.87v2.31s-.03,.09-.03,.13c-.17,2.03-.79,4-1.83,5.76-1.91,3.35-5.12,5.76-8.87,6.66-.72,.17-1.45,.29-2.19,.37h-2.31Zm1.16-1.27c7.07,0,12.8-5.75,12.8-12.82,0-7.07-5.75-12.8-12.82-12.8-7.07,0-12.8,5.74-12.8,12.82,.02,7.07,5.75,12.79,12.82,12.8"/>
          <path id="Trazado_1728" data-name="Trazado 1728" class="cls-4" d="M28.05,20.08v2.2c0,.65-.24,.89-.9,.89h-3.6q-.38,0-.38,.37v3.6c0,.68-.23,.91-.91,.91h-4.37c-.66,0-.9-.24-.9-.89,0-1.22,0-2.44,0-3.65,0-.26-.07-.35-.34-.35-1.21,.01-2.42,0-3.63,0-.69,0-.92-.23-.92-.93v-4.34c0-.68,.23-.91,.91-.91,1.22,0,2.44,0,3.65,0,.26,0,.33-.08,.33-.33-.01-1.22,0-2.44,0-3.65,0-.67,.23-.91,.91-.91h4.37c.66,0,.89,.24,.89,.9v3.63q0,.36,.37,.36h3.6c.65,0,.91,.26,.92,.92v2.17m-6.14-4.44c0-.63-.01-1.26,0-1.9,0-.27-.06-.37-.35-.36-.99,.02-1.98,.01-2.97,0-.27,0-.34,.07-.34,.34,.01,1.24,0,2.47,0,3.71,0,.61-.23,.84-.85,.84-1.23,0-2.45,0-3.68,0-.27,0-.37,.06-.36,.35,.02,.97,.02,1.94,0,2.91,0,.29,.09,.35,.36,.35,1.23-.01,2.45,0,3.68,0,.62,0,.85,.23,.85,.84,0,1.25,0,2.49,0,3.74,0,.24,.07,.32,.31,.31,.99-.01,1.98-.01,2.97,0,.26,0,.33-.08,.33-.33-.01-1.25,0-2.49,0-3.74,0-.6,.24-.83,.84-.83,1.25,0,2.49,0,3.74,0,.25,0,.34-.07,.33-.32-.01-.98-.01-1.96,0-2.94,0-.27-.08-.34-.35-.34-1.25,.01-2.49,0-3.74,0-.54,0-.77-.24-.78-.77v-1.87"/>
        </g>
      </g>
    </g>
  </g>
</svg>