<?xml version="1.0" encoding="UTF-8"?>
<svg id="Capa_1" data-name="Capa 1" xmlns="http://www.w3.org/2000/svg" viewBox="0 0 41.8 40">
  <defs>
    <style>
      .cls-1 {
        fill: #fff;
      }
    </style>
  </defs>
  <g id="contacto">
    <g id="Grupo_66" data-name="Grupo 66">
      <path id="Trazado_87" data-name="Trazado 87" class="cls-1" d="M1.91,13.84c-.94,0-1.71-.76-1.71-1.71s.76-1.71,1.71-1.71H11.99c.94,0,1.71,.76,1.71,1.71s-.76,1.71-1.71,1.71H1.91Z"/>
      <path id="Trazado_88" data-name="Trazado 88" class="cls-1" d="M1.91,19.71c-.94,0-1.71-.76-1.71-1.71s.76-1.71,1.71-1.71H11.99c.94,0,1.71,.76,1.71,1.71s-.76,1.71-1.71,1.71H1.91Z"/>
      <path id="Trazado_89" data-name="Trazado 89" class="cls-1" d="M1.91,25.57c-.94,0-1.71-.76-1.71-1.71s.76-1.71,1.71-1.71H11.99c.94,0,1.71,.76,1.71,1.71s-.76,1.71-1.71,1.71H1.91Z"/>
      <path id="Trazado_90" data-name="Trazado 90" class="cls-1" d="M13.75,39.97c-5.06,0-9.17-4.11-9.17-9.17V9.31C4.58,4.24,8.68,.14,13.75,.13h18.64c5.06,0,9.17,4.11,9.17,9.17v.66c0,.87-.7,1.57-1.57,1.57s-1.57-.7-1.57-1.57h0v-.67c0-3.33-2.71-6.03-6.04-6.04H13.75c-3.33,0-6.03,2.71-6.04,6.04V30.78c0,3.33,2.71,6.03,6.04,6.04h14.08c.87,0,1.57,.7,1.57,1.57,0,.87-.7,1.57-1.57,1.57H13.75Z"/>
    </g>
    <g id="Grupo_67" data-name="Grupo 67">
      <path id="Trazado_91" data-name="Trazado 91" class="cls-1" d="M39.99,36.29c-.87,0-1.58-.71-1.58-1.58v-4.05c0-3.75-3.04-6.79-6.79-6.79-3.75,0-6.79,3.04-6.79,6.79v4.05c0,.87-.71,1.58-1.58,1.58-.87,0-1.58-.71-1.58-1.58v-4.05c0-5.5,4.46-9.96,9.96-9.97,5.5,0,9.96,4.46,9.97,9.96h0v4.06c0,.87-.71,1.58-1.58,1.58h-.03Z"/>
      <path id="Trazado_92" data-name="Trazado 92" class="cls-1" d="M31.61,23.61c-4.17,0-7.54-3.38-7.54-7.54s3.38-7.54,7.54-7.54,7.54,3.38,7.54,7.54h0c0,4.16-3.38,7.53-7.54,7.54Zm0-11.92c-2.42,0-4.38,1.96-4.38,4.38s1.96,4.38,4.38,4.38,4.38-1.96,4.38-4.38-1.96-4.38-4.38-4.38t0,0Z"/>
    </g>
    <path id="Trazado_93" data-name="Trazado 93" class="cls-1" d="M27.79,40c-.87,0-1.57-.7-1.57-1.57,0-.87,.7-1.57,1.57-1.57h8.78c1.03,0,1.87-.84,1.87-1.87v-4.01c0-.87,.7-1.57,1.57-1.57,.86,0,1.56,.7,1.57,1.57v4.01c0,2.76-2.24,4.99-4.99,4.99h-8.79Z"/>
  </g>
</svg>