<?xml version="1.0" encoding="UTF-8"?>
<svg id="Capa_1" data-name="Capa 1" xmlns="http://www.w3.org/2000/svg" viewBox="0 0 41.8 40">
  <defs>
    <style>
      .cls-1 {
        fill: #fff;
      }
    </style>
  </defs>
  <g id="formacion">
    <path id="Trazado_94" data-name="Trazado 94" class="cls-1" d="M41.79,4.91v15.92c-.02,.08-.06,.14-.08,.22-.56,1.71-2.14,2.88-3.94,2.91h-5.4c-.19-.02-.37,.12-.39,.32,0,.07,0,.13,.03,.19,.9,2.46,1.81,4.93,2.71,7.39,.6,1.62,1.2,3.24,1.78,4.86,.23,.65-.12,1.37-.77,1.6-.6,.21-1.26-.06-1.54-.63-.08-.15-.14-.3-.2-.45-.76-2.08-1.53-4.16-2.29-6.24-.82-2.21-1.63-4.41-2.43-6.63-.07-.29-.34-.47-.63-.43-.33,.01-.39,.24-.47,.46-1.3,3.57-2.6,7.15-3.9,10.73-.27,.87-.6,1.72-.97,2.55-.27,.6-.98,.86-1.58,.59,0,0,0,0-.01,0-.61-.25-.92-.93-.72-1.56,.07-.23,.15-.46,.24-.69,1.41-3.87,2.82-7.74,4.22-11.61,.1-.26,.23-.52-.34-.47-1.15,.06-2.31,.06-3.46,0-.19-.02-.37,.07-.47,.23-1.04,1.56-3.14,2.01-4.72,1-.67-.4-1.37-.76-2.08-1.08-1.38-.57-1.39-.88-1.39-.08v12.82c0,.86-.69,1.55-1.55,1.56H4.14c-.86,0-1.55-.69-1.56-1.55,0,0,0,0,0,0v-6.08c0-.22,.01-.43-.24-.55-1.2-.52-2.07-1.58-2.34-2.86v-5.71c.04-.15,.09-.31,.12-.47,.37-1.89,1.43-3.58,2.97-4.73,.22-.18,.61-.25,.64-.52,.03-.3-.33-.46-.51-.69-2.02-2.52-1.61-6.2,.91-8.22,2.52-2.02,6.2-1.61,8.22,.91,1.7,2.13,1.71,5.15,.02,7.29-.23,.31-.2,.42,.14,.57,.9,.42,1.79,.88,2.68,1.32,.14,.1,.34,.07,.44-.07,.05-.07,.07-.15,.05-.24v-4.9c.02-2.17-.08-4.35,.06-6.53,.13-1.98,1.75-3.54,3.74-3.58,6.21-.02,12.41,0,18.62,0,.81,.02,1.59,.29,2.23,.79,.74,.59,1.26,1.41,1.48,2.33v.03Zm-13.03-.62h-8.89c-.91,0-1.65,.74-1.65,1.65v11.34c-.05,.84,.45,1.62,1.22,1.94,.01,0,.03,0,.03,.02,.23,.15,.36,.07,.47-.17,.21-.44,.43-.88,.65-1.31,.56-1.14,1.12-2.26,1.7-3.39,.26-.65,.99-.97,1.65-.72,.65,.26,.97,.99,.72,1.65-.03,.06-.06,.13-.09,.19-.89,1.82-1.81,3.63-2.71,5.44q-.25,.51,.3,.51h15.39c.96,0,1.74-.77,1.74-1.73V5.96c.07-.57-.19-1.13-.66-1.44-.32-.17-.69-.25-1.06-.23h-8.8ZM10.42,28.46v-6.36c0-.28,0-.57,.03-.85,.07-.68,.69-1.18,1.37-1.11,.14,.01,.28,.05,.4,.11,.15,.06,.3,.13,.44,.21l5.03,2.51c.21,.13,.45,.2,.69,.2,.35-.01,.65-.25,.74-.6,.11-.33-.05-.68-.36-.82-.12-.07-.24-.13-.36-.19-2.21-1.1-4.43-2.15-6.6-3.31-1.53-.79-3.29-1.05-4.99-.74-2.29,.47-4.03,2.35-4.3,4.68-.12,1.48-.06,2.96-.04,4.43,.03,.73,.61,1.33,1.35,1.36,.69,0,1.25,.56,1.27,1.25,.02,.24,.03,.49,.03,.73v5.35c0,.3,.24,.54,.54,.54h4.21c.52,0,.54-.03,.54-.56v-6.84ZM7.96,8.27c-1.8-.12-3.36,1.23-3.48,3.03,0,.13-.01,.26,0,.39,.09,1.65,1.37,2.98,3.01,3.14,1.8,.17,3.39-1.16,3.56-2.96,.02-.18,.02-.37,0-.55-.13-1.65-1.45-2.95-3.1-3.06h.01Z"/>
    <path id="Trazado_95" data-name="Trazado 95" class="cls-1" d="M28.75,7h6.44c.69-.06,1.31,.45,1.37,1.14,.02,.2-.01,.39-.08,.58-.14,.41-.5,.71-.93,.77-.26,.04-.51,.06-.77,.06h-12.11c-.22,0-.44,0-.65-.04-.69-.09-1.18-.72-1.09-1.41,.08-.61,.58-1.07,1.2-1.1,.35-.02,.71,0,1.06,0h5.56Z"/>
    <path id="Trazado_96" data-name="Trazado 96" class="cls-1" d="M32.07,11.58c1.05,0,2.1-.02,3.14,0,.7-.05,1.31,.48,1.36,1.18,.02,.22-.03,.44-.12,.64-.21,.46-.68,.75-1.19,.73-2.15,.01-4.3,.02-6.45,0-.7,.03-1.3-.51-1.34-1.21-.03-.7,.51-1.3,1.21-1.34,.05,0,.1,0,.15,0,1.07-.02,2.15,0,3.22,0h.02Z"/>
    <path id="Trazado_97" data-name="Trazado 97" class="cls-1" d="M32.01,18.73c-1.07,0-2.15,.02-3.22,0-.7,.01-1.27-.54-1.28-1.24,0-.16,.02-.31,.08-.46,.13-.42,.49-.72,.92-.79,.24-.04,.48-.07,.73-.07h5.64c.2,0,.41,.01,.61,.04,.67,.07,1.16,.65,1.12,1.32-.04,.67-.6,1.2-1.28,1.19-1.1,.02-2.21,0-3.31,0Z"/>
  </g>
</svg>