<?xml version="1.0" encoding="UTF-8"?>
<svg id="Capa_1" data-name="Capa 1" xmlns="http://www.w3.org/2000/svg" viewBox="0 0 43.75 42.98">
  <defs>
    <style>
      .cls-1 {
        fill: #fff;
      }
    </style>
  </defs>
  <g id="Grupo_1300" data-name="Grupo 1300">
    <g id="Grupo_1089" data-name="Grupo 1089">
      <g id="Rectángulo_501" data-name="Rectángulo 501">
        <path class="cls-1" d="M30.4,41.73H13.74c-6.75,0-12.24-5.49-12.24-12.24V13.68C1.5,6.93,6.99,1.44,13.74,1.44H30.4c6.75,0,12.24,5.49,12.24,12.24v15.81c0,6.75-5.49,12.24-12.24,12.24ZM13.74,3.44C8.09,3.44,3.5,8.03,3.5,13.68v15.81c0,5.65,4.59,10.24,10.24,10.24H30.4c5.65,0,10.24-4.59,10.24-10.24V13.68c0-5.65-4.59-10.24-10.24-10.24H13.74Z"/>
      </g>
      <g id="Elipse_84" data-name="Elipse 84">
        <circle class="cls-1" cx="12.81" cy="13.19" r="2.68"/>
      </g>
      <g id="Elipse_85" data-name="Elipse 85">
        <circle class="cls-1" cx="12.81" cy="21.39" r="2.68"/>
      </g>
      <g id="Elipse_86" data-name="Elipse 86">
        <circle class="cls-1" cx="12.81" cy="29.91" r="2.68"/>
      </g>
      <g id="Trazado_1759" data-name="Trazado 1759">
        <path class="cls-1" d="M33.66,12.51h-14.73c-.55,0-1-.45-1-1s.45-1,1-1h14.73c.55,0,1,.45,1,1s-.45,1-1,1Z"/>
      </g>
      <g id="Trazado_1762" data-name="Trazado 1762">
        <path class="cls-1" d="M33.66,20.69h-14.73c-.55,0-1-.45-1-1s.45-1,1-1h14.73c.55,0,1,.45,1,1s-.45,1-1,1Z"/>
      </g>
      <g id="Trazado_1764" data-name="Trazado 1764">
        <path class="cls-1" d="M33.66,28.87h-14.73c-.55,0-1-.45-1-1s.45-1,1-1h14.73c.55,0,1,.45,1,1s-.45,1-1,1Z"/>
      </g>
      <g id="Trazado_1760" data-name="Trazado 1760">
        <path class="cls-1" d="M29.9,15.81h-10.69c-.55,0-1-.45-1-1s.45-1,1-1h10.69c.55,0,1,.45,1,1s-.45,1-1,1Z"/>
      </g>
      <g id="Trazado_1761" data-name="Trazado 1761">
        <path class="cls-1" d="M29.9,23.98h-10.69c-.55,0-1-.45-1-1s.45-1,1-1h10.69c.55,0,1,.45,1,1s-.45,1-1,1Z"/>
      </g>
      <g id="Trazado_1763" data-name="Trazado 1763">
        <path class="cls-1" d="M29.9,32.16h-10.69c-.55,0-1-.45-1-1s.45-1,1-1h10.69c.55,0,1,.45,1,1s-.45,1-1,1Z"/>
      </g>
    </g>
  </g>
</svg>