<?xml version="1.0" encoding="UTF-8"?>
<svg id="Capa_1" data-name="Capa 1" xmlns="http://www.w3.org/2000/svg" xmlns:xlink="http://www.w3.org/1999/xlink" viewBox="0 0 68.1 69.63">
  <defs>
    <style>
      .cls-1 {
        fill: none;
      }

      .cls-2 {
        clip-path: url(#clippath);
      }

      .cls-3 {
        fill: #73d36e;
      }
    </style>
    <clipPath id="clippath">
      <rect class="cls-1" width="68.1" height="69.63"/>
    </clipPath>
  </defs>
  <g id="Grupo_1276" data-name="Grupo 1276">
    <g class="cls-2">
      <g id="Grupo_1275" data-name="Grupo 1275">
        <path id="Trazado_1851" data-name="Trazado 1851" class="cls-3" d="M10.81,69.63c-1.31-.36-2.34-1.36-2.75-2.65-.07-.26-.1-.53-.1-.8-.01-.63,.49-1.15,1.12-1.16,0,0,0,0,.01,0,.63-.13,1.25,.24,1.43,.86,.48,1.38,.64,1.48,2.26,1.48H63.2c1.87,0,2.27-.36,2.27-2.05V16.48q0-1.09-1.24-1.09h-9.93c-2.49,0-3.5-.93-3.51-3.16V3.28q0-1-1.08-1H12.72c-1.73,0-2.08,.31-2.08,1.86v30.32c0,.42-.02,.84-.1,1.25-.12,.63-.71,1.06-1.34,.97-.64,.02-1.18-.46-1.24-1.09q-.18-1.24-1.57-1.24c-.47,0-.94-.02-1.41,.02-1.28,0-2.32,1.04-2.32,2.33s1.04,2.32,2.33,2.32c.38,.03,.77,.02,1.16,.02H45.87c2.4,0,3.99,1.05,4.45,2.92,.06,.29,.09,.58,.09,.88,0,5.37,0,10.75,0,16.12,0,2.35-1.67,3.81-4.31,3.81H5.56c-3.34,0-5.56-1.98-5.56-4.95v-20.93c0-2.9,2.26-4.92,5.5-4.96,.47,0,.94-.03,1.41,0,.77,.07,1.16-.16,1.04-.9-.02-.2-.02-.39,0-.59,0-10.75,.03-15.58-.02-26.33-.14-1.89,1.07-3.61,2.89-4.12H53.45c.83,.3,1.58,.77,2.22,1.38,3.58,3.22,7.15,6.44,10.77,9.62,1.08,.86,1.69,2.17,1.65,3.54-.03,19.03-.04,31.95,0,50.98,.14,1.89-1.07,3.61-2.89,4.11H10.81Zm14.98-9.18h19.85c1.63,0,2.04-.37,2.04-1.83v-15.31c0-1.6-.28-1.85-2.05-1.85H5.77c-.77,.02-1.54-.09-2.28-.3-.89-.27-.89-.27-.89,.55v13.83c0,.72-.01,1.43,0,2.14,.05,1.72,.94,2.58,2.85,2.74,.36,.03,.72,.02,1.07,.02H25.8M53.54,3.11c-.02,.07-.03,.15-.03,.23,0,2.98,0,5.96-.01,8.94,0,.57,.25,.71,.83,.71,3.28-.02,6.56,0,9.84-.01,.15,0,.33,.05,.39,0L53.54,3.11"/>
        <path id="Trazado_1852" data-name="Trazado 1852" class="cls-3" d="M31.46,14.95h14.06c2.07,0,3.12,.92,3.12,2.75,0,4.88,0,9.76,0,14.64,0,1.85-1.04,2.8-3.09,2.8-9.43,0-18.86,0-28.29,0-2.06,0-3.13-.96-3.13-2.77,0-4.88,0-9.76,0-14.64,0-1.85,1.04-2.78,3.1-2.78h14.22m-10.67,5.92c1.05,0,2.1-.02,3.14,0,.62,.02,.83-.2,.81-.74-.03-.69-.03-1.38,0-2.07,.02-.5-.19-.71-.77-.71-2.12,.02-4.24,.02-6.37,0-.58,0-.79,.21-.77,.71,.02,.71,.02,1.43,0,2.14-.01,.47,.19,.67,.73,.66,1.07-.02,2.15,0,3.22,0m10.54,0c1.1,0,2.2-.01,3.31,0,.49,0,.71-.16,.7-.6-.02-.76-.01-1.53,0-2.29,0-.45-.23-.61-.7-.61-2.15,0-4.3,0-6.45,0-.52,0-.75,.18-.74,.65,.02,.71,.03,1.43,0,2.14-.03,.56,.24,.73,.83,.71,1.02-.03,2.04,0,3.06,0m10.6,0c1.1,0,2.21,0,3.31,0,.42,0,.7-.11,.7-.54,0-.81,0-1.63,0-2.44,0-.38-.23-.53-.63-.53h-6.61c-.45,0-.65,.18-.64,.58,.01,.74,.03,1.48,0,2.22-.03,.57,.25,.72,.84,.71,1.02-.03,2.04,0,3.06,0m-21.21,5.92c1.1,0,2.2,0,3.31,0,.42,0,.69-.1,.68-.54-.01-.81,0-1.63,0-2.44,0-.38-.22-.52-.62-.52h-6.61c-.45,0-.65,.18-.65,.58,0,.74,.03,1.48,0,2.22-.03,.57,.26,.72,.85,.71,1.02-.03,2.04,0,3.06,0m10.61,0c1.07,0,2.15-.02,3.22,0,.58,.01,.79-.2,.77-.7-.03-.71-.02-1.43,0-2.14,.01-.46-.19-.67-.72-.67-2.15,.01-4.3,.01-6.45,0-.54,0-.74,.2-.72,.67,.02,.71,.03,1.43,0,2.14-.02,.5,.18,.71,.77,.7,1.05-.03,2.09,0,3.14,0m10.62,0c1.07,0,2.15-.01,3.22,0,.52,0,.76-.16,.75-.64-.02-.74-.02-1.48,0-2.22,.01-.48-.24-.65-.75-.65-2.15,.01-4.3,.01-6.45,0-.48,0-.71,.17-.69,.61,.02,.74,.03,1.48,0,2.22-.02,.53,.23,.69,.79,.68,1.05-.02,2.09,0,3.14,0m-21.26,5.93c1.1,0,2.2,0,3.31,0,.48,0,.71-.15,.7-.6-.02-.76-.02-1.53,0-2.29,.01-.45-.21-.61-.7-.61-2.15,0-4.3,0-6.45,0-.52,0-.76,.16-.75,.64,.02,.74,.02,1.48,0,2.22-.01,.48,.22,.65,.75,.65,1.05-.02,2.09,0,3.14,0m10.6,0c1.1,0,2.2,0,3.31,0,.49,0,.71-.17,.7-.61-.02-.76-.02-1.53,0-2.29,0-.45-.23-.61-.71-.6-2.15,0-4.3,0-6.45,0-.53,0-.75,.17-.74,.65,.02,.71,.03,1.43,0,2.14-.03,.56,.24,.73,.83,.72,1.02-.03,2.04,0,3.06,0m10.66,0c1.05,0,2.1-.02,3.14,0,.62,.02,.84-.21,.82-.74-.03-.69-.03-1.38,0-2.07,.02-.5-.21-.71-.78-.7-2.12,.02-4.24,.02-6.37,0-.58,0-.78,.21-.76,.71,.03,.71,.03,1.43,0,2.14-.02,.47,.19,.67,.72,.66,1.07-.02,2.15,0,3.22,0"/>
        <path id="Trazado_1853" data-name="Trazado 1853" class="cls-3" d="M36.26,44.93c1.31-.02,2.61,.35,3.7,1.08,.57,.24,.83,.9,.59,1.47-.04,.09-.09,.18-.16,.26-.47,.57-1.3,.67-1.9,.24-.82-.55-1.82-.78-2.8-.63-.52,.11-.93,.32-.99,.85s.4,.65,.81,.8c.89,.33,1.8,.63,2.68,.96,2.01,.76,3.05,2.21,2.76,3.85-.51,1.75-2.1,2.96-3.92,3.01-1.81,.18-3.61-.36-5.01-1.52-.7-.57-.79-1.31-.27-1.83,.56-.54,1.46-.53,2,.03,.01,.01,.02,.02,.03,.03,.85,.7,1.95,1.02,3.04,.88,.67-.07,1.25-.31,1.42-.95,.18-.67-.36-.99-.94-1.22-.93-.37-1.89-.68-2.83-1.04-1.83-.7-2.73-1.94-2.46-3.35,.42-1.73,1.97-2.93,3.75-2.92,.16,0,.33,0,.5,0"/>
        <path id="Trazado_1854" data-name="Trazado 1854" class="cls-3" d="M19.45,46.08c-.06,.39-.23,.75-.5,1.03-.76,.97-1.5,1.95-2.29,2.9-.29,.25-.32,.69-.07,.99,.02,.02,.04,.04,.06,.06,1.01,1.24,1.98,2.49,2.96,3.74,.46,.42,.49,1.13,.07,1.59-.01,.01-.02,.02-.03,.03-.53,.55-1.41,.57-1.96,.03-.06-.05-.11-.11-.16-.18-.79-.95-1.53-1.93-2.29-2.9q-.62-.78-1.21-.03c-.73,.93-1.45,1.86-2.2,2.78-.41,.68-1.29,.91-1.97,.51-.69-.42-.77-1.12-.19-1.88,.92-1.2,1.85-2.39,2.82-3.56,.36-.29,.42-.82,.14-1.18-.03-.04-.07-.08-.11-.11-.83-.95-1.58-1.96-2.34-2.96-.57-.74-.49-1.39,.19-1.82,.68-.4,1.56-.2,1.99,.46,.6,.74,1.21,1.47,1.76,2.24,.41,.58,.67,.49,1.04-.03,.59-.8,1.22-1.58,1.86-2.35,.38-.49,1.04-.67,1.61-.44,.47,.14,.81,.57,.83,1.07"/>
        <path id="Trazado_1855" data-name="Trazado 1855" class="cls-3" d="M25.42,50.02c0,1.23,.02,2.46,0,3.69-.01,.55,.23,.75,.83,.73,.58-.03,1.16,0,1.73,.06,.66,.02,1.18,.56,1.17,1.22-.07,.66-.65,1.15-1.31,1.11-1.24,.03-2.48,.04-3.72,0-.93-.03-1.38-.53-1.39-1.51-.02-1.65,0-3.3,0-4.95,0-1.33,0-2.66,0-3.99-.06-.74,.49-1.39,1.23-1.46,.74-.06,1.39,.49,1.46,1.23,0,.03,0,.06,0,.1,.03,1.26,0,2.51,0,3.77h0Z"/>
      </g>
    </g>
  </g>
</svg>