<?xml version="1.0" encoding="UTF-8"?>
<svg id="Capa_1" data-name="Capa 1" xmlns="http://www.w3.org/2000/svg" viewBox="0 0 41.8 40">
  <defs>
    <style>
      .cls-1 {
        fill: #fff;
      }
    </style>
  </defs>
  <g id="atencion">
    <path id="Trazado_84" data-name="Trazado 84" class="cls-1" d="M2.92,17.9c.98,.1,1.72,.93,1.7,1.92v.04c-.05,2.55,.52,5.07,1.67,7.34,.28,.53,.36,1.14,.22,1.72-.38,1.86-.76,3.72-1.12,5.58-.16,.84,.22,1.23,1.05,1.07,1.85-.37,3.69-.72,5.53-1.12,.61-.14,1.24-.05,1.8,.24,3.09,1.54,6.6,2.03,9.99,1.4,8.84-1.61,14.71-10.09,13.09-18.94-1.42-7.8-8.25-13.44-16.18-13.36-.73,.05-1.61,.1-2.5,.24-5.34,.87-9.89,4.36-12.12,9.29-.41,.93-1.5,1.35-2.43,.94h0c-.94-.41-1.36-1.5-.95-2.44,0,0,0-.02,.01-.03C5.59,5.57,11.43,1.24,18.23,.27c4.98-.74,10.05,.5,14.12,3.46,4.36,3.01,7.33,7.65,8.22,12.87,.22,1.14,.33,2.31,.31,3.47,0,5.07-1.94,9.94-5.42,13.62-5.77,6.23-14.86,8.11-22.62,4.66-.27-.13-.57-.16-.86-.1-1.83,.35-3.64,.82-5.49,1.05-2.4,.23-4.54-1.5-4.83-3.89-.02-1.03,.11-2.06,.4-3.05,.21-1.15,.46-2.31,.69-3.45,.05-.28,0-.57-.12-.82-1.17-2.59-1.75-5.4-1.7-8.24v-.17c.03-1,.86-1.79,1.86-1.77,.04,0,.09,0,.13,0h0v-.02Z"/>
    <g id="Grupo_65" data-name="Grupo 65">
      <path id="Trazado_85" data-name="Trazado 85" class="cls-1" d="M29.09,26.65c-.7-.81-1.92-.89-2.73-.2h0c-1.23,1.07-3.09,.93-4.15-.3-.45-.51-.7-1.17-.72-1.85v-7.64c0-1.07-.86-1.93-1.93-1.94-1.07,0-1.93,.86-1.94,1.93h0v7.64c.02,3.73,3.06,6.74,6.79,6.73,1.64,0,3.23-.59,4.48-1.66h0c.81-.7,.89-1.92,.2-2.73Z"/>
      <path id="Trazado_86" data-name="Trazado 86" class="cls-1" d="M19.53,13.7c1.28,0,2.32-1.04,2.32-2.32s-1.04-2.32-2.32-2.32c-1.28,0-2.32,1.04-2.32,2.32,0,1.28,1.04,2.32,2.32,2.32Z"/>
    </g>
  </g>
</svg>