<?xml version="1.0" encoding="UTF-8"?>
<svg id="Capa_1" data-name="Capa 1" xmlns="http://www.w3.org/2000/svg" viewBox="0 0 41.8 40">
  <defs>
    <style>
      .cls-1 {
        fill: #fff;
        stroke: #fff;
        stroke-width: .5px;
      }
    </style>
  </defs>
  <g id="Sustancias_Quimicas" data-name="Sustancias Quimicas">
    <path id="Trazado_1523" data-name="Trazado 1523" class="cls-1" d="M22.4,2.13c.92,0,1.66,.75,1.67,1.67V13.2c6.74,1.72,10.81,8.58,9.08,15.32-1.43,5.59-6.47,9.49-12.23,9.48h-.49c-6.96-.28-12.37-6.14-12.1-13.1,.21-5.37,3.81-10.02,8.96-11.57V3.79c0-.92,.75-1.67,1.67-1.67h3.46M22.41,.06h-3.46c-2.06,0-3.72,1.67-3.73,3.73V11.88c-7.47,3.14-10.97,11.74-7.83,19.2,2.21,5.25,7.25,8.74,12.94,8.97,.2,0,.38,.01,.58,.01,8.09,0,14.65-6.57,14.65-14.66,0-6.08-3.76-11.53-9.44-13.69V3.79c0-2.06-1.67-3.72-3.73-3.73h.02Z"/>
    <path id="Trazado_1524" data-name="Trazado 1524" class="cls-1" d="M29.2,25.35c0,.82-.68,1.47-1.49,1.46-.82,0-1.47-.68-1.46-1.49,0-.81,.67-1.46,1.48-1.46,.82,0,1.47,.68,1.47,1.49Z"/>
    <path id="Trazado_1525" data-name="Trazado 1525" class="cls-1" d="M28.04,20.89c0,.82-.68,1.47-1.49,1.46-.82,0-1.47-.68-1.46-1.49,0-.81,.67-1.46,1.48-1.46,.82,0,1.47,.68,1.47,1.49Z"/>
    <path id="Trazado_1526" data-name="Trazado 1526" class="cls-1" d="M15.43,33.01h-6.66c-.57,0-1.03-.46-1.03-1.03s.46-1.03,1.03-1.03h6.66c.57,0,1.03,.46,1.03,1.03s-.46,1.03-1.03,1.03Z"/>
    <path id="Trazado_1527" data-name="Trazado 1527" class="cls-1" d="M15.43,27.04h-6.66c-.57,0-1.03-.46-1.03-1.03s.46-1.03,1.03-1.03h6.66c.57,0,1.03,.46,1.03,1.03s-.46,1.03-1.03,1.03Z"/>
  </g>
</svg>