<?xml version="1.0" encoding="UTF-8"?>
<svg id="Capa_1" data-name="Capa 1" xmlns="http://www.w3.org/2000/svg" xmlns:xlink="http://www.w3.org/1999/xlink" viewBox="0 0 87.71 69.63">
  <defs>
    <style>
      .cls-1 {
        fill: none;
      }

      .cls-2 {
        clip-path: url(#clippath);
      }

      .cls-3 {
        fill: #73d36e;
      }
    </style>
    <clipPath id="clippath">
      <rect class="cls-1" width="87.71" height="69.63"/>
    </clipPath>
  </defs>
  <g id="Grupo_1278" data-name="Grupo 1278">
    <g class="cls-2">
      <g id="Grupo_1277" data-name="Grupo 1277">
        <path id="Trazado_1856" data-name="Trazado 1856" class="cls-3" d="M5.7,60.78c-.5,0-.99-.07-1.47-.22-2.15-.62-3.77-2.38-4.23-4.57V4.72c.17-.61,.4-1.2,.69-1.75C1.56,1.45,3.03,.38,4.74,0h63.46c.11,.04,.23,.08,.34,.12,2.65,.72,4.47,3.14,4.43,5.89,.04,3.19,.03,6.44,.02,9.57,0,1.23,0,2.46,0,3.69,.02,.36-.06,.72-.21,1.05-.27,.49-.78,.8-1.34,.81-.1,0-.2-.01-.3-.03-.73-.16-1.24-.83-1.2-1.58,.02-.37-.05-.75-.22-1.08-.29-.45-.82-.71-1.36-.66-3.11,.01-6.33,.02-9.86,.02-2.97,0-6.21,0-9.89-.01h0c-.78-.1-1.5,.46-1.6,1.24-.02,.12-.02,.24,0,.36,.02,3.29,.02,6,0,8.54-.04,.45,.11,.9,.41,1.24,.34,.3,.79,.46,1.24,.42h.04c1.19-.01,2.5-.01,4.11-.01h6.41c.52,0,.94,0,1.33,.02,.78,.01,1.43,.62,1.48,1.4,.06,.79-.51,1.48-1.29,1.58-.32,.05-.64,.07-.97,.07h-11.05c-1.3,0-1.7,.4-1.7,1.69,0,.99,0,1.98,0,2.97,0,2.7-.02,5.49,.03,8.23,.02,.52-.16,1.02-.51,1.4-.37,.35-.86,.53-1.36,.5h-.03c-3.77-.03-12.03-.04-18.81-.04h-3.24v10.39h14.28c.48-.02,.96,.14,1.32,.47,.26,.28,.41,.65,.39,1.03,0,.82-.67,1.49-1.49,1.49-.06,0-.12,0-.18-.01H5.7Zm-1.12-13.36c-.46-.04-.92,.12-1.27,.43-.3,.34-.44,.79-.4,1.24,.03,1.18,.02,2.38,.02,3.54v1.59c0,2.41,1.17,3.58,3.57,3.58h13.99v-10.38H11.17c-2.74,0-5.04,0-6.57,0h-.01Zm0-14.77c-.46-.03-.91,.12-1.26,.43-.3,.34-.45,.79-.41,1.25,.03,2.76,.03,5.6,0,8.46-.04,.46,.11,.91,.41,1.26,.33,.3,.77,.45,1.22,.42h.03c1.29-.01,5.69-.02,13.06-.02h2.85v-11.79h-.79c-7.03,0-12.54,0-15.11-.01h0Zm32.96,11.8c1.88,0,3.33,0,4.69,.01h.03c.46,.03,.91-.12,1.25-.43,.3-.34,.45-.78,.41-1.24-.03-2.69-.03-5.53,0-8.46,.11-.82-.46-1.58-1.28-1.69-.13-.02-.25-.02-.38,0-2.96,0-10.01,.01-18.4,.01h-.79v11.79h14.46M4.58,17.79c-.46-.03-.91,.12-1.26,.42-.3,.34-.45,.79-.41,1.24,.03,2.75,.03,5.6,0,8.46-.04,.46,.11,.91,.41,1.26,.33,.3,.78,.45,1.23,.42h.03c1.3-.01,5.69-.02,13.04-.02h2.87v-11.77h-.79c-7.05,0-12.55,0-15.11-.01h0Zm32.97,11.79c1.88,0,3.32,0,4.69,.01h.03c.46,.03,.91-.12,1.25-.43,.3-.34,.45-.79,.42-1.24-.03-2.76-.03-5.61,0-8.46,.11-.81-.45-1.56-1.27-1.68-.13-.02-.27-.02-.4,0-2.95,0-10,.01-18.4,.01h-.79v11.77h14.47m-1.32-26.65H6.35c-2.23,0-3.42,1.19-3.42,3.44,0,1.57,0,3.13,0,4.7v1.7c0,.72,0,1.19,.37,1.57s.85,.38,1.56,.38h63.27c1.4,0,1.78-.38,1.78-1.75V6.36c0-2.25-1.18-3.43-3.41-3.43h-30.26"/>
        <path id="Trazado_1857" data-name="Trazado 1857" class="cls-3" d="M42.4,69.63c-.99-.6-1.13-1.04-.85-2.26,.46-1.97,.93-3.95,1.39-5.92,.55-2.33,1.1-4.66,1.64-6.99,.14-.56,.44-1.06,.87-1.44,5.01-5,10.11-10.1,15.03-15.02l5.65-5.65c2.32-2.32,4.63-4.63,6.95-6.95,2.26-2.5,6.11-2.7,8.62-.44,.15,.13,.29,.27,.42,.42,.37,.36,.74,.74,1.09,1.1,.67,.68,1.36,1.38,2.08,2.05,1.15,.99,1.99,2.29,2.41,3.75v2.45c-.44,1.46-1.28,2.76-2.42,3.76-1.96,1.91-3.92,3.88-5.81,5.79-.79,.79-1.58,1.58-2.36,2.37l-4.15,4.15c-4.86,4.86-9.88,9.88-14.82,14.83-.45,.48-1.04,.82-1.68,.95-1.02,.22-2.04,.46-3.03,.7l-.85,.2c-2.13,.51-4.26,1.02-6.38,1.53l-2.57,.62h-1.22Zm24.74-33.47c-.5,0-.82,.32-1.26,.75-1.48,1.48-2.95,2.96-4.42,4.44-3.69,3.71-7.51,7.55-11.33,11.25-1.9,1.6-3.14,3.86-3.45,6.32-.02,.1-.04,.2-.07,.3-.02,.09-.05,.17-.07,.26l-.24,1.03c-.29,1.24-.6,2.51-.89,3.78l-.02,.04c-.14,.33-.12,.72,.07,1.03,.19,.27,.5,.43,.83,.43h.1s.09-.01,.09-.01l.18-.03c.11-.02,.22-.04,.33-.06l2.35-.56c1.87-.44,3.8-.9,5.7-1.34,.57-.14,1.09-.43,1.5-.86l.3-.3c5.73-5.74,11.65-11.67,17.5-17.49,.34-.29,.55-.71,.58-1.16-.03-.46-.25-.89-.61-1.18-1.41-1.38-2.83-2.81-4.21-4.19-.57-.57-1.13-1.13-1.7-1.7-.44-.44-.76-.76-1.26-.76m10.35-9.74c-.72,0-1.41,.29-1.91,.81-.79,.78-1.58,1.57-2.36,2.36-.96,.96-1.96,1.96-2.95,2.93-.28,.25-.45,.6-.46,.98,.02,.38,.19,.74,.48,1,2.29,2.27,4.36,4.34,6.33,6.33,.26,.29,.62,.47,1.01,.48,.4-.02,.77-.2,1.03-.5,.73-.74,1.49-1.5,2.22-2.22,.98-.98,1.99-1.99,2.98-3,1.15-1.06,1.23-2.84,.17-4-.05-.05-.09-.1-.14-.15-1.06-1.09-2.15-2.18-3.21-3.23l-.96-.96c-.51-.53-1.21-.84-1.95-.84h-.26"/>
      </g>
    </g>
  </g>
</svg>