<?xml version="1.0" encoding="UTF-8"?>
<svg id="Capa_1" data-name="Capa 1" xmlns="http://www.w3.org/2000/svg" xmlns:xlink="http://www.w3.org/1999/xlink" viewBox="0 0 348.24 94.48">
  <defs>
    <style>
      .cls-1 {
        fill: #fff;
      }

      .cls-2 {
        fill: #365494;
      }

      .cls-3 {
        fill: url(#Degradado_sin_nombre_8-2);
      }

      .cls-4 {
        fill: url(#Degradado_sin_nombre_6-3);
      }

      .cls-5 {
        fill: url(#Degradado_sin_nombre_6-2);
      }

      .cls-6 {
        fill: url(#Degradado_sin_nombre_3-3);
      }

      .cls-7 {
        fill: url(#Degradado_sin_nombre_3-2);
      }

      .cls-8 {
        fill: url(#Degradado_sin_nombre_6);
      }

      .cls-9 {
        fill: url(#Degradado_sin_nombre_3);
      }

      .cls-10 {
        fill: url(#Degradado_sin_nombre_8);
      }
    </style>
    <radialGradient id="Degradado_sin_nombre_3" data-name="Degradado sin nombre 3" cx="-172.63" cy="1658.7" fx="-172.63" fy="1658.7" r="2.85" gradientTransform="translate(1474.89 1690.4) scale(5.83 -.99)" gradientUnits="userSpaceOnUse">
      <stop offset="0" stop-color="#c9cbcc"/>
      <stop offset=".11" stop-color="#c9cbcc" stop-opacity=".84"/>
      <stop offset=".35" stop-color="#c9cbcc" stop-opacity=".55"/>
      <stop offset=".56" stop-color="#c9cbcc" stop-opacity=".31"/>
      <stop offset=".75" stop-color="#c9cbcc" stop-opacity=".14"/>
      <stop offset=".9" stop-color="#c9cbcc" stop-opacity=".04"/>
      <stop offset="1" stop-color="#c9cbcc" stop-opacity="0"/>
    </radialGradient>
    <radialGradient id="Degradado_sin_nombre_3-2" data-name="Degradado sin nombre 3" cx="-162.48" cy="1341.7" fx="-162.48" fy="1341.7" r="2.42" gradientTransform="translate(1030.26 7888.83) scale(5.83 -5.84)" xlink:href="#Degradado_sin_nombre_3"/>
    <radialGradient id="Degradado_sin_nombre_3-3" data-name="Degradado sin nombre 3" cx="-162.87" cy="1341.7" fx="-162.87" fy="1341.7" r="2.42" gradientTransform="translate(1148.53 7888.83) scale(5.83 -5.84)" xlink:href="#Degradado_sin_nombre_3"/>
    <radialGradient id="Degradado_sin_nombre_6" data-name="Degradado sin nombre 6" cx="-172.67" cy="1458.38" fx="-172.67" fy="1458.38" r="1.36" gradientTransform="translate(1441.13 2836.55) scale(5.83 -2.08)" gradientUnits="userSpaceOnUse">
      <stop offset="0" stop-color="#c9cbcc" stop-opacity=".7"/>
      <stop offset=".15" stop-color="#c9cbcc" stop-opacity=".51"/>
      <stop offset=".32" stop-color="#c9cbcc" stop-opacity=".33"/>
      <stop offset=".5" stop-color="#c9cbcc" stop-opacity=".19"/>
      <stop offset=".67" stop-color="#c9cbcc" stop-opacity=".08"/>
      <stop offset=".84" stop-color="#c9cbcc" stop-opacity=".02"/>
      <stop offset="1" stop-color="#c9cbcc" stop-opacity="0"/>
    </radialGradient>
    <radialGradient id="Degradado_sin_nombre_6-2" data-name="Degradado sin nombre 6" cx="-152.04" cy="1407.81" fx="-152.04" fy="1407.81" r="1.15" gradientTransform="translate(1122.64 7888.83) scale(5.83 -5.84)" xlink:href="#Degradado_sin_nombre_6"/>
    <radialGradient id="Degradado_sin_nombre_6-3" data-name="Degradado sin nombre 6" cx="-174.02" cy="1502.87" fx="-174.02" fy="1502.87" r="1.74" gradientTransform="translate(2147.51 2272.79) scale(6.04 -1.67)" xlink:href="#Degradado_sin_nombre_6"/>
    <linearGradient id="Degradado_sin_nombre_8" data-name="Degradado sin nombre 8" x1="-189.1" y1="1311.27" x2="-189.6" y2="1312.14" gradientTransform="translate(2114.94 14330.5) scale(10.92 -10.92)" gradientUnits="userSpaceOnUse">
      <stop offset="0" stop-color="#ababff"/>
      <stop offset=".09" stop-color="#99f"/>
      <stop offset=".3" stop-color="#77f"/>
      <stop offset=".48" stop-color="#6161ff"/>
      <stop offset=".59" stop-color="#5a5aff"/>
      <stop offset=".66" stop-color="#5859f9"/>
      <stop offset=".74" stop-color="#5258e9"/>
      <stop offset=".84" stop-color="#4957ce"/>
      <stop offset=".95" stop-color="#3d55a9"/>
      <stop offset="1" stop-color="#365494"/>
    </linearGradient>
    <linearGradient id="Degradado_sin_nombre_8-2" data-name="Degradado sin nombre 8" x1="-201.15" y1="1286.85" x2="-200.51" y2="1287.1" gradientTransform="translate(5384.92 49468.9) scale(26.56 -38.41)" xlink:href="#Degradado_sin_nombre_8"/>
  </defs>
  <g id="Mesa_de_trabajo_42" data-name="Mesa de trabajo 42">
    <g id="Componentes_fijos" data-name="Componentes fijos">
      <g id="Grupo_74" data-name="Grupo 74">
        <g id="Grupo_68" data-name="Grupo 68">
          <ellipse id="Elipse_9" data-name="Elipse 9" class="cls-9" cx="60.21" cy="53.32" rx="23.32" ry="2.92"/>
          <ellipse id="Elipse_10" data-name="Elipse 10" class="cls-7" cx="23.96" cy="53.32" rx="23.32" ry="2.92"/>
          <ellipse id="Elipse_11" data-name="Elipse 11" class="cls-6" cx="142.23" cy="53.32" rx="23.32" ry="2.92"/>
          <ellipse id="Elipse_12" data-name="Elipse 12" class="cls-8" cx="93.83" cy="53.32" rx="11.13" ry="2.92"/>
          <ellipse id="Elipse_13" data-name="Elipse 13" class="cls-5" cx="115.88" cy="53.32" rx="11.13" ry="2.92"/>
          <ellipse id="Elipse_14" data-name="Elipse 14" class="cls-4" cx="173.78" cy="53.32" rx="14.73" ry="3.02"/>
        </g>
        <g id="Grupo_73" data-name="Grupo 73">
          <path id="Trazado_100" data-name="Trazado 100" class="cls-1" d="M104.64,14.61c-4.31,0-8.44,1.73-11.46,4.8-6.2-6.32-16.35-6.41-22.67-.21-3.03,2.97-4.75,7.03-4.8,11.27v6.7c0,1.94-.86,3.79-2.33,5.05h0c1.9-1.65,4.77-1.44,6.42,.45,1.65,1.9,1.44,4.77-.46,6.42h0c3.46-3,5.46-7.35,5.46-11.93v-6.7c.09-3.82,3.26-6.84,7.08-6.74,3.69,.09,6.65,3.06,6.74,6.74v18c0,2.51,2.04,4.55,4.55,4.55,2.51,0,4.55-2.04,4.55-4.55V30.47c.09-3.82,3.26-6.84,7.08-6.74,3.69,.09,6.65,3.06,6.74,6.74v18c0,2.51,2.04,4.55,4.55,4.55,2.51,0,4.55-2.04,4.55-4.55V30.47c-.05-8.8-7.21-15.89-16.01-15.86h.01Z"/>
          <path id="Trazado_101" data-name="Trazado 101" class="cls-1" d="M93.17,53.02c-2.51,0-4.55-2.04-4.55-4.55V30.47c0-3.81-3.09-6.9-6.9-6.9s-6.9,3.09-6.9,6.9v6.7c0,4.58-2,8.93-5.46,11.93-1.9,1.65-4.77,1.44-6.42-.46-1.65-1.9-1.44-4.77,.46-6.42h0c1.47-1.27,2.32-3.11,2.32-5.05v-6.7c.1-8.84,7.35-15.93,16.19-15.83,8.7,.1,15.73,7.13,15.83,15.83v18c0,2.51-2.04,4.55-4.55,4.55h-.02Z"/>
          <g id="Grupo_72" data-name="Grupo 72">
            <path id="Trazado_102" data-name="Trazado 102" class="cls-2" d="M69.81,42.68c-1.65-1.9-4.52-2.1-6.42-.46h0c-1.88,1.68-2.04,4.56-.36,6.43,1.64,1.84,4.45,2.04,6.33,.45h0c1.9-1.65,2.1-4.52,.46-6.42h-.01Z"/>
            <g id="Grupo_70" data-name="Grupo 70">
              <path id="Trazado_103" data-name="Trazado 103" class="cls-1" d="M40.11,31.95c-.71-1.7-1.85-3.19-3.3-4.33-1.64-1.23-3.48-2.17-5.44-2.78-2.44-.78-4.93-1.39-7.45-1.84-1.85-.35-3.68-.82-5.47-1.42-1.27-.39-2.42-1.09-3.34-2.04-.76-.87-1.15-2-1.1-3.15-.02-1.01,.32-2,.95-2.79,.77-.9,1.78-1.58,2.91-1.95,1.58-.53,3.24-.78,4.91-.74,1.28,.02,2.56,.21,3.79,.58,1.34,.38,2.65,.87,3.92,1.45,1.05,.46,2.04,1.07,2.93,1.8,.63,.48,1.39,.73,2.18,.73,1.2,0,2.35-.51,3.15-1.41,.84-.83,1.31-1.95,1.32-3.13-.04-1.63-.86-3.15-2.2-4.08-1.93-1.57-4.13-2.78-6.49-3.56-2.77-.94-5.68-1.41-8.6-1.39-3.09-.03-6.16,.55-9.02,1.72-2.61,1.06-4.87,2.81-6.54,5.07-1.66,2.35-2.52,5.18-2.44,8.06-.03,1.92,.32,3.82,1.02,5.61,.68,1.66,1.71,3.16,3.03,4.38,1.45,1.31,3.13,2.34,4.95,3.04,2.18,.84,4.45,1.43,6.77,1.75,2.21,.27,4.39,.79,6.48,1.55,1.39,.48,2.65,1.29,3.67,2.35,.77,.91,1.18,2.07,1.15,3.26,0,1.05-.43,2.06-1.2,2.78-.94,.93-2.08,1.63-3.33,2.06-1.48,.53-3.03,.79-4.6,.78-2.15,.06-4.29-.3-6.29-1.08-1.87-.83-3.61-1.92-5.18-3.23-.75-.62-1.7-.96-2.68-.95-1.23-.03-2.42,.47-3.26,1.38-.83,.85-1.29,1.98-1.29,3.17,0,.76,.19,1.51,.54,2.18,.37,.73,.89,1.38,1.52,1.9,2.23,1.98,4.84,3.48,7.67,4.4,2.91,.87,5.93,1.29,8.97,1.25,3.11,.03,6.19-.58,9.05-1.79,2.68-1.1,5.03-2.89,6.81-5.19,1.76-2.34,2.69-5.21,2.62-8.14,.05-2.13-.32-4.26-1.09-6.25h0Z"/>
              <g id="Grupo_69" data-name="Grupo 69">
                <path id="Trazado_104" data-name="Trazado 104" class="cls-1" d="M153.58,19.12h0c-1.65-1.73-3.62-3.13-5.79-4.13-2.18-1.01-4.56-1.52-6.96-1.51-3.16,0-6.27,.85-9,2.45-2.88,1.68-5.25,4.1-6.87,7.01-1.82,3.37-2.73,7.16-2.62,10.99-.05,3.45,.78,6.86,2.41,9.9,1.61,2.92,4,5.33,6.91,6.95,5.41,2.83,11.75,3.33,17.53,1.37,1.9-.61,3.68-1.54,5.25-2.77,1.28-.86,2.08-2.27,2.15-3.81,0-1.05-.41-2.05-1.15-2.79-1.31-1.36-3.3-1.62-5.51-.51-.51,.28-1.08,.62-1.74,1.03-.74,.43-1.53,.75-2.36,.96-1.31,.3-2.66,.44-4.01,.4-3.68,.01-7.09-1.94-8.94-5.13-.5-.85-.87-1.78-1.09-2.74h22.51c1.19,.01,2.34-.4,3.25-1.16,.94-.76,1.49-1.9,1.5-3.1,0-2.52-.49-5.02-1.47-7.34-.95-2.24-2.3-4.3-3.98-6.06h-.02Zm-16.53,3.55c2.51-.83,5.25-.7,7.67,.36,1.19,.58,2.23,1.41,3.06,2.43,.78,.95,1.24,2.12,1.33,3.34h-17.28c.09-.36,.18-.68,.27-.97,.4-1.27,1.08-2.42,1.99-3.39,.82-.82,1.84-1.43,2.95-1.77h0Z"/>
                <path id="Trazado_105" data-name="Trazado 105" class="cls-1" d="M179.97,43.75c-.62-.01-1.24,.11-1.81,.36-.83,.35-1.76,.37-2.6,.03-.35-.14-.64-.4-.83-.72-.23-.42-.34-.89-.32-1.36V23.54h4.5c1.17,.03,2.3-.41,3.14-1.22,.83-.79,1.29-1.89,1.27-3.04,.02-1.17-.43-2.31-1.26-3.14-.83-.83-1.96-1.29-3.14-1.26h-4.5v-4.01c.03-1.25-.43-2.47-1.29-3.38-.86-.91-2.07-1.42-3.33-1.38-2.58-.04-4.72,2.01-4.76,4.6,0,.05,0,.11,0,.16v4.01h-2.74c-1.17-.03-2.3,.41-3.14,1.22-.83,.79-1.29,1.89-1.27,3.04-.02,1.17,.43,2.31,1.26,3.14,.83,.83,1.96,1.29,3.14,1.26h2.74v18.86c-.09,1.94,.29,3.86,1.11,5.62,.63,1.27,1.6,2.33,2.8,3.09,1.08,.65,2.29,1.08,3.54,1.25,1.1,.16,2.21,.24,3.32,.25,1.7,0,3.37-.46,4.83-1.33,1.41-.67,2.32-2.08,2.37-3.64,.06-1.03-.28-2.04-.93-2.84-.52-.66-1.31-1.05-2.15-1.07l.05,.02Z"/>
              </g>
            </g>
            <g id="Grupo_71" data-name="Grupo 71">
              <path id="Trazado_106" data-name="Trazado 106" class="cls-1" d="M81.4,12.14c3.02,0,5.46-2.44,5.46-5.46s-2.44-5.46-5.46-5.46c-3.02,0-5.46,2.44-5.46,5.46h0c0,3.01,2.45,5.46,5.46,5.46Z"/>
              <path id="Trazado_107" data-name="Trazado 107" class="cls-10" d="M47.28,12.14c3.02,0,5.46-2.44,5.46-5.46,0-3.02-2.44-5.46-5.46-5.46-3.02,0-5.46,2.44-5.46,5.46,0,3.01,2.45,5.46,5.46,5.46Z"/>
              <path id="Trazado_108" data-name="Trazado 108" class="cls-3" d="M69.35,49.1c-1.92,1.62-4.8,1.38-6.42-.55-1.59-1.88-1.39-4.69,.45-6.33-1.27,1.1-2.9,1.7-4.58,1.7-3.77,.04-6.86-2.98-6.91-6.75V19.17c0-2.51-2.04-4.55-4.55-4.55s-4.55,2.04-4.55,4.55h0v18c.1,8.86,7.36,15.96,16.22,15.86,3.8-.04,7.47-1.44,10.34-3.93h0Z"/>
            </g>
          </g>
        </g>
      </g>
    </g>
  </g>
</svg>