<?xml version="1.0" encoding="UTF-8"?>
<svg id="Capa_1" data-name="Capa 1" xmlns="http://www.w3.org/2000/svg" viewBox="0 0 25.72 28.41">
  <defs>
    <style>
      .cls-1 {
        fill: #fff;
      }
    </style>
  </defs>
  <g id="Notificación_activa" data-name="Notificación activa">
    <g id="Grupo_1153" data-name="Grupo 1153">
      <g id="Grupo_1152" data-name="Grupo 1152">
        <path id="Trazado_1801" data-name="Trazado 1801" class="cls-1" d="M12.26,28.41c-.76-.13-1.47-.46-2.06-.95-.72-.59-1.21-1.42-1.39-2.33-.05-.26-.14-.36-.43-.36-1.73,.01-3.46,.01-5.18,0-1.77-.03-3.19-1.47-3.19-3.24,.05-1.58,1.2-2.9,2.76-3.17,.16-.03,.33-.04,.49-.05,.3-.02,.4-.11,.41-.4v-5.3c-.02-1.54,.33-3.06,1.04-4.43,1-1.96,2.69-3.49,4.74-4.3,.21-.05,.34-.26,.29-.47,0,0,0-.01,0-.02C9.59,1.64,10.9,.14,12.63,0c1.73-.13,3.24,1.18,3.37,2.91,0,.07,0,.15,0,.22-.02,.55,.19,.69,.6,.9,2.97,1.37,5.01,4.19,5.37,7.44,.06,.48,.09,.96,.08,1.44,0,1.63,0,3.25,0,4.88,0,.44,.06,.49,.49,.51,1.73,.07,3.1,1.47,3.16,3.19,.04,1.76-1.36,3.23-3.12,3.27,0,0,0,0,0,0-1.77,.02-3.53,0-5.29,0-.21,0-.31,.06-.36,.27-.3,1.72-1.66,3.07-3.39,3.34-.03,0-.05,.02-.08,.03h-1.22Zm.61-5.51h9.23c.22,0,.44-.02,.66-.05,.71-.15,1.18-.83,1.05-1.55-.14-.64-.71-1.09-1.36-1.08-1.27,0-2.29-1.04-2.29-2.31,0-.03,0-.05,0-.08,.04-1.65,0-3.31,.01-4.96,0-.48-.03-.96-.1-1.43-.55-3.84-3.99-6.6-7.86-6.31-3.76,.34-6.63,3.49-6.64,7.27-.02,1.87,0,3.74,0,5.6,0,.99-.65,1.85-1.6,2.12-.26,.07-.53,.1-.79,.11-.54,.04-1,.4-1.19,.91-.19,.51-.03,1.09,.4,1.43,.34,.27,.77,.39,1.19,.34H12.86m.01,3.65c.95-.01,1.8-.61,2.12-1.51,.07-.21,.03-.27-.2-.27-1.29,0-2.59,0-3.88,0-.22,0-.25,.07-.19,.26,.32,.91,1.18,1.52,2.14,1.52m-.01-24.67c-.62,.01-1.14,.46-1.24,1.06-.05,.29,0,.35,.3,.31,.64-.07,1.29-.07,1.93,0,.25,.03,.29-.07,.27-.27-.09-.63-.63-1.1-1.26-1.1"/>
        <path id="Trazado_1802" data-name="Trazado 1802" class="cls-1" d="M.98,11.03c-.52,0-.93-.42-.93-.94,0-.06,0-.11,.02-.17C.58,7.55,1.77,5.37,3.5,3.67c.35-.38,.94-.41,1.32-.06s.41,.94,.06,1.32h0c-.3,.37-.65,.71-.95,1.09-.96,1.22-1.64,2.65-1.99,4.17-.06,.49-.48,.86-.98,.85"/>
        <path id="Trazado_1803" data-name="Trazado 1803" class="cls-1" d="M20.62,4.35c0-.38,.22-.73,.57-.88,.36-.17,.78-.08,1.04,.21,1.1,1.09,1.99,2.37,2.62,3.79,.36,.78,.62,1.6,.8,2.45,.1,.51-.23,1-.74,1.11-.47,.09-.94-.18-1.08-.64-.13-.4-.22-.82-.36-1.22-.49-1.49-1.32-2.84-2.42-3.97-.25-.21-.41-.51-.44-.83"/>
      </g>
    </g>
  </g>
</svg>