<?xml version="1.0" encoding="UTF-8"?>
<svg id="Capa_1" data-name="Capa 1" xmlns="http://www.w3.org/2000/svg" viewBox="0 0 40 40">
  <defs>
    <style>
      .cls-1 {
        fill: #fff;
      }

      .cls-2 {
        fill: #73d36e;
      }
    </style>
  </defs>
  <g id="Elipse_118" data-name="Elipse 118">
    <circle class="cls-2" cx="20" cy="20" r="20"/>
    <path class="cls-2" d="M20,40C8.97,40,0,31.03,0,20S8.97,0,20,0s20,8.97,20,20-8.97,20-20,20ZM20,1C9.52,1,1,9.52,1,20s8.52,19,19,19,19-8.52,19-19S30.48,1,20,1Z"/>
  </g>
  <g id="Trazado_1865" data-name="Trazado 1865">
    <path class="cls-1" d="M19.32,29.13c-.29,0-.56-.12-.75-.34l-5.87-6.74c-.36-.42-.32-1.05,.1-1.41,.42-.36,1.05-.32,1.41,.1l5.02,5.76,9.01-13.33c.31-.46,.93-.58,1.39-.27,.46,.31,.58,.93,.27,1.39l-9.74,14.41c-.17,.26-.46,.42-.77,.44-.02,0-.04,0-.06,0Z"/>
  </g>
</svg>