<?xml version="1.0" encoding="UTF-8"?>
<svg id="Capa_1" data-name="Capa 1" xmlns="http://www.w3.org/2000/svg" viewBox="0 0 40 40">
  <defs>
    <style>
      .cls-1 {
        fill: none;
      }

      .cls-2 {
        fill: #ee7975;
      }
    </style>
  </defs>
  <g id="Grupo_1286" data-name="Grupo 1286">
    <g id="Elipse_118" data-name="Elipse 118">
      <circle class="cls-1" cx="20" cy="20" r="20"/>
      <path class="cls-2" d="M20,40C8.97,40,0,31.03,0,20S8.97,0,20,0s20,8.97,20,20-8.97,20-20,20ZM20,2C10.07,2,2,10.07,2,20s8.07,18,18,18,18-8.07,18-18S29.93,2,20,2Z"/>
    </g>
    <g id="Grupo_1284" data-name="Grupo 1284">
      <g id="Trazado_1863" data-name="Trazado 1863">
        <path class="cls-2" d="M29.6,30.71c-.26,0-.51-.1-.71-.29L10.24,11.77c-.39-.39-.39-1.02,0-1.41s1.02-.39,1.41,0L30.31,29c.39,.39,.39,1.02,0,1.41-.2,.2-.45,.29-.71,.29Z"/>
      </g>
      <g id="Trazado_1864" data-name="Trazado 1864">
        <path class="cls-2" d="M10.95,30.71c-.26,0-.51-.1-.71-.29-.39-.39-.39-1.02,0-1.41L28.89,10.35c.39-.39,1.02-.39,1.41,0s.39,1.02,0,1.41L11.66,30.42c-.2,.2-.45,.29-.71,.29Z"/>
      </g>
    </g>
  </g>
</svg>