<?xml version="1.0" encoding="UTF-8"?>
<svg id="Capa_1" data-name="Capa 1" xmlns="http://www.w3.org/2000/svg" viewBox="0 0 25.51 25.51">
  <defs>
    <style>
      .cls-1 {
        fill: none;
      }

      .cls-2 {
        fill: #fff;
      }
    </style>
  </defs>
  <g id="Accion_guardar" data-name="Accion guardar">
    <g id="Trazado_1691" data-name="Trazado 1691">
      <path class="cls-2" d="M11.03,19.8c-.27,0-.53-.11-.72-.31l-5.47-5.86c-.37-.4-.35-1.02,.05-1.39,.4-.37,1.02-.35,1.39,.05l4.74,5.07,8.17-9.27c.36-.41,.98-.45,1.39-.09,.41,.36,.45,.98,.09,1.39l-8.88,10.08c-.18,.21-.45,.33-.72,.33h-.01Z"/>
    </g>
    <g id="Elipse_61" data-name="Elipse 61">
      <circle class="cls-1" cx="12.76" cy="13.31" r="12.44"/>
      <path class="cls-2" d="M12.76,25.75C5.9,25.75,.32,20.17,.32,13.31S5.9,.88,12.76,.88s12.44,5.58,12.44,12.44-5.58,12.44-12.44,12.44Zm0-23.57C6.62,2.18,1.63,7.18,1.63,13.31s4.99,11.13,11.13,11.13,11.13-4.99,11.13-11.13S18.89,2.18,12.76,2.18Z"/>
    </g>
  </g>
</svg>