<?xml version="1.0" encoding="UTF-8"?>
<svg id="Capa_1" data-name="Capa 1" xmlns="http://www.w3.org/2000/svg" viewBox="0 0 40 40">
  <defs>
    <style>
      .cls-1 {
        fill: #c6f5c4;
      }
    </style>
  </defs>
  <g id="Trazado_2209" data-name="Trazado 2209">
    <path class="cls-1" d="M20.06,39.96C9.06,40,.07,31.07,.04,20.06S8.93,.07,19.94,.04s19.99,8.89,20.03,19.9c.04,11.01-8.89,19.99-19.9,20.03Zm-.12-38.29C9.83,1.7,1.64,9.95,1.67,20.06c.03,10.11,8.28,18.3,18.39,18.27s18.3-8.28,18.27-18.39S30.05,1.64,19.94,1.67Z"/>
  </g>
  <g id="Grupo_1528" data-name="Grupo 1528">
    <g id="Grupo_870" data-name="Grupo 870">
      <g id="Grupo_869" data-name="Grupo 869">
        <g id="Trazado_1614" data-name="Trazado 1614">
          <path class="cls-1" d="M9.92,31.3c-.13,0-.25-.03-.36-.08h0s0,0,0,0h0s-.05-.03-.07-.04c-.16-.1-.29-.26-.35-.46-.05-.16-.04-.32,0-.47l1.75-6.04c.04-.13,.11-.26,.21-.36h0s15.13-14.97,15.13-14.97c.27-.27,.69-.31,1.01-.11l2.66,1.68c.11,.07,.19,.16,.26,.26l1.5,2.45c.2,.32,.15,.74-.12,1l-14.97,15.07c-.1,.11-.23,.19-.38,.24l-6.05,1.8c-.08,.02-.15,.03-.23,.03Zm2.16-5.33l-.96,3.3,3.29-.98-2.33-2.32Zm.76-1.55l3.12,3.11,13.97-14.07-1.07-1.74-1.95-1.23-14.08,13.93Z"/>
        </g>
      </g>
    </g>
    <g id="Línea_140" data-name="Línea 140">
      <path class="cls-1" d="M13.99,27.54c-.21,0-.42-.08-.58-.24-.32-.32-.32-.84,0-1.16l15.48-15.58c.32-.32,.84-.32,1.16,0,.32,.32,.32,.84,0,1.16l-15.48,15.58c-.16,.16-.37,.24-.58,.24Z"/>
    </g>
  </g>
</svg>