<?xml version="1.0" encoding="UTF-8"?>
<svg id="Capa_1" data-name="Capa 1" xmlns="http://www.w3.org/2000/svg" viewBox="0 0 25.51 25.51">
  <defs>
    <style>
      .cls-1 {
        fill: #73d36e;
      }
    </style>
  </defs>
  <g id="Acción_enviar" data-name="Acción enviar">
    <g id="Trazado_1588" data-name="Trazado 1588">
      <path class="cls-1" d="M8.89,22.1c-.08,0-.16-.01-.24-.04-.31-.09-.54-.35-.6-.67l-1.6-9.14L.22,5.25c-.22-.25-.28-.61-.14-.91,.13-.31,.43-.51,.77-.51l23.8-.4c.34,0,.66,.19,.8,.51,.14,.31,.08,.68-.15,.93L9.51,21.82c-.16,.18-.39,.27-.63,.27ZM2.73,5.5l5.15,5.79c.11,.12,.18,.26,.2,.42l1.35,7.69L22.66,5.16l-19.93,.34Z"/>
    </g>
    <g id="Línea_138" data-name="Línea 138">
      <path class="cls-1" d="M8.2,13.04c-.32,0-.62-.18-.77-.48-.2-.43-.03-.94,.4-1.14L24.29,3.5c.43-.2,.94-.03,1.14,.4,.2,.43,.03,.94-.4,1.14L8.57,12.96c-.12,.06-.25,.08-.37,.08Z"/>
    </g>
  </g>
</svg>