<?xml version="1.0" encoding="UTF-8"?>
<svg id="Capa_1" data-name="Capa 1" xmlns="http://www.w3.org/2000/svg" viewBox="0 0 110 109">
  <defs>
    <style>
      .cls-1 {
        fill: #fff;
      }

      .cls-2 {
        fill: #73d36e;
      }
    </style>
  </defs>
  <g id="DIRECTORIOS-2">
    <ellipse id="Elipse_83-4" data-name="Elipse 83-4" class="cls-2" cx="54.43" cy="54.64" rx="54.43" ry="53.94"/>
    <g id="contacto-2">
      <g id="Grupo_66-2" data-name="Grupo 66-2">
        <path id="Trazado_87-2" data-name="Trazado 87-2" class="cls-1" d="M26.09,46.99c-1.29,0-2.34-1.05-2.34-2.34s1.05-2.34,2.34-2.34h13.84c1.29,0,2.34,1.05,2.34,2.34s-1.05,2.34-2.34,2.34h-13.84Z"/>
        <path id="Trazado_88-2" data-name="Trazado 88-2" class="cls-1" d="M26.09,55.06c-1.29,0-2.34-1.05-2.34-2.34s1.05-2.34,2.34-2.34h13.84c1.29,0,2.35,1.05,2.35,2.34s-1.05,2.35-2.34,2.35h-13.84Z"/>
        <path id="Trazado_89-2" data-name="Trazado 89-2" class="cls-1" d="M26.09,63.1c-1.29,0-2.35-1.05-2.35-2.34s1.05-2.35,2.34-2.35h13.84c1.29,0,2.35,1.05,2.35,2.34s-1.05,2.35-2.34,2.35h-13.84Z"/>
        <path id="Trazado_90-2" data-name="Trazado 90-2" class="cls-1" d="M42.34,82.87c-6.95,0-12.59-5.64-12.6-12.6v-29.51c0-6.95,5.64-12.59,12.6-12.6h25.6c6.95,0,12.59,5.64,12.6,12.6v.91c0,1.19-.96,2.15-2.15,2.15s-2.15-.96-2.15-2.15h0v-.91c-.01-4.58-3.72-8.28-8.29-8.29h-25.6c-4.58,.01-8.28,3.72-8.29,8.29v29.49c.01,4.58,3.72,8.28,8.29,8.29h19.33c1.19,0,2.15,.96,2.15,2.15s-.96,2.15-2.15,2.15h-19.33v.02Z"/>
      </g>
      <g id="Grupo_67-2" data-name="Grupo 67-2">
        <path id="Trazado_91-2" data-name="Trazado 91-2" class="cls-1" d="M78.38,77.82c-1.2,0-2.17-.97-2.17-2.17v-5.56c0-5.15-4.17-9.33-9.33-9.33s-9.33,4.17-9.33,9.33v5.56c0,1.2-.97,2.17-2.17,2.17s-2.17-.97-2.17-2.17h0v-5.56c0-7.56,6.13-13.68,13.68-13.68s13.68,6.13,13.68,13.68v5.56c0,1.2-.97,2.17-2.17,2.17h-.04Z"/>
        <path id="Trazado_92-2" data-name="Trazado 92-2" class="cls-1" d="M66.87,60.41c-5.72,0-10.36-4.64-10.36-10.36,0-5.72,4.64-10.36,10.36-10.36,5.72,0,10.36,4.64,10.36,10.36-.01,5.72-4.64,10.35-10.36,10.36Zm0-16.38c-3.32,0-6.02,2.69-6.02,6.02s2.69,6.02,6.02,6.02,6.02-2.69,6.02-6.02-2.69-6.02-6.02-6.02h0Z"/>
      </g>
      <path id="Trazado_93-2" data-name="Trazado 93-2" class="cls-1" d="M61.62,82.91c-1.19,0-2.15-.96-2.15-2.15s.96-2.15,2.15-2.15h12.05c1.42,0,2.57-1.15,2.57-2.57v-5.51c0-1.19,.96-2.15,2.15-2.15s2.15,.96,2.15,2.15v5.51c0,3.79-3.07,6.85-6.86,6.86h-12.05l-.02,.02Z"/>
    </g>
  </g>
</svg>