<?xml version="1.0" encoding="UTF-8"?>
<svg id="Capa_1" data-name="Capa 1" xmlns="http://www.w3.org/2000/svg" xmlns:xlink="http://www.w3.org/1999/xlink" viewBox="0 0 40.13 40.13">
  <defs>
    <style>
      .cls-1 {
        fill: none;
      }

      .cls-2 {
        clip-path: url(#clippath);
      }

      .cls-3 {
        fill: #fff;
      }

      .cls-4 {
        fill: #365494;
      }
    </style>
    <clipPath id="clippath">
      <rect class="cls-1" x="8.81" y="8.92" width="21.72" height="24.31"/>
    </clipPath>
  </defs>
  <g id="Filtro_Policia" data-name="Filtro Policia">
    <g id="Grupo_1012" data-name="Grupo 1012">
      <path id="Trazado_1731" data-name="Trazado 1731" class="cls-3" d="M20.07,0C31.15,0,40.13,8.98,40.13,20.07s-8.98,20.07-20.07,20.07S0,31.15,0,20.07C0,8.98,8.98,0,20.07,0h0Z"/>
    </g>
    <g id="Grupo_1015" data-name="Grupo 1015">
      <g class="cls-2">
        <g id="Grupo_1015-2" data-name="Grupo 1015-2">
          <path id="Trazado_1729" data-name="Trazado 1729" class="cls-4" d="M27.09,8.92c.36,.38,.72,.76,1.08,1.13,.61,.63,1.22,1.27,1.84,1.89,.12,.09,.15,.25,.06,.37,0,0-.01,.02-.02,.03-.69,1.08-1.05,2.35-1.04,3.63,0,.96,.21,1.9,.59,2.78,.63,1.44,.94,2.99,.91,4.56,0,2.48-1.41,4.74-3.64,5.83-.95,.47-1.96,.83-2.99,1.07-.76,.21-1.49,.5-2.18,.87-.79,.42-1.43,1.08-1.83,1.88-.2,.37-.24,.38-.43,0-.67-1.21-1.8-2.1-3.12-2.47-.63-.24-1.29-.38-1.94-.57-1.23-.33-2.37-.93-3.35-1.74-1.17-1-1.93-2.4-2.14-3.92-.22-1.79,.03-3.6,.73-5.26,.29-.68,.5-1.4,.62-2.14,.2-1.52-.11-3.07-.9-4.39-.23-.39-.25-.29,.06-.62l2.82-2.93h.19c.34,.17,.7,.29,1.07,.37,1.69,.4,3.44,.4,5.13,0,.68-.17,1.39-.17,2.07,0,1.44,.33,2.93,.37,4.39,.12,.62-.07,1.23-.24,1.8-.51h.19Zm-15.3,7.04c0,.39-.02,.78-.07,1.16-.14,.84-.39,1.67-.72,2.45-.58,1.39-.8,2.9-.63,4.4,.15,1.24,.78,2.38,1.75,3.16,.96,.74,2.07,1.26,3.25,1.51,1.53,.32,2.95,1,4.17,1.98,.07,.08,.18,.08,.26,.02,.01,0,.02-.02,.03-.03,.17-.16,.36-.31,.56-.44,1.1-.72,2.31-1.23,3.59-1.52,.98-.22,1.92-.61,2.77-1.16,1.36-.87,2.22-2.35,2.28-3.97,.07-1.41-.18-2.81-.74-4.1-.43-1-.68-2.07-.74-3.15-.04-1.3,.21-2.58,.74-3.77,.05-.08,.03-.19-.04-.25-.5-.51-1-1.02-1.49-1.53-.07-.08-.18-.11-.27-.07-1.21,.31-2.47,.44-3.72,.39-.94-.01-1.88-.14-2.79-.38-.21-.06-.44-.05-.65,.01-1.04,.28-2.12,.41-3.2,.38-1.09,.02-2.19-.12-3.24-.4-.12-.04-.26,0-.34,.1-.47,.49-.94,.98-1.42,1.47-.1,.08-.12,.22-.05,.33,.48,1.07,.73,2.23,.73,3.41"/>
          <path id="Trazado_1730" data-name="Trazado 1730" class="cls-4" d="M15.61,25.71c.11-.61,.21-1.21,.31-1.82,.13-.76,.26-1.53,.4-2.29,.04-.16-.01-.33-.14-.44-.98-.94-1.95-1.89-2.92-2.83-.05-.05-.15-.1-.11-.19,.03-.07,.13-.05,.19-.06,1.36-.2,2.71-.41,4.07-.6,.15-.01,.28-.11,.33-.25,.59-1.2,1.18-2.4,1.78-3.6,.04-.08,.05-.2,.14-.2,.11,0,.12,.13,.16,.21,.6,1.2,1.19,2.4,1.78,3.6,.05,.14,.18,.24,.33,.25,1.36,.19,2.73,.4,4.09,.6,.06,0,.14-.01,.17,.06,.03,.09-.06,.12-.1,.17-.97,.95-1.95,1.91-2.93,2.85-.13,.11-.18,.28-.14,.44,.23,1.32,.46,2.64,.68,3.96,.01,.08,.07,.19,0,.25s-.16-.03-.24-.07c-1.18-.62-2.36-1.24-3.53-1.86-.16-.1-.35-.1-.51,0-1.2,.64-2.4,1.27-3.6,1.89-.08,.04-.21,.17-.21-.06m6.16-2.53c0-.07,0-.1,0-.13-.11-.65-.21-1.3-.33-1.94-.05-.18,.01-.37,.15-.48,.46-.43,.9-.87,1.35-1.31,.04-.04,.12-.08,.09-.15s-.09-.04-.15-.05c-.63-.09-1.27-.19-1.9-.28-.16,0-.3-.11-.36-.26-.27-.56-.54-1.11-.82-1.67-.03-.07-.05-.18-.13-.18s-.1,.11-.13,.18c-.28,.56-.55,1.12-.83,1.68-.04,.13-.16,.22-.29,.24-.64,.09-1.29,.18-1.93,.28-.07,.01-.16-.02-.18,.07-.02,.07,.06,.1,.1,.15,.45,.44,.89,.88,1.35,1.31,.13,.11,.19,.29,.14,.46-.08,.4-.15,.81-.22,1.22-.05,.28-.09,.55-.14,.87,.68-.35,1.31-.68,1.94-1.01,.11-.07,.24-.07,.35,0,.3,.17,.61,.33,.92,.49,.33,.17,.65,.34,1.01,.52"/>
        </g>
      </g>
    </g>
  </g>
</svg>