<?xml version="1.0" encoding="UTF-8"?>
<svg id="Capa_1" data-name="Capa 1" xmlns="http://www.w3.org/2000/svg" xmlns:xlink="http://www.w3.org/1999/xlink" viewBox="0 0 40.13 40.13">
  <defs>
    <style>
      .cls-1 {
        fill: none;
      }

      .cls-2 {
        clip-path: url(#clippath);
      }

      .cls-3 {
        fill: #fff;
      }

      .cls-4 {
        fill: #4ece69;
      }
    </style>
    <clipPath id="clippath">
      <rect class="cls-1" x="6.07" y="8.68" width="28.01" height="19.25"/>
    </clipPath>
  </defs>
  <g id="Filtro_Bombero" data-name="Filtro Bombero">
    <circle id="Elipse_75" data-name="Elipse 75" class="cls-3" cx="20.07" cy="20.07" r="20.07"/>
    <g id="Grupo_993" data-name="Grupo 993">
      <g class="cls-2">
        <g id="Grupo_987" data-name="Grupo 987">
          <path id="Trazado_1724" data-name="Trazado 1724" class="cls-4" d="M34.08,23.01c-.21,.74-.73,1.35-1.43,1.67-2.61,1.45-5.45,2.44-8.39,2.92-.52,.08-1.05,.14-1.57,.2-.32,.09-.65-.1-.74-.43,0-.02,0-.04-.01-.06-.04-.32,.2-.62,.52-.66,.03,0,.05,0,.08,0,1.5-.15,2.99-.44,4.44-.86,1.86-.54,3.66-1.31,5.34-2.27,.53-.23,.77-.86,.54-1.39-.01-.03-.03-.05-.04-.08-.3-.51-.95-.68-1.46-.38-.03,.02-.06,.04-.09,.06-1.95,1.11-4.05,1.93-6.24,2.42-1.36,.31-2.74,.49-4.13,.54-4.2,.16-8.36-.87-12.01-2.96-.47-.34-1.12-.24-1.47,.23-.1,.14-.17,.3-.19,.48-.06,.43,.15,.85,.54,1.05,1.04,.6,2.12,1.13,3.24,1.57,2.01,.8,4.11,1.33,6.26,1.56,.15,.02,.31,.03,.46,.06,.31,.04,.54,.32,.51,.63-.04,.32-.34,.56-.66,.51-3.46-.34-6.82-1.38-9.87-3.05-.36-.17-.7-.39-1-.66-.85-.86-.85-2.24,0-3.09,.66-.66,1.66-.83,2.5-.42,.3,.15,.6,.31,.89,.48,.18,.1,.25,.09,.25-.14,0-.68-.02-1.37,0-2.05,.03-3.49,1.94-6.69,5-8.37,.32-.19,.66-.35,1.01-.49,.16-.04,.25-.19,.22-.35,0,0,0-.02,0-.03-.02-.08-.03-.16-.03-.24-.06-.33,.15-.65,.48-.71,.06-.01,.12-.01,.18,0,.22,0,.44,0,.66,0h4.97c.69,0,.92,.25,.8,.93-.04,.23,.03,.33,.25,.43,2.96,1.24,5.12,3.85,5.77,6.99,.18,.89,.25,1.81,.2,2.72,0,.39,0,.78,0,1.18,0,.2,.04,.27,.24,.15,.24-.14,.49-.27,.74-.41,1.03-.61,2.37-.27,2.98,.76,.09,.15,.16,.31,.21,.48,.02,.06,.05,.12,.07,.18v.93Zm-22.58-3.39c0,.76,0,1.28,0,1.81-.03,.19,.09,.38,.28,.43,.64,.25,1.29,.5,1.95,.7q.33,.1,.38-.25c.12-.92,.85-1.63,1.77-1.74,.26-.03,.53-.04,.79-.03,.2,0,.28-.03,.15-.24-.14-.23-.26-.46-.38-.7-.63-1.23-.94-2.6-.9-3.98,.02-.52,.16-.7,.67-.8,.21-.04,.42-.11,.64-.16,.15-.03,.2-.11,.18-.27-.11-1.01-.2-2.03-.3-3.04-.02-.2-.08-.25-.27-.16-2.18,1.01-3.83,2.9-4.56,5.19-.33,1.04-.46,2.14-.4,3.23m17.17,.1c.02-.61,0-1.22-.07-1.83-.36-2.91-2.2-5.43-4.86-6.66-.25-.13-.28-.11-.31,.18-.08,.86-.19,1.72-.25,2.58-.05,.73-.24,.58,.55,.8,.1,.03,.2,.04,.29,.06,.35,.02,.61,.31,.59,.66,0,0,0,0,0,0,.03,.5,0,1-.07,1.5-.18,1.16-.59,2.28-1.2,3.29-.11,.19-.08,.25,.14,.24,.35-.02,.69,0,1.03,.07,.82,.19,1.44,.88,1.55,1.72,.05,.33,.05,.33,.37,.23,.67-.2,1.33-.45,1.98-.71,.17-.05,.28-.21,.26-.39,0-.54,0-1.07,0-1.74m-8.59,.82h.96c.82,0,.83,0,1.26-.71,.69-1.09,1.1-2.34,1.17-3.63,.03-.17-.08-.33-.24-.36,0,0-.01,0-.02,0-1.08-.3-2.07-.84-2.91-1.57-.15-.13-.24-.14-.41,0-.84,.74-1.83,1.28-2.91,1.57-.18,.02-.3,.18-.28,.36,0,.01,0,.02,0,.03,.1,1.51,.64,2.96,1.54,4.17,.08,.11,.2,.16,.33,.15h1.5m0,1.17h-3.85c-.5-.05-.95,.32-1,.82,0,.07,0,.14,0,.21-.02,.14,.07,.28,.22,.3,0,0,.01,0,.02,0,1.34,.29,2.71,.46,4.08,.5,.92,.02,1.84-.01,2.75-.11,.81-.09,1.61-.21,2.4-.39,.14-.01,.25-.14,.24-.28,0,0,0-.01,0-.02,.06-.5-.29-.96-.8-1.02-.07,0-.14,0-.2,0h-3.85m0-11.86h-2.02c-.31,0-.34,.03-.3,.35,.13,1.2,.25,2.41,.36,3.61,.02,.22,.06,.28,.27,.15,.42-.28,.81-.59,1.17-.94,.19-.29,.58-.37,.87-.18,.07,.05,.14,.11,.18,.18,.36,.36,.76,.68,1.19,.96,.18,.11,.22,.07,.24-.13,.11-1.21,.24-2.42,.37-3.64,.03-.32,.01-.35-.3-.35h-2.02"/>
          <path id="Trazado_1725" data-name="Trazado 1725" class="cls-4" d="M19.53,27.35c0-.31,.27-.56,.58-.55,.31,0,.56,.27,.55,.58,0,.31-.26,.55-.56,.55-.31,0-.57-.26-.56-.58"/>
          <path id="Trazado_1726" data-name="Trazado 1726" class="cls-4" d="M20.09,18.43h-1.23c-.45,0-.71-.21-.71-.58s.25-.59,.69-.59c.84,0,1.67,0,2.51,0,.31-.04,.6,.17,.66,.48,.06,.31-.14,.62-.46,.68-.05,.01-.11,.01-.16,0-.44,.01-.87,0-1.31,0h0Z"/>
        </g>
      </g>
    </g>
  </g>
</svg>