<?xml version="1.0" encoding="UTF-8"?>
<svg id="Capa_1" data-name="Capa 1" xmlns="http://www.w3.org/2000/svg" viewBox="0 0 40.13 40.13">
  <defs>
    <style>
      .cls-1 {
        fill: #fff;
      }

      .cls-2 {
        fill: #ffa953;
      }
    </style>
  </defs>
  <g id="Filtro_Hidrantes" data-name="Filtro Hidrantes">
    <circle id="Elipse_74" data-name="Elipse 74" class="cls-1" cx="20.07" cy="20.07" r="20.07"/>
    <g id="Grupo_990" data-name="Grupo 990">
      <path id="Trazado_1711" data-name="Trazado 1711" class="cls-2" d="M19.59,33.75h-6.24c-.72,0-1.03-.31-1.03-1.03v-.22c0-.88,.23-1.12,1.09-1.16,.22,0,.29-.09,.29-.3,0-.66,0-1.32,0-1.97,.02-.15-.08-.29-.23-.31,0,0,0,0,0,0-.37-.08-.65-.4-.67-.78-.05-.35-.05-.71,.01-1.06,.05-.34,.3-.62,.64-.7,.16-.02,.27-.15,.25-.31,0,0,0,0,0-.01,0-1.07,0-2.13,0-3.2,0-.21-.07-.31-.29-.3-.28,.01-.56,0-.85,0-.27,0-.52-.12-.68-.33-.23-.19-.55-.26-.83-.17-.12,.06-.13,.18-.14,.29-.03,.57-.51,1.01-1.08,1-.58-.05-1.02-.54-1.01-1.12-.01-.35-.01-.71,0-1.07,.01-.28-.07-.41-.37-.38-.19,.02-.38,0-.56,0-.21,.03-.4-.11-.43-.32,0-.03,0-.05,0-.08-.01-.75-.01-1.51,0-2.26-.01-.2,.14-.37,.34-.38,.02,0,.05,0,.07,0,.22,0,.44,0,.66,0s.3-.08,.3-.29c0-.39,0-.77,0-1.16-.02-.57,.4-1.06,.97-1.11,.57-.04,1.07,.39,1.12,.96,0,0,0,.02,0,.02,.02,.13,0,.31,.18,.32,.24,.01,.54,.13,.71-.1,.26-.34,.68-.51,1.1-.45,.79,.01,.79,0,.79-.79v-.22c.02-.21,.01-.42-.04-.62-.09-.21-.36-.07-.54-.12-.4-.11-.65-.51-.57-.91,.2-1.05,.69-2.03,1.42-2.82,.79-.87,1.77-1.54,2.87-1.97,.2-.08,.29-.19,.27-.39,0-.06,0-.13,0-.19,0-.62,.18-.79,.81-.8s.56,.03,.57-.59v-.63c-.02-.18,.1-.34,.28-.36,.02,0,.04,0,.07,0,.53,0,1.07,0,1.6,0,.23,0,.33,.15,.34,.37,0,.3,0,.61,0,.91,0,.21,.08,.31,.29,.3,.16,0,.31,0,.47,0,.41,.03,.64,.23,.6,.64-.07,.39,.18,.78,.57,.87,1.56,.63,2.83,1.82,3.56,3.33,.2,.42,.35,.88,.42,1.34,.09,.4-.16,.79-.56,.88-.06,.01-.12,.02-.19,.02-.35,0-.43,.13-.41,.44,.02,.34,.01,.69,0,1.03,0,.2,.08,.29,.28,.28,.22,0,.44,0,.66,0,.36-.04,.72,.12,.93,.42,.26,.15,.56,.19,.85,.11,.09-.07,.07-.17,.08-.26,0-.57,.46-1.03,1.03-1.03,0,0,0,0,.01,0,.58,0,1.04,.46,1.05,1.04,0,0,0,.02,0,.03,.01,.4,.01,.8,0,1.19,0,.23,.07,.33,.31,.32,.21-.01,.42,0,.63,0,.2-.03,.39,.1,.43,.31,0,.03,0,.05,0,.08,.01,.75,.01,1.5,0,2.26,0,.2-.15,.37-.35,.38-.02,0-.04,0-.06,0-.22,0-.44,0-.66,0s-.3,.08-.3,.3c0,.41,.01,.82,0,1.22,0,.43-.28,.82-.68,.97-.37,.16-.79,.07-1.08-.21-.21-.16-.33-.42-.32-.69,.01-.28-.12-.36-.38-.35-.26-.04-.52,.07-.68,.28-.14,.18-.36,.27-.59,.25-.29,0-.58,0-.88,0-.19,0-.28,.06-.28,.27,0,1.08,0,2.15,0,3.23-.02,.15,.07,.29,.22,.31,0,0,0,0,0,0,.41,.09,.71,.47,.7,.89,.01,.21,0,.42,0,.63,.07,.48-.25,.93-.72,1.03-.14,.03-.23,.16-.21,.3,0,.67,0,1.34,0,2.01,0,.21,.08,.27,.28,.28,.87,.04,1.1,.28,1.1,1.15v.31c.05,.47-.29,.89-.76,.94-.07,0-.13,0-.2,0h-6.33m-5.24-13.65v5.61q0,.45,.46,.45h9.62c.43,0,.44,0,.44-.44,0-3.75,0-7.5,0-11.25,0-.31-.08-.42-.4-.42-3.24,.01-6.48,.01-9.72,0-.31,0-.42,.08-.41,.4,.01,1.88,0,3.76,0,5.64m5.26,11.24c1.63,0,3.26,0,4.89,0,.29,0,.38-.09,.37-.38-.02-.62-.01-1.23,0-1.85,0-.24-.08-.33-.33-.33-3.29,0-6.58,0-9.87,0-.25,0-.33,.09-.33,.33,.01,.61,.02,1.21,0,1.82-.01,.32,.09,.41,.41,.41,1.62-.01,3.24,0,4.86,0m.03-4.49h-5.48c-.7,0-.7,0-.69,.72,0,.56,.02,.58,.59,.58h10.9q.81,0,.8-.81c0-.46-.03-.49-.51-.49h-5.61m-.03,6.25h6.14c.13,0,.3,.05,.39-.07,.14-.26,.17-.57,.07-.85-.04-.24-.27-.19-.44-.19H13.47c-.14,0-.32-.05-.41,.08-.13,.26-.15,.57-.05,.85,.05,.23,.28,.17,.45,.17h6.14m-5.91-13.98v-2.38c0-.21-.07-.31-.29-.3s-.46,0-.69,0-.33,.09-.33,.32v4.66c0,.25,.11,.33,.34,.33,.21-.01,.42-.01,.62,0,.27,.02,.34-.1,.34-.35-.01-.76,0-1.52,0-2.28m11.82-.03c0,.57-.01,1.15,0,1.72,.02,1.12-.23,.91,.99,.94,.21,0,.31-.09,.31-.3v-4.67c0-.21-.1-.3-.31-.3s-.44,.01-.66,0c-.26-.02-.34,.1-.34,.35,.01,.75,0,1.5,0,2.25m-8.42-10.08c-.05,0-.11,0-.16,.02-.06,.02-.12,.04-.18,.07-1.01,.45-1.89,1.13-2.57,2-.46,.57-.78,1.24-.94,1.96-.06,.25,0,.38,.29,.37,.42-.01,.83,0,1.25,0,.48,0,.47,0,.55-.46,.19-1.25,.67-2.45,1.41-3.48,.1-.14,.21-.28,.35-.46m5.06-.06c.09,.21,.22,.4,.38,.57,.73,1.07,1.2,2.28,1.38,3.56,.04,.25,.13,.36,.4,.35,.43-.02,.86,0,1.28,0s.46-.04,.35-.46c-.57-1.85-1.97-3.34-3.79-4.01m-2.57,4.47c.24,0,.48,0,.72,0s.32-.09,.3-.32c-.02-.27-.04-.54-.06-.81-.07-.97-.23-1.93-.47-2.87-.07-.27-.21-.33-.47-.34-.22-.03-.42,.11-.46,.33,0,0,0,0,0,.01-.29,1.2-.46,2.42-.53,3.65-.02,.23,.05,.35,.31,.34,.22-.01,.44,0,.66,0m2.72,0c.22,0,.44-.01,.66,0,.25,.02,.33-.06,.28-.32-.19-1.27-.7-2.47-1.48-3.48-.12-.15-.26-.3-.41-.43-.16-.13-.38-.16-.56-.06-.17,.08-.01,.26,0,.39s.06,.25,.08,.37c.22,1.02,.34,2.06,.38,3.1,0,.29,.1,.45,.42,.42,.21-.02,.42,0,.63,0m-5.37,0c.22,0,.44-.01,.66,0,.28,.02,.38-.08,.38-.37,.03-1.19,.19-2.37,.46-3.53,.03-.13,.18-.3,0-.39-.17-.08-.38-.07-.54,.05-.07,.05-.13,.11-.18,.17-.94,1.07-1.55,2.4-1.73,3.82-.03,.2,.05,.26,.24,.25,.24-.01,.48,0,.72,0m12.78,5.71h0v-3.01c0-.25-.12-.41-.38-.41-.24,0-.35,.16-.36,.39,0,.08,0,.17,0,.25v5.14c0,.23,0,.46,.01,.69,0,.19,.16,.33,.35,.33,.01,0,.03,0,.04,0,.18,0,.33-.14,.34-.32,0,0,0-.01,0-.02,0-.1,0-.21,0-.31v-2.73m-20.2-.03v2.98c0,.24,.09,.42,.35,.43,.28,.01,.37-.18,.39-.43v-5.86c0-.33-.14-.51-.37-.51s-.37,.17-.37,.51v2.88m18.8,.03c0-.58-.01-1.17,0-1.75,0-.31-.17-.33-.4-.33s-.41,0-.41,.32c.01,1.17,.01,2.34,0,3.51,0,.32,.17,.32,.4,.32s.41,.01,.4-.31c-.02-.58,0-1.17,0-1.75m-16.6,0c0-.58,0-1.17,0-1.75,0-.28-.14-.33-.37-.33-.22,0-.39,.01-.39,.3,0,1.18,0,2.36,0,3.54,0,.3,.17,.3,.39,.3s.38-.03,.38-.32c-.01-.58,0-1.17,0-1.75m7.9-11.48c-.52,0-1.04,0-1.57,0-.27,0-.31,.13-.3,.35,0,.2-.03,.4,.28,.4,1.05,0,2.11,0,3.16,0,.31,0,.28-.19,.29-.4s-.03-.36-.3-.35c-.52,.01-1.04,0-1.57,0m10.79,11.48h0c0,.21,0,.42,0,.62,0,.25,.15,.26,.33,.25s.35,.02,.35-.23v-1.28c.01-.1-.05-.19-.14-.21-.35-.11-.53,.02-.54,.38v.47m-21.58-.04c0-.15,0-.29,0-.44,.02-.25-.03-.39-.34-.39-.28,0-.37,.11-.35,.37,.01,.31,.01,.63,0,.94,0,.25,.04,.39,.34,.39,.32,0,.37-.16,.35-.41-.01-.16,0-.31,0-.47M19.61,6.03q-.5,0-.5,.45t.49,.48c.49,0,.5,0,.5-.46s0-.47-.49-.47"/>
      <path id="Trazado_1712" data-name="Trazado 1712" class="cls-2" d="M23.75,19.11c0,2.29-1.88,4.14-4.17,4.13-2.29,0-4.14-1.88-4.13-4.17,0-2.28,1.86-4.13,4.15-4.13,2.29,0,4.15,1.85,4.16,4.14,0,.01,0,.02,0,.03m-.65,0c0-1.93-1.57-3.5-3.5-3.5-1.93,0-3.5,1.57-3.5,3.5s1.57,3.5,3.5,3.5c.01,0,.03,0,.04,0,1.92-.02,3.46-1.58,3.46-3.5"/>
      <path id="Trazado_1713" data-name="Trazado 1713" class="cls-2" d="M16.22,24.73c-.01,.19,0,.38-.03,.56-.01,.17-.15,.3-.32,.29-.17,0-.31-.12-.32-.29-.05-.37-.05-.75,0-1.12,.01-.17,.16-.3,.33-.29,0,0,.01,0,.02,0,.17,0,.3,.14,.29,.31,0,0,0,0,0,0,.01,.18,0,.35,0,.53h.02"/>
      <path id="Trazado_1714" data-name="Trazado 1714" class="cls-2" d="M23.68,24.77c0,.14,0,.33-.03,.52-.02,.18-.17,.3-.35,.29-.15-.01-.27-.14-.29-.29-.04-.37-.05-.75,0-1.12,0-.16,.13-.28,.28-.28,.16-.02,.32,.09,.35,.25,.04,.21,.05,.42,.04,.64"/>
      <path id="Trazado_1715" data-name="Trazado 1715" class="cls-2" d="M18.04,24.75v.5c.02,.16-.1,.31-.26,.33,0,0,0,0-.01,0-.16,.03-.32-.08-.35-.24,0-.01,0-.02,0-.04-.04-.38-.04-.77,0-1.15,0-.16,.14-.28,.3-.27,0,0,.02,0,.03,0,.16,0,.29,.13,.29,.29,0,0,0,0,0,.01,0,.19,0,.37,0,.56h0"/>
      <path id="Trazado_1716" data-name="Trazado 1716" class="cls-2" d="M19.92,24.74c0,.18,.01,.35,0,.53,0,.17-.13,.3-.29,.31-.01,0-.02,0-.03,0-.16,0-.3-.12-.3-.28,0,0,0-.01,0-.02-.01-.36-.01-.73,0-1.09,0-.16,.11-.29,.27-.3,.02,0,.03,0,.05,0,.17,0,.3,.13,.31,.29,0,.01,0,.02,0,.03,0,.18,0,.35,0,.53h0"/>
      <path id="Trazado_1717" data-name="Trazado 1717" class="cls-2" d="M21.16,24.71c0-.18,0-.35,0-.53,0-.16,.12-.29,.28-.29,0,0,.01,0,.02,0,.15-.02,.3,.09,.32,.24,0,.01,0,.02,0,.03,.02,.37,.02,.75,0,1.12,0,.17-.13,.3-.3,.3-.01,0-.03,0-.04,0-.2,0-.28-.15-.29-.34s0-.35,0-.53h0"/>
      <path id="Trazado_1718" data-name="Trazado 1718" class="cls-2" d="M23.68,29.97c0,.21,0,.39-.03,.56,0,.17-.14,.3-.31,.3-.17,.02-.32-.11-.34-.28,0,0,0-.01,0-.02-.04-.37-.04-.75,0-1.12,0-.17,.14-.3,.31-.29,0,0,0,0,0,0,.17,0,.31,.12,.32,.29,.03,.2,.03,.39,.03,.56"/>
      <path id="Trazado_1719" data-name="Trazado 1719" class="cls-2" d="M16.21,29.98c0,.17,.01,.33,0,.5,0,.18-.13,.34-.32,.35,0,0-.01,0-.02,0-.2,0-.3-.14-.32-.32-.04-.35-.04-.71,0-1.06,0-.18,.14-.33,.32-.33,0,0,.02,0,.03,0,.2,0,.29,.16,.31,.34s0,.35,0,.53h0Z"/>
      <path id="Trazado_1720" data-name="Trazado 1720" class="cls-2" d="M18.04,29.97c0,.18,0,.35,0,.53,.01,.17-.11,.31-.28,.32,0,0,0,0,0,0-.15,.03-.3-.08-.33-.23,0,0,0-.02,0-.03-.05-.39-.05-.79,0-1.18,.01-.16,.16-.28,.31-.26,0,0,.02,0,.02,0,.17,.01,.29,.15,.28,.32,0,0,0,0,0,0v.53"/>
      <path id="Trazado_1721" data-name="Trazado 1721" class="cls-2" d="M19.92,30c0,.18,.01,.35,0,.53,0,.17-.14,.3-.31,.29,0,0,0,0,0,0-.16,.01-.3-.11-.31-.27,0,0,0-.01,0-.02-.01-.38-.01-.75,0-1.12,0-.17,.14-.3,.31-.29,0,0,0,0,0,0,.17,0,.31,.12,.31,.28,0,.01,0,.02,0,.04,.01,.19,0,.38,0,.56h0"/>
      <path id="Trazado_1722" data-name="Trazado 1722" class="cls-2" d="M21.16,29.95c0-.18,0-.35,0-.53,0-.17,.12-.32,.29-.33s.32,.12,.33,.29c.04,.38,.04,.77,0,1.15,0,.16-.14,.29-.3,.28,0,0-.01,0-.02,0-.17,0-.3-.13-.3-.3-.01-.19,0-.38,0-.56h0"/>
      <path id="Trazado_1723" data-name="Trazado 1723" class="cls-2" d="M19.61,16.73c1.31,0,2.37,1.06,2.38,2.37,0,1.32-1.08,2.39-2.4,2.38s-2.39-1.08-2.38-2.4h0c.02-1.31,1.09-2.36,2.4-2.36m-1.71,2.37c-.04,.91,.67,1.68,1.58,1.72,.03,0,.06,0,.1,0,.94,.02,1.72-.72,1.74-1.66,0,0,0-.01,0-.02,.01-.94-.74-1.72-1.68-1.75-.94-.02-1.72,.72-1.74,1.66,0,.02,0,.03,0,.05"/>
    </g>
  </g>
</svg>