<?xml version="1.0" encoding="UTF-8"?>
<svg id="Capa_1" data-name="Capa 1" xmlns="http://www.w3.org/2000/svg" viewBox="0 0 43.75 35.33">
  <defs>
    <style>
      .cls-1 {
        fill: #fff;
      }
    </style>
  </defs>
  <g id="Nuevo_Aliado" data-name="Nuevo Aliado">
    <path id="Trazado_1514" data-name="Trazado 1514" class="cls-1" d="M41.13,35.33H1.97c-1.07,.02-1.95-.83-1.97-1.91,0-.08,0-.16,.01-.25,.15-1.92,.36-3.82,.56-5.75,.19-1.96,.38-3.94,.6-5.9,.24-2.36,.48-4.71,.71-7.07,.24-2.29,.44-4.57,.67-6.86,.21-2.04,.4-4.07,.63-6.11C3.28,.65,3.99,0,4.85,0h6.38c.86,0,1.58,.65,1.67,1.5,.24,2.04,.42,4.07,.63,6.11,.24,2.34,.46,4.67,.71,7.01,.24,2.32,.46,4.65,.67,6.96,.04,.46,.42,.81,.88,.81,.96,0,1.9-.02,2.86,0,.5,0,.69-.12,.67-.65-.04-1.31,0-2.61,0-3.92-.01-.69,.34-1.33,.92-1.69,5.21-3.13,10.41-6.26,15.62-9.38,1.44-.87,2.65-.19,2.65,1.5v5.21c0,.44-.17,.86-.48,1.18h0c-.64,.63-1.67,.62-2.3-.02-.3-.31-.47-.72-.47-1.15v-1.96c0-.65-2.42,1.27-2.42,1.27-3.03,2.04-6.21,3.84-9.51,5.4-.56,.21-.75,.44-.75,.88v4.73c.13,.89-.5,1.72-1.39,1.85-.16,.02-.31,.02-.47,0h-4.84c-.27,0-.5,.21-.5,.48,0,.03,0,.05,0,.08,.19,1.71,.35,3.4,.52,5.11,.04,.42,.39,.74,.81,.73h8.37c.35,0,.63-.29,.63-.63-.02-2.42,0-4.84,0-7.28,0-.98,.79-1.77,1.77-1.77h6.02c1.02,0,1.84,.83,1.84,1.84h0v7.22c0,.42,.1,.61,.56,.6,.31,0,2-.02,3.69-.02,.15,0,.42-7.34,.54-10.74,.04-.95,.82-1.69,1.77-1.69h0c.95,0,1.73,.76,1.75,1.71,.06,2.79,.13,8.34,.04,11.55-.04,1.36-1.15,2.45-2.52,2.46l-.06,.08Zm-33.1-3.27h4.1c.29,0,.54,0,.5-.42-.24-2.17-.44-4.36-.65-6.53-.24-2.36-.48-4.71-.71-7.07-.15-1.54-.31-3.06-.44-4.59-.04-.4-.21-.58-.65-.56-1.42,.02-2.82,.02-4.25,0-.48,0-.63,.19-.65,.61-.04,.6-.1,1.19-.15,1.79l-.81,7.95c-.27,2.77-.54,5.51-.82,8.28-.04,.4,.08,.54,.48,.52h4.08l-.02,.02Zm-.02-22.4h1.18c1.18,0,1.19,0,1.11-1.19-.13-1.56-.31-3.09-.44-4.65-.04-.42-.21-.61-.67-.6-.74,.04-1.49,.04-2.23,0-.5-.02-.69,.17-.73,.65-.15,1.77-.35,3.52-.52,5.26-.04,.38,.1,.52,.46,.5,.61-.02,1.23,0,1.86,0l-.03,.02Zm24.04,19.21v-2.77c0-.31-.1-.44-.42-.44h-2.22c-.35,0-.46,.13-.46,.48v5.48c0,.35,.12,.48,.46,.48,.73,0,1.46-.02,2.17,0,.38,0,.5-.13,.48-.5v-2.73Z"/>
  </g>
</svg>