<?xml version="1.0" encoding="UTF-8"?>
<svg id="Capa_1" data-name="Capa 1" xmlns="http://www.w3.org/2000/svg" viewBox="0 0 41.8 40">
  <defs>
    <style>
      .cls-1 {
        fill: #7676ff;
      }
    </style>
  </defs>
  <path class="cls-1" d="M22.26,14.73H7.89c-.67,0-1.21-.54-1.21-1.21s.54-1.21,1.21-1.21h14.36c.67,0,1.21,.54,1.21,1.21s-.54,1.21-1.21,1.21Z"/>
  <path class="cls-1" d="M22.26,19.58H7.89c-.67,0-1.21-.54-1.21-1.21s.54-1.21,1.21-1.21h14.36c.67,0,1.21,.54,1.21,1.21s-.54,1.21-1.21,1.21Z"/>
  <path class="cls-1" d="M22.26,24.43H7.89c-.67,0-1.21-.54-1.21-1.21s.54-1.21,1.21-1.21h14.36c.67,0,1.21,.54,1.21,1.21s-.54,1.21-1.21,1.21Z"/>
  <g>
    <path class="cls-1" d="M21,37.06H8.15c-4.49,0-8.15-3.66-8.15-8.15V9.3C0,4.8,3.66,1.15,8.15,1.15H25.17c4.49,0,8.15,3.66,8.15,8.15v1.94c0,.67-.54,1.21-1.21,1.21s-1.21-.54-1.21-1.21v-1.94c0-3.16-2.57-5.74-5.74-5.74H8.15c-3.16,0-5.74,2.57-5.74,5.74V28.91c0,3.16,2.57,5.74,5.74,5.74h12.85c.67,0,1.21,.54,1.21,1.21s-.54,1.21-1.21,1.21Z"/>
    <g>
      <path class="cls-1" d="M28.66,27.28c-.25,.44-.52,.87-.73,1.33-.13,.27-.28,.36-.58,.37-.72,.04-1.09,.55-1.4,1.12-.42,.77-.85,1.54-1.27,2.31-.54,1-1.11,1.99-1.61,3-.5,1-.15,2.39,.69,3.01,1.38,1.01,3.12,.61,3.93-.9,.65-1.2,1.32-2.39,1.97-3.59,.34-.62,.68-1.23,.98-1.86,.24-.51,.2-1.02-.15-1.49-.08-.11-.07-.2,0-.31,.28-.49,.55-.99,.82-1.49l-2.65-1.5Z"/>
      <path class="cls-1" d="M33.71,29.25c-.95,0-1.89-.18-2.81-.53-2.1-.81-3.62-2.25-4.52-4.29-.64-1.45-.84-3-.57-4.59,.02-.11,.04-.23,.07-.35,.13-.51,.52-.83,.99-.83h.05l.15,.02c.6,.12,.95,.66,.83,1.27-.14,.71-.17,1.28-.1,1.8,.3,2.27,1.45,3.89,3.4,4.81,.85,.4,1.71,.61,2.56,.61,1.12,0,2.24-.36,3.32-1.08,1.68-1.11,2.56-2.73,2.6-4.8,.04-1.76-.6-3.26-1.89-4.45-1.16-1.07-2.51-1.62-4-1.62-.38,0-.77,.03-1.16,.1-.63,.11-1.07,.25-1.44,.45-.2,.11-.42,.17-.64,.17h0c-.5,0-.93-.31-1.04-.76-.04-.19-.12-.82,.76-1.28,.27-.14,.57-.25,.87-.34,.84-.28,1.69-.42,2.52-.42h.15c1.64,.05,3.13,.52,4.43,1.4,1.35,.91,2.34,2.14,2.94,3.64,.58,1.44,.73,2.95,.44,4.51-.23,1.26-.76,2.43-1.56,3.46-1.03,1.33-2.39,2.25-4.03,2.75-.79,.24-1.58,.36-2.36,.36Z"/>
      <path class="cls-1" d="M28.15,17.97c-.54,0-1.06-.47-1.08-1-.02-.6,.49-1.12,1.09-1.12,.58,0,.99,.44,.98,1.05,0,.57-.46,1.05-1,1.06Z"/>
    </g>
  </g>
</svg>