<?xml version="1.0" encoding="UTF-8"?>
<svg id="Capa_1" data-name="Capa 1" xmlns="http://www.w3.org/2000/svg" viewBox="0 0 41.8 40">
  <defs>
    <style>
      .cls-1 {
        fill: #7676ff;
      }
    </style>
  </defs>
  <path class="cls-1" d="M20.03,37.64c-1.57-.23-3.14-.45-4.64-.98-1.21-.42-2.41-.87-3.61-1.32-.54-.21-.75-.61-.59-1.06,.16-.47,.6-.65,1.17-.45,1.54,.54,3.04,1.2,4.64,1.6,3.04,.77,6.1,.78,9.18,.21,3.3-.61,6.6-1.22,9.91-1.73,1.14-.17,2.32-.05,3.49-.06,.68,0,.68,0,.68-.66,0-1.7,0-3.41,0-5.11q0-.66-.68-.66c-.76,0-1.52-.03-2.28,0-.61,.03-1.12-.14-1.6-.5-.48-.37-.99-.71-1.5-1.04-2.65-1.74-5.47-2.02-8.32-.64-1.63,.79-3.24,1.24-5.05,1.09-.8-.07-1.62-.02-2.43,0-1.28,.02-2.33,.89-2.65,2.11-.11,.44,.02,.57,.46,.57,2.58-.01,5.16,0,7.75,0,.2,0,.41,0,.6,.04,.41,.1,.65,.37,.65,.79,0,.43-.25,.69-.65,.79-.16,.04-.34,.03-.5,.03-2.7,0-5.4,0-8.1,0-.9,0-1.72-.34-2.56-.57-3.16-.83-6.32-1.69-9.48-2.54-.2-.05-.39-.11-.59-.13-.82-.11-1.42,.27-1.63,1.02-.19,.67,.16,1.37,.9,1.65,1.85,.72,3.72,1.42,5.58,2.12,.38,.14,.76,.27,1.13,.43,.51,.22,.7,.62,.54,1.04-.17,.46-.59,.66-1.12,.47-2.31-.86-4.62-1.7-6.91-2.62-1.48-.6-2.16-2.27-1.64-3.75,.53-1.52,2.08-2.36,3.65-1.95,3.21,.85,6.42,1.7,9.63,2.58,.44,.12,.63,.11,.75-.42,.48-2.03,2.21-3.32,4.44-3.35,1.23-.02,2.46-.02,3.7,0,.59,.01,1.12-.13,1.65-.38,1.11-.53,2.22-1.08,3.44-1.31,2.61-.49,5.07-.08,7.33,1.33,.39,.24,.79,.47,1.13,.77,.65,.57,1.39,.75,2.24,.69,.84-.06,1.69,0,2.53-.02,.45-.01,.83,.1,1.14,.43v8.81c-.25,.4-.64,.51-1.09,.51-1.15,0-2.29,0-3.44,0-.49,0-.97,0-1.46,.09-1.82,.33-3.65,.65-5.47,.96-2.12,.36-4.24,.72-6.37,1.08h-3.95Z"/>
  <g id="Grupo_1300" data-name="Grupo 1300">
    <g id="Grupo_1089" data-name="Grupo 1089">
      <g id="Rectángulo_501" data-name="Rectángulo 501">
        <path class="cls-1" d="M8.58,28.43V8.87c0-3.59,2.92-6.51,6.51-6.51h13.55c3.59,0,6.51,2.92,6.51,6.51v12.01s.09,.87-.82,.87c-.8,0-.81-.87-.81-.87V8.87c0-2.69-2.19-4.88-4.88-4.88H15.1c-2.69,0-4.88,2.19-4.88,4.88V28.43h-1.63Z"/>
      </g>
      <g id="Elipse_84" data-name="Elipse 84">
        <circle class="cls-1" cx="15.34" cy="9.86" r="1.25"/>
      </g>
      <g id="Elipse_85" data-name="Elipse 85">
        <circle class="cls-1" cx="15.34" cy="14.94" r="1.25"/>
      </g>
      <g id="Elipse_86" data-name="Elipse 86">
        <circle class="cls-1" cx="15.34" cy="20.16" r="1.25"/>
      </g>
      <g id="Trazado_1759" data-name="Trazado 1759">
        <path class="cls-1" d="M30.21,9.21h-12.32c-.35,0-.64-.29-.64-.64s.29-.64,.64-.64h12.32c.35,0,.64,.29,.64,.64s-.29,.64-.64,.64Z"/>
      </g>
      <g id="Trazado_1762" data-name="Trazado 1762">
        <path class="cls-1" d="M30.21,14.43h-12.32c-.35,0-.64-.29-.64-.64s.29-.64,.64-.64h12.32c.35,0,.64,.29,.64,.64s-.29,.64-.64,.64Z"/>
      </g>
      <g id="Trazado_1764" data-name="Trazado 1764">
        <path class="cls-1" d="M30.21,19.65h-12.32c-.35,0-.64-.29-.64-.64s.29-.64,.64-.64h12.32c.35,0,.64,.29,.64,.64s-.29,.64-.64,.64Z"/>
      </g>
      <g id="Trazado_1760" data-name="Trazado 1760">
        <path class="cls-1" d="M27.81,11.31h-9.74c-.35,0-.64-.29-.64-.64s.29-.64,.64-.64h9.74c.35,0,.64,.29,.64,.64s-.29,.64-.64,.64Z"/>
      </g>
      <g id="Trazado_1761" data-name="Trazado 1761">
        <path class="cls-1" d="M27.81,16.53h-9.74c-.35,0-.64-.29-.64-.64s.29-.64,.64-.64h9.74c.35,0,.64,.29,.64,.64s-.29,.64-.64,.64Z"/>
      </g>
      <g id="Trazado_1763" data-name="Trazado 1763">
        <path class="cls-1" d="M27.81,21.75h-9.74c-.35,0-.64-.29-.64-.64s.29-.64,.64-.64h9.74c.35,0,.64,.29,.64,.64s-.29,.64-.64,.64Z"/>
      </g>
    </g>
  </g>
</svg>