<?xml version="1.0" encoding="UTF-8"?>
<svg id="Capa_1" data-name="Capa 1" xmlns="http://www.w3.org/2000/svg" viewBox="0 0 41.8 40">
  <defs>
    <style>
      .cls-1 {
        fill: #fff;
      }
    </style>
  </defs>
  <path class="cls-1" d="M40.08,21.63c-.41,0-.8-.14-1.12-.42-.11-.1-.22-.2-.32-.31L21.67,3.94c-.28-.28-.54-.42-.79-.42s-.51,.14-.79,.42L3.1,20.94c-.29,.29-.74,.67-1.37,.67-.13,0-.26-.02-.4-.05C.51,21.36,0,20.69,0,19.85c-.02-.6,.32-1.03,.63-1.33C.63,18.52,15.48,3.67,17.68,1.47c.82-.82,1.72-1.27,2.75-1.38,.17-.02,.33-.03,.49-.03,1.1,0,2.08,.39,2.9,1.16,.49,.46,.96,.94,1.44,1.42l15.87,15.87c.38,.38,.8,.92,.63,1.72-.17,.82-.86,1.4-1.69,1.4Z"/>
  <path class="cls-1" d="M30.85,40.06c-1.64,0-3.23-.59-4.46-1.66-1.47-1.27-2.31-3.11-2.31-5.04v-2.91c0-1.71-1.43-3.11-3.18-3.12-1.75,0-3.18,1.4-3.18,3.12v2.91c0,1.93-.84,3.77-2.31,5.04-1.23,1.07-2.82,1.66-4.46,1.66-3.73,0-6.77-3.01-6.77-6.7v-9.68c0-.99,.8-1.79,1.79-1.79s1.79,.8,1.79,1.79v9.68c0,1.72,1.43,3.12,3.18,3.12,.77,0,1.52-.28,2.1-.78,.73-.7,1.08-1.5,1.08-2.34v-2.91c0-3.65,2.97-6.63,6.64-6.7h.12c3.73,0,6.76,3.01,6.76,6.7v2.91c0,.84,.35,1.64,.99,2.25l.05,.05v.02c.66,.54,1.39,.8,2.14,.8,1.76,0,3.18-1.4,3.18-3.12v-9.68c0-.99,.8-1.79,1.79-1.79s1.79,.8,1.79,1.79v9.68c0,3.69-3.04,6.7-6.77,6.7Z"/>
  <circle class="cls-1" cx="20.9" cy="19.92" r="2.58"/>
</svg>