<?xml version="1.0" encoding="UTF-8"?>
<svg id="Capa_1" data-name="Capa 1" xmlns="http://www.w3.org/2000/svg" viewBox="0 0 41.8 40">
  <defs>
    <style>
      .cls-1 {
        fill: #e9e9e9;
        stroke: #e9e9e9;
        stroke-width: .5px;
      }
    </style>
  </defs>
  <g id="Ayuda_mutua" data-name="Ayuda mutua">
    <path id="Trazado_1509" data-name="Trazado 1509" class="cls-1" d="M0,31.35c.17-.2,.32-.39,.51-.58,2.42-2.43,4.85-4.86,7.28-7.28,.28-.28,.29-.44,0-.7-.48-.44-.93-.9-1.35-1.4-1.13-1.25-1.04-3.19,.22-4.32,.27-.25,.59-.44,.94-.58,.3-.13,.37-.23,.28-.55-.47-1.6,.42-3.28,2.01-3.78,.28-.09,.36-.18,.31-.47-.3-1.51,.59-3,2.05-3.47,.32-.1,.38-.23,.32-.54-.29-1.68,.84-3.27,2.51-3.55,.43-.07,.88-.05,1.3,.06,.24,.06,.32,.03,.24-.24-.13-.64-.16-1.29-.08-1.94,.02-.53,.42-.82,1.06-.82h6.2c.37,0,.73,.05,1.08,.14,.98,.21,1.89,.69,2.61,1.38,.16,.18,.42,.23,.63,.13,1.59-.6,3.38,.2,3.98,1.79,.2,.52,.25,1.09,.15,1.64-.05,.3,.03,.39,.3,.48,1.47,.45,2.37,1.94,2.09,3.45-.05,.3,0,.42,.3,.52,1.59,.49,2.49,2.18,2,3.78,0,.03-.02,.05-.02,.08-.07,.25-.02,.35,.22,.45,1.6,.57,2.43,2.33,1.86,3.93-.14,.38-.35,.73-.62,1.03l-.13,.16c-2.85,2.84-5.61,5.78-8.58,8.49-1.95,1.75-4.42,2.8-7.04,2.99-.11,0-.21,.02-.31,.06-.2,.07-.4,.22-.43,.39-.03,.2,.24,.22,.39,.28,.88,.39,1.84,.56,2.8,.48,.39-.06,.79,.08,1.07,.36,1.41,1.41,2.81,2.8,4.21,4.21,.19,.16,.3,.39,.33,.63,.04,.3-.1,.6-.36,.77-.26,.19-.6,.21-.88,.05-.19-.11-.36-.25-.5-.42-1.19-1.19-2.38-2.36-3.55-3.55-.2-.23-.5-.35-.81-.33-1.3,.03-2.59-.31-3.71-.97-.19-.16-.46-.13-.62,.06,0,.01-.02,.02-.03,.04-1.56,1.59-3.14,3.17-4.71,4.75-.15,.16-.32,.3-.5,.42-.32,.2-.74,.15-1-.12-.28-.27-.33-.7-.13-1.04,.09-.14,.19-.26,.31-.37,2.28-2.3,4.58-4.59,6.86-6.89,.26-.28,.62-.45,1-.46,2.69-.13,5.23-1.27,7.12-3.18,2.6-2.57,5.18-5.16,7.76-7.76,.48-.41,.64-1.08,.38-1.66-.24-.52-.78-.84-1.35-.8-.36,.03-.7,.2-.96,.46l-.83,.83c-.29,.38-.82,.45-1.2,.16-.38-.29-.45-.82-.16-1.2,.05-.07,.11-.12,.17-.17,.66-.67,1.31-1.31,1.97-1.98,.38-.38,.5-.96,.3-1.46-.17-.5-.62-.85-1.15-.89-.44-.04-.87,.12-1.16,.45l-1.78,1.78c-.12,.13-.26,.24-.4,.35-.32,.23-.76,.19-1.04-.09-.29-.29-.33-.74-.09-1.07,.1-.13,.2-.25,.32-.36l2.47-2.47c.3-.26,.5-.61,.55-1,.07-.57-.22-1.12-.73-1.38-.54-.27-1.18-.17-1.61,.25-.87,.85-1.72,1.72-2.58,2.57-.14,.15-.29,.28-.46,.39-.32,.22-.76,.18-1.04-.1-.27-.28-.32-.72-.1-1.05,.1-.16,.23-.3,.37-.43,1.1-1.1,2.19-2.2,3.3-3.3,.58-.49,.66-1.37,.17-1.95-.42-.5-1.15-.64-1.72-.32-.21,.12-.4,.28-.57,.46-1.59,1.59-3.18,3.19-4.79,4.77-.21,.13-.27,.41-.14,.62,.01,.02,.03,.04,.04,.06,.88,1.44,.42,3.33-1.02,4.2-.39,.24-.84,.39-1.3,.43-.27,.03-.39,.13-.43,.42-.13,1.44-1.26,2.59-2.7,2.76-.29,.05-.44,.13-.48,.46-.13,1.43-1.26,2.57-2.69,2.71-.27,0-.49,.22-.5,.5-.19,1.68-1.71,2.89-3.39,2.7-.31-.04-.62-.12-.91-.25-.28-.12-.39,0-.55,.16-2.43,2.43-4.87,4.87-7.3,7.31l-.25,.25c-.66,.57-1.12,.53-1.64-.13v-.65H0ZM14.2,7.14c.02,.43,.21,.84,.53,1.13,1.55,1.53,3.08,3.08,4.61,4.61,.09,.09,.19,.18,.3,.27,.61,.45,1.46,.32,1.91-.29,.12-.16,.21-.35,.24-.56,.1-.53-.09-1.07-.51-1.42-1.52-1.51-3.03-3.03-4.56-4.56-.13-.13-.28-.25-.44-.36-.42-.27-.95-.28-1.38-.02-.43,.24-.7,.69-.7,1.18h-.01Zm5.54-.31l-.03,.1c.59,.59,1.19,1.18,1.78,1.76,.15,.16,.25,.13,.39-.01l4.33-4.33c.18-.18,.18-.32,0-.5-.58-.54-1.33-.86-2.12-.91-1.83-.05-3.67-.02-5.51-.02-.28,0-.33,.14-.32,.38,.07,.88,.72,1.6,1.58,1.76,.32,.05,.64,.08,.97,.08,.59-.05,1.18-.05,1.78,0,.44,.04,.77,.44,.73,.88,0,.03,0,.05-.01,.08-.06,.45-.47,.77-.92,.73h-2.62Zm-1.11,8.28c0-.38-.18-.74-.47-.98-1.3-1.29-2.6-2.6-3.89-3.89-.08-.08-.16-.15-.24-.22-.41-.34-.98-.39-1.44-.13-.47,.23-.77,.72-.75,1.25,0,.41,.18,.8,.48,1.07,1.28,1.29,2.57,2.57,3.86,3.86,.09,.08,.18,.16,.28,.23,.42,.32,.99,.36,1.45,.1,.49-.24,.78-.77,.73-1.31h-.01Zm-3.17,3.15c-.02-.32-.15-.62-.38-.84-1.08-1.08-2.17-2.18-3.26-3.25-.51-.55-1.37-.59-1.92-.08-.02,.01-.03,.03-.04,.04-.55,.52-.57,1.39-.04,1.94,0,0,.01,.01,.02,.02,.22,.24,.45,.46,.68,.69,.85,.85,1.71,1.72,2.57,2.57,.53,.55,1.41,.57,1.96,.04,.3-.29,.46-.7,.42-1.12h0Zm-6.75-.27c-.53-.02-1.02,.29-1.22,.78-.26,.51-.16,1.13,.24,1.55,.69,.72,1.41,1.42,2.11,2.12,.5,.59,1.38,.66,1.97,.16,.59-.5,.66-1.38,.16-1.97-.04-.05-.09-.1-.15-.15-.67-.69-1.35-1.36-2.03-2.03-.28-.31-.67-.48-1.08-.47Z"/>
    <g id="Grupo_817" data-name="Grupo 817">
      <path id="Trazado_1510" data-name="Trazado 1510" class="cls-1" d="M41.52,28.66c.04,.36-.15,.71-.48,.87-.31,.16-.69,.09-.93-.16-.4-.38-.8-.77-1.19-1.16-.27-.27-.54-.52-.8-.81-.33-.33-.33-.87,0-1.2,.33-.32,.85-.32,1.18,0,.68,.65,1.35,1.33,2.01,2,.13,.12,.21,.28,.22,.46h0Z"/>
      <path id="Trazado_1511" data-name="Trazado 1511" class="cls-1" d="M40.67,29.89c-.29,0-.56-.12-.76-.32-.3-.28-.59-.57-.88-.85l-.53-.52c-.21-.2-.4-.39-.6-.61-.43-.44-.43-1.15,0-1.58,0,0,0,0,.01-.01,.43-.43,1.12-.44,1.56-.01,0,0,0,0,.01,.01,.62,.59,1.21,1.19,1.81,1.8l.2,.21c.19,.17,.29,.41,.3,.67,.04,.47-.22,.92-.66,1.12-.15,.08-.32,.12-.48,.12h.01Zm-1.96-3.66c-.31,0-.55,.26-.55,.57,0,.15,.06,.28,.17,.39,.18,.2,.38,.39,.57,.58l.53,.53c.29,.29,.57,.57,.87,.84,.16,.17,.42,.21,.62,.1,.23-.11,.36-.35,.32-.6h0c-.02-.1-.07-.19-.14-.27l-.2-.21c-.59-.6-1.19-1.2-1.8-1.79-.11-.1-.25-.16-.39-.16h0Z"/>
    </g>
    <g id="Grupo_818" data-name="Grupo 818">
      <path id="Trazado_1512" data-name="Trazado 1512" class="cls-1" d="M36.68,23.95c.47,0,.85,.37,.85,.84-.01,.45-.38,.82-.83,.83-.46,0-.83-.35-.85-.81-.02-.46,.34-.85,.8-.86,0,0,.01,0,.02,0h.01Z"/>
      <path id="Trazado_1513" data-name="Trazado 1513" class="cls-1" d="M36.69,25.91c-.61,0-1.11-.48-1.13-1.08-.01-.3,.1-.6,.3-.82,.21-.22,.5-.35,.81-.35h0c.31,0,.6,.12,.82,.33,.21,.21,.34,.5,.33,.8-.02,.61-.51,1.1-1.12,1.12,0,0-.01,0-.01,0Zm0-1.67h0c-.15,0-.29,.06-.39,.17-.1,.11-.15,.26-.15,.4,0,.29,.25,.53,.55,.52,0,0,0,0,0,0h0c.3,0,.53-.25,.54-.54,0-.14-.06-.28-.16-.38-.11-.1-.25-.16-.4-.16h.01Z"/>
    </g>
  </g>
</svg>