<?xml version="1.0" encoding="UTF-8"?>
<svg id="Capa_1" data-name="Capa 1" xmlns="http://www.w3.org/2000/svg" viewBox="0 0 41.8 40">
  <defs>
    <style>
      .cls-1 {
        fill: #fff;
        stroke: #fff;
        stroke-width: .5px;
      }
    </style>
  </defs>
  <g id="Nuevo_Aliado" data-name="Nuevo Aliado">
    <path id="Trazado_1514" data-name="Trazado 1514" class="cls-1" d="M22.94,38.05H1.1c-.6,.01-1.09-.47-1.1-1.06,0-.05,0-.09,0-.14,.09-1.07,.2-2.13,.31-3.2,.11-1.09,.21-2.2,.33-3.29,.13-1.32,.27-2.63,.4-3.94,.13-1.28,.25-2.55,.38-3.83,.12-1.14,.23-2.27,.35-3.41,.06-.47,.46-.83,.93-.84h3.56c.48,0,.88,.36,.93,.84,.13,1.14,.24,2.27,.35,3.41,.13,1.31,.26,2.6,.4,3.91s.26,2.59,.38,3.88c.02,.26,.24,.45,.49,.45,.54,0,1.06-.01,1.6,0,.28,0,.39-.06,.38-.36-.02-.73,0-1.46,0-2.19,0-.38,.19-.74,.51-.94,2.9-1.75,5.81-3.49,8.71-5.23,.8-.48,1.48-.11,1.48,.84v2.9c0,.24-.1,.48-.27,.65h0c-.36,.35-.93,.35-1.28-.01-.17-.17-.26-.4-.26-.64v-1.09c0-.36-1.35,.71-1.35,.71-1.69,1.14-3.46,2.14-5.3,3.01-.31,.12-.42,.25-.42,.49v2.64c.07,.5-.28,.96-.78,1.03-.09,.01-.17,.01-.26,0h-2.7c-.15,0-.28,.11-.28,.27,0,.02,0,.03,0,.05,.11,.95,.19,1.9,.29,2.85,.02,.23,.22,.41,.45,.41h4.67c.19,0,.35-.16,.35-.35-.01-1.35,0-2.7,0-4.06,0-.54,.44-.98,.98-.99,0,0,0,0,0,0h3.35c.57,0,1.03,.46,1.03,1.03v4.03c0,.24,.05,.34,.31,.33,.17,0,1.11-.01,2.06-.01,.09,0,.24-4.09,.3-5.99,.02-.53,.46-.95,.99-.94h0c.53,0,.96,.42,.98,.95,.03,1.55,.08,4.65,.02,6.44-.02,.76-.64,1.37-1.4,1.37l-.03,.04Zm-18.46-1.82h2.28c.16,0,.3,0,.28-.24-.13-1.21-.25-2.43-.36-3.64-.13-1.32-.27-2.63-.4-3.94-.09-.86-.17-1.7-.25-2.56-.02-.23-.12-.32-.36-.31-.79,.01-1.58,.01-2.37,0-.27,0-.35,.11-.36,.34-.02,.33-.05,.66-.09,1l-.45,4.44c-.15,1.54-.3,3.08-.46,4.62-.02,.23,.04,.3,.27,.29h2.27Zm-.01-12.48h.65c.65,0,.66,0,.62-.66-.08-.87-.17-1.73-.25-2.59-.02-.24-.12-.34-.38-.33-.41,.02-.83,.02-1.24,0-.28-.01-.39,.1-.41,.36-.09,.99-.19,1.96-.29,2.94-.02,.21,.05,.29,.26,.28,.34-.01,.69,0,1.04,0h-.01Zm13.41,10.73v-1.54c0-.17-.05-.25-.24-.25h-1.24c-.19,0-.26,.08-.26,.27v3.05c0,.19,.06,.27,.26,.27,.41,0,.81-.01,1.21,0,.21,0,.28-.08,.27-.28v-1.51h0Z"/>
    <path id="Trazado_1515" data-name="Trazado 1515" class="cls-1" d="M10.78,24.74c-.89-2.03-1.35-4.22-1.35-6.44-.02-8.94,7.21-16.2,16.15-16.22,8.94-.02,16.2,7.21,16.22,16.15,.02,8.62-6.72,15.75-15.34,16.2-.46,.02-.84-.34-.86-.8,0-.01,0-.02,0-.04h0c0-.45,.36-.81,.8-.83,8.02-.43,14.17-7.29,13.74-15.31-.43-8.02-7.29-14.17-15.31-13.74-8.02,.43-14.17,7.29-13.74,15.31,.09,1.74,.5,3.45,1.2,5.05,.18,.42-.02,.89-.43,1.07-.03,.01-.06,.02-.09,.03h0c-.4,.12-.83-.07-1-.45h0Z"/>
    <path id="Trazado_1516" data-name="Trazado 1516" class="cls-1" d="M19.47,18.85c-.32,.01-.63-.11-.86-.33-.22-.22-.34-.52-.33-.83,0-.31,.11-.6,.33-.81,.23-.22,.54-.33,.86-.32h12.58c.32-.01,.63,.11,.86,.33,.22,.22,.35,.51,.34,.83,0,.31-.12,.6-.34,.81-.23,.22-.54,.33-.86,.32,0,0-12.58,0-12.58,0Zm6.26,6.42c-.35,0-.68-.12-.93-.36-.25-.24-.39-.57-.39-.92V11.29c-.01-.36,.13-.7,.39-.95,.26-.25,.61-.38,.96-.36,.35-.02,.69,.12,.93,.36,.24,.26,.37,.6,.35,.95v12.65c.04,.69-.49,1.28-1.18,1.32-.05,0-.09,0-.14,0h0Z"/>
  </g>
</svg>