<?xml version="1.0" encoding="UTF-8"?>
<svg id="Capa_1" data-name="Capa 1" xmlns="http://www.w3.org/2000/svg" viewBox="0 0 110 109">
  <defs>
    <style>
      .cls-1 {
        fill: #73d36e;
      }

      .cls-2 {
        fill: #fff;
        stroke: #fff;
        stroke-width: .5px;
      }
    </style>
  </defs>
  <g id="modelacion_de_emergencias" data-name="modelacion de emergencias">
    <circle id="Elipse_82-4" data-name="Elipse 82-4" class="cls-1" cx="55.57" cy="54.64" r="54.43"/>
    <g id="SimulacioÌn">
      <g id="Grupo_820" data-name="Grupo 820">
        <path id="Trazado_1517" data-name="Trazado 1517" class="cls-2" d="M44.51,62.93h-13.8c-.45,.02-.83-.34-.84-.78-.02-.45,.34-.83,.78-.84,.02,0,.04,0,.06,0h13.81c.45,.02,.8,.39,.78,.84-.01,.43-.36,.77-.78,.78h0Z"/>
        <g id="Grupo_819" data-name="Grupo 819">
          <path id="Trazado_1518" data-name="Trazado 1518" class="cls-2" d="M59.43,66.89c-.66,0-1.18-.55-1.17-1.21,0-.66,.55-1.18,1.21-1.17,.65,0,1.18,.54,1.17,1.2,0,.66-.55,1.19-1.21,1.19Zm0-1.3s-.08,.05-.08,.1c0,.04,.04,.08,.08,.08,.04,0,.08-.04,.08-.08h0c0-.05-.03-.09-.08-.1h0Z"/>
          <path id="Trazado_1519" data-name="Trazado 1519" class="cls-2" d="M52.92,66.89c-.66,0-1.18-.55-1.17-1.21,0-.66,.55-1.18,1.21-1.17,.65,0,1.18,.54,1.17,1.2,0,.66-.55,1.19-1.21,1.19Zm0-1.3s-.08,.05-.08,.1c0,.04,.04,.08,.08,.08,.04,0,.08-.04,.08-.08h0c0-.05-.03-.09-.08-.1h0Z"/>
          <path id="Trazado_1520" data-name="Trazado 1520" class="cls-2" d="M56.17,66.89c-.66,0-1.18-.55-1.17-1.21,0-.66,.55-1.18,1.21-1.17,.65,0,1.18,.54,1.17,1.2,0,.66-.55,1.19-1.21,1.19Zm0-1.3s-.08,.05-.08,.1c0,.04,.04,.08,.08,.08,.04,0,.08-.04,.08-.08h0c0-.05-.03-.09-.08-.1h0Z"/>
        </g>
        <path id="Trazado_1521" data-name="Trazado 1521" class="cls-2" d="M72,58.73h-3.46c-1.57,.03-2.87-1.2-2.91-2.77v-10.18c-.01-.37-.32-.65-.68-.65h-.77c-.37,0-.67,.28-.68,.65v2.29c-.04,1.57-1.34,2.81-2.91,2.77h-.72c-1.57,.03-2.87-1.2-2.91-2.77v-4.61c-.02-.38-.34-.66-.72-.64-.35,.02-.63,.3-.64,.64v8.61c-.04,1.57-1.34,2.81-2.91,2.77h-.43c-1.57,.03-2.87-1.2-2.91-2.77v-1c-.01-.37-.32-.65-.68-.65h-.15c-1.57,.03-2.87-1.2-2.91-2.77v-2.97c-.01-.37-.32-.65-.68-.65h-.15c-.37,0-.67,.28-.68,.65v11.28c-.04,1.57-1.34,2.81-2.91,2.77h-1.51c-.59,.03-1.09-.42-1.12-1.01s.42-1.09,1.01-1.12c.04,0,.07,0,.11,0h1.51c.37,0,.67-.28,.68-.65v-11.28c.04-1.57,1.34-2.81,2.91-2.77h.15c1.57-.03,2.87,1.2,2.91,2.77v2.97c.01,.37,.32,.65,.68,.65h.15c1.57-.03,2.87,1.2,2.91,2.77v1c.01,.37,.32,.65,.68,.65h.43c.37,0,.67-.28,.68-.65v-8.61c.07-1.61,1.43-2.85,3.04-2.78,1.51,.07,2.71,1.27,2.78,2.78v4.61c.01,.37,.32,.65,.68,.65h.72c.37,0,.67-.28,.68-.65v-2.29c.04-1.57,1.34-2.81,2.91-2.77h.77c1.57-.03,2.87,1.2,2.91,2.77v10.19c.01,.37,.32,.65,.68,.65h3.46c.59-.03,1.09,.42,1.12,1.01,.03,.59-.42,1.09-1.01,1.12-.04,0-.07,0-.11,0v-.02Z"/>
      </g>
      <path id="Trazado_1522" data-name="Trazado 1522" class="cls-2" d="M55.57,82.16c-15.19,0-27.51-12.32-27.51-27.51s12.32-27.51,27.51-27.51,27.51,12.32,27.51,27.51h0c-.02,15.19-12.33,27.49-27.51,27.51Zm0-52.2c-13.64,0-24.69,11.05-24.69,24.69,0,13.64,11.05,24.69,24.69,24.69,13.64,0,24.69-11.05,24.69-24.69h0c-.01-13.63-11.06-24.68-24.69-24.69h0Z"/>
    </g>
  </g>
</svg>