<?xml version="1.0" encoding="UTF-8"?><svg id="Capa_1" xmlns="http://www.w3.org/2000/svg" viewBox="0 0 40.09 38.36"><defs><style>.cls-1{fill:#fff;}</style></defs><g><path class="cls-1" d="M5.15,14.23c-.74,0-1.34-.6-1.34-1.34s.6-1.34,1.34-1.34h7.91c.74,0,1.34,.6,1.34,1.34s-.6,1.34-1.34,1.34H5.15Z"/><path class="cls-1" d="M5.15,18.84c-.74,0-1.34-.6-1.34-1.34s.6-1.34,1.34-1.34h7.91c.74,0,1.34,.6,1.34,1.34s-.6,1.34-1.34,1.34H5.15Z"/><path class="cls-1" d="M5.15,23.44c-.74,0-1.34-.6-1.34-1.34s.6-1.34,1.34-1.34h7.91c.74,0,1.34,.6,1.34,1.34s-.6,1.34-1.34,1.34H5.15Z"/><path class="cls-1" d="M14.44,34.74c-3.97,0-7.2-3.23-7.2-7.2V10.67c0-3.97,3.23-7.2,7.2-7.2h14.63c3.97,0,7.2,3.23,7.2,7.2v.52c0,.68-.55,1.23-1.23,1.23s-1.23-.55-1.23-1.23v-.52c0-2.61-2.13-4.74-4.74-4.74H14.44c-2.61,0-4.74,2.13-4.74,4.74V27.53c0,2.61,2.13,4.74,4.74,4.74h11.05c.68,0,1.23,.55,1.23,1.23s-.55,1.23-1.23,1.23H14.44Z"/></g><g><path class="cls-1" d="M35.04,31.85c-.68,0-1.24-.56-1.24-1.24v-3.18c0-2.94-2.39-5.33-5.33-5.33s-5.33,2.39-5.33,5.33v3.18c0,.68-.56,1.24-1.24,1.24s-1.24-.56-1.24-1.24v-3.18c0-4.31,3.51-7.82,7.82-7.82s7.82,3.51,7.82,7.82v3.18c0,.68-.56,1.24-1.24,1.24Z"/><path class="cls-1" d="M28.46,21.9c-3.26,0-5.92-2.66-5.92-5.92s2.66-5.92,5.92-5.92,5.92,2.66,5.92,5.92-2.66,5.92-5.92,5.92Zm0-9.36c-1.9,0-3.44,1.54-3.44,3.44s1.54,3.44,3.44,3.44,3.44-1.54,3.44-3.44-1.54-3.44-3.44-3.44Z"/></g><path class="cls-1" d="M25.46,34.76c-.68,0-1.23-.55-1.23-1.23s.55-1.23,1.23-1.23h6.89c.81,0,1.47-.66,1.47-1.47v-3.15c0-.68,.55-1.23,1.23-1.23s1.23,.55,1.23,1.23v3.15c0,2.16-1.76,3.92-3.92,3.92h-6.89Z"/></svg>
