<?xml version="1.0" encoding="UTF-8"?>
<svg id="Capa_1" data-name="Capa 1" xmlns="http://www.w3.org/2000/svg" viewBox="0 0 71.99 66.24">
  <defs>
    <style>
      .cls-1 {
        fill: #98ed94;
      }
    </style>
  </defs>
  <g id="Grupo_1462" data-name="Grupo 1462">
    <path id="Trazado_2034" data-name="Trazado 2034" class="cls-1" d="M15.22,30.8c1.78-.52,2.15-1.64,1.86-3.42-.77-4.85,.57-7.74,4.03-9.37,3.42-1.6,6.69-.63,9.43,3.1,1.01,1.37,1.95,2.15,3.6,1.07,1.55-1.01,1.03-2.32,.5-3.59-2.24-5.3-9.58-7.7-15.36-5s-9.03,9.84-6.96,15.22c.5,1.3,1.11,2.51,2.89,1.99"/>
    <path id="Trazado_2035" data-name="Trazado 2035" class="cls-1" d="M10.42,32.41l-7.88,3.56c-.91,.45-1.99,.05-2.42-.89-.37-.97,.09-2.06,1.03-2.44l7.88-3.56c.91-.45,1.99-.05,2.42,.89,.37,.97-.09,2.06-1.03,2.44"/>
    <path id="Trazado_2036" data-name="Trazado 2036" class="cls-1" d="M47.12,15.82l-8.43,3.8c-.91,.45-1.99,.05-2.42-.89-.37-.97,.09-2.06,1.03-2.44l8.43-3.8c.91-.45,1.99-.05,2.42,.89,.37,.97-.09,2.06-1.03,2.44"/>
    <path id="Trazado_2037" data-name="Trazado 2037" class="cls-1" d="M10.53,20.63c-.45,.21-.96,.23-1.42,.06l-7.82-2.88c-.88-.31-1.34-1.3-1.04-2.2,.02-.05,.04-.1,.06-.15,.42-.96,1.47-1.44,2.43-1.1l7.82,2.88c.88,.31,1.34,1.3,1.04,2.21-.02,.05-.04,.1-.06,.15-.2,.47-.56,.84-1.02,1.04"/>
    <path id="Trazado_2038" data-name="Trazado 2038" class="cls-1" d="M30.9,11.42c-.45,.21-.96,.23-1.42,.06-.88-.31-1.34-1.3-1.04-2.21,.02-.05,.04-.1,.06-.15l3.33-7.91c.42-.96,1.47-1.44,2.43-1.1,.88,.31,1.34,1.3,1.04,2.2-.02,.05-.04,.1-.06,.15l-3.33,7.92c-.2,.47-.56,.84-1.02,1.04"/>
    <path id="Trazado_2039" data-name="Trazado 2039" class="cls-1" d="M19.02,11.94c-.91,.45-1.99,.05-2.42-.89l-3.18-7.63c-.37-.97,.09-2.06,1.03-2.44,.91-.45,1.99-.05,2.42,.89l3.18,7.63c.37,.97-.09,2.06-1.03,2.44"/>
  </g>
  <g id="Trazado_2002" data-name="Trazado 2002">
    <path class="cls-1" d="M62.96,66.24h-.44c-.43,0-42.75-.1-46.09,0-2.65,.07-7.33-2.71-10.33-7.37-3.26-5.05-3.52-10.94-.76-16.57,4.82-9.81,14.94-10.4,21.09-9.08,1.54-4.72,6.32-11.05,17.02-10.79,11.44,.26,15.84,10.65,16.83,17.4,4.05,.48,9.88,3.03,11.41,10.45,1.77,8.61-4.68,14.08-8.33,15.78l-.4,.19ZM21.34,36.7c-4.15,0-9.45,1.34-12.41,7.36-2.7,5.49-1.23,9.85,.47,12.54,2.33,3.68,5.92,5.63,6.9,5.63h.01c3.24-.1,40.76-.01,45.73,0,1.52-.83,7.12-4.41,5.74-11.16-1.54-7.5-8.91-7.36-9.22-7.34l-1.94,.06-.13-1.93s-.29-4.01-2.15-7.91c-2.33-4.89-6.03-7.42-10.97-7.53-11.94-.27-13.42,9.13-13.48,9.53l-.34,2.37-2.27-.74c-.23-.08-2.74-.87-5.94-.87Z"/>
  </g>
</svg>