<?xml version="1.0" encoding="UTF-8"?>
<svg id="Capa_1" data-name="Capa 1" xmlns="http://www.w3.org/2000/svg" viewBox="0 0 74.04 65.34">
  <defs>
    <style>
      .cls-1 {
        fill: #98ed94;
      }
    </style>
  </defs>
  <g id="Grupo_1462" data-name="Grupo 1462">
    <path id="Trazado_2035" data-name="Trazado 2035" class="cls-1" d="M17.7,33.93l-10.5-.24c-1.23,.01-2.2-.99-2.18-2.24,.11-1.25,1.18-2.21,2.41-2.14l10.5,.24c1.23-.01,2.2,.99,2.18,2.24-.11,1.25-1.18,2.21-2.41,2.14"/>
    <path id="Trazado_2036" data-name="Trazado 2036" class="cls-1" d="M66.62,35.01l-11.23-.25c-1.23,.01-2.2-.99-2.18-2.24,.11-1.25,1.18-2.21,2.41-2.14l11.23,.25c1.23-.01,2.2,.99,2.18,2.24-.11,1.25-1.18,2.21-2.41,2.14"/>
    <path id="Trazado_2037" data-name="Trazado 2037" class="cls-1" d="M24,21.08c-.6-.01-1.17-.25-1.59-.68l-7.06-7.26c-.8-.8-.79-2.12,.02-2.96,.05-.05,.09-.09,.14-.14,.96-.83,2.37-.8,3.24,.07l7.05,7.26c.8,.8,.79,2.12-.02,2.96-.05,.05-.09,.09-.14,.14-.46,.41-1.06,.62-1.66,.6"/>
    <path id="Trazado_2038" data-name="Trazado 2038" class="cls-1" d="M51.16,21.68c-.6-.01-1.17-.25-1.59-.68-.8-.8-.79-2.12,.02-2.96,.05-.05,.09-.09,.14-.14l7.8-6.92c.96-.83,2.37-.8,3.24,.07,.8,.8,.79,2.12-.02,2.96-.05,.05-.09,.09-.14,.14l-7.8,6.93c-.46,.41-1.06,.62-1.66,.6"/>
    <path id="Trazado_2039" data-name="Trazado 2039" class="cls-1" d="M37.86,16.01c-1.23,.01-2.2-.99-2.18-2.24l.52-10.03c.11-1.25,1.18-2.21,2.41-2.14,1.23-.01,2.2,.99,2.18,2.24l-.52,10.03c-.11,1.25-1.18,2.21-2.41,2.14"/>
  </g>
  <g id="Grupo_1462-2" data-name="Grupo 1462">
    <path id="Trazado_2037-2" data-name="Trazado 2037" class="cls-1" d="M50.12,44.26c.6,.01,1.17,.25,1.59,.68l7.06,7.26c.8,.8,.79,2.12-.02,2.96-.05,.05-.09,.09-.14,.14-.96,.83-2.37,.8-3.24-.07l-7.05-7.26c-.8-.8-.79-2.12,.02-2.96,.05-.05,.09-.09,.14-.14,.46-.41,1.06-.62,1.66-.6"/>
    <path id="Trazado_2038-2" data-name="Trazado 2038" class="cls-1" d="M22.96,43.66c.6,.01,1.17,.25,1.59,.68,.8,.8,.79,2.12-.02,2.96-.05,.05-.09,.09-.14,.14l-7.8,6.92c-.96,.83-2.37,.8-3.24-.07-.8-.8-.79-2.12,.02-2.96,.05-.05,.09-.09,.14-.14l7.8-6.93c.46-.41,1.06-.62,1.66-.6"/>
    <path id="Trazado_2039-2" data-name="Trazado 2039" class="cls-1" d="M36.26,49.33c1.23-.01,2.2,.99,2.18,2.24l-.52,10.03c-.11,1.25-1.18,2.21-2.41,2.14-1.23,.01-2.2-.99-2.18-2.24l.52-10.03c.11-1.25,1.18-2.21,2.41-2.14"/>
  </g>
  <path class="cls-1" d="M37.02,22.97c5.31,0,9.62,4.32,9.62,9.62s-4.32,9.62-9.62,9.62-9.62-4.32-9.62-9.62,4.32-9.62,9.62-9.62m0-5c-8.08,0-14.62,6.55-14.62,14.62s6.55,14.62,14.62,14.62,14.62-6.55,14.62-14.62-6.55-14.62-14.62-14.62h0Z"/>
</svg>