<?xml version="1.0" encoding="UTF-8"?>
<svg id="Capa_1" data-name="Capa 1" xmlns="http://www.w3.org/2000/svg" viewBox="0 0 40.79 28.32">
  <defs>
    <style>
      .cls-1 {
        fill: #5a5aff;
      }
    </style>
  </defs>
  <g id="Grupo_1431" data-name="Grupo 1431">
    <path id="Trazado_2012" data-name="Trazado 2012" class="cls-1" d="M19.29,10.33c-4.44,.35-8.44,4.22-8.67,8.3-.09,1.6,.55,2.44,2.29,2.44,2.33,0,4.67,0,7.01,0v.03c2.14,0,4.28,.05,6.42-.01,3.01-.08,3.73-.99,3.14-3.82-.85-4.12-5.53-7.31-10.19-6.94"/>
    <path id="Trazado_2017" data-name="Trazado 2017" class="cls-1" d="M36.22,24.62c-.39-.03-.78-.02-1.17-.02-9.92,0-19.84,0-29.76,.02-.97,0-1.93,.12-2.87,.34-.83,.17-1.37,.99-1.19,1.83,.13,.61,.61,1.09,1.23,1.2,.94,.21,1.91,.32,2.87,.32,4.96,.03,9.92,.01,14.88,.01h0c5.35-.01,10.7,0,16.04-.02,1.32,0,2.78-.23,2.86-1.73,.09-1.73-1.5-1.85-2.9-1.95"/>
    <path id="Trazado_2022" data-name="Trazado 2022" class="cls-1" d="M8.16,20.48H1.46c-.76,.05-1.41-.52-1.46-1.28-.05-.76,.52-1.41,1.28-1.46,.06,0,.12,0,.18,0h6.69c.76-.05,1.41,.52,1.46,1.28,.05,.76-.52,1.41-1.28,1.46-.06,0-.12,0-.18,0"/>
    <path id="Trazado_2023" data-name="Trazado 2023" class="cls-1" d="M39.32,20.48h-7.16c-.76,.05-1.41-.52-1.46-1.28-.05-.76,.52-1.41,1.28-1.46,.06,0,.12,0,.18,0h7.16c.76-.05,1.41,.52,1.46,1.28,.05,.76-.52,1.41-1.28,1.46-.06,0-.12,0-.18,0"/>
    <path id="Trazado_2024" data-name="Trazado 2024" class="cls-1" d="M11.74,12.37c-.38,0-.75-.14-1.03-.4L5.97,7.54c-.53-.49-.57-1.32-.09-1.85,.03-.03,.06-.06,.09-.09,.59-.53,1.48-.53,2.07,0l4.73,4.43c.54,.49,.57,1.32,.09,1.85-.03,.03-.06,.06-.09,.09-.28,.26-.65,.4-1.03,.4"/>
    <path id="Trazado_2025" data-name="Trazado 2025" class="cls-1" d="M29.04,12.37c-.38,0-.75-.14-1.03-.4-.54-.49-.57-1.32-.09-1.85,.03-.03,.06-.06,.09-.09l4.73-4.43c.59-.53,1.48-.53,2.07,0,.53,.49,.57,1.31,.09,1.85-.03,.03-.06,.06-.09,.09l-4.73,4.43c-.28,.26-.65,.4-1.03,.4"/>
    <path id="Trazado_2026" data-name="Trazado 2026" class="cls-1" d="M20.39,9.01c-.78,.02-1.44-.59-1.46-1.37V1.37c.05-.81,.75-1.42,1.56-1.37,.74,.05,1.32,.63,1.37,1.37V7.64c-.03,.78-.68,1.39-1.46,1.37"/>
  </g>
</svg>