<?xml version="1.0" encoding="UTF-8"?>
<svg id="Capa_1" data-name="Capa 1" xmlns="http://www.w3.org/2000/svg" viewBox="0 0 38.1 33.11">
  <defs>
    <style>
      .cls-1 {
        fill: #5a5aff;
      }
    </style>
  </defs>
  <g id="Grupo_1429" data-name="Grupo 1429">
    <path id="Trazado_2010" data-name="Trazado 2010" class="cls-1" d="M16.42,3.3c1.09-.4,2.45-.74,1.92-2.21-.49-1.34-1.79-1.15-2.98-.92-3.95,.91-6.71,4.47-6.62,8.52-.09,1.81,.61,3.57,1.91,4.82,.87,.91,1.92,1.41,3.05,.55,1.01-.77,.34-1.59-.18-2.41-2.54-3.92-1.56-6.7,2.9-8.35"/>
    <path id="Trazado_2016" data-name="Trazado 2016" class="cls-1" d="M34.92,19.58c-2.14-.05-4.29-.03-6.43-.03-1.75,.17-3.51-.16-5.08-.95-1.63-.83-2.55-2.61-2.29-4.41,.21-1.93,1.58-3.53,3.45-4.05,1.69-.6,3.57-.14,4.79,1.17,.82,.76,1.39,1.75,2.15,2.58,.52,.62,1.42,.77,2.11,.35,.59-.33,.86-1.04,.64-1.68-.21-1-.66-1.93-1.33-2.71-2.48-2.84-6.45-3.87-10.01-2.61-3.34,1.26-5.5,4.51-5.38,8.08,.41,3.78,3.3,6.83,7.05,7.43,2.01,.31,4.07,.31,6.11,.46,0-.03,0-.06,0-.09,1.36,0,2.73,.06,4.09-.02,1.43-.08,3.33,0,3.29-1.87-.04-1.68-1.83-1.61-3.18-1.64"/>
    <path id="Trazado_2018" data-name="Trazado 2018" class="cls-1" d="M29.72,29.92c-6.33-.04-12.65-.03-18.98-.03-1.56,.12-3.11-.18-4.52-.85-1.8-1.02-2.93-2.48-2.68-4.51,.18-2.04,1.63-3.74,3.62-4.22,1.89-.62,3.97-.07,5.3,1.4,.62,.69,1.09,1.49,1.38,2.37,.42,1.13,.88,2.19,2.38,1.78s1.21-1.71,1.07-2.78c-.11-.63-.33-1.24-.65-1.8-2.03-3.65-6.29-5.44-10.32-4.34C2.47,17.95-.15,21.51,0,25.49c.53,4.09,3.88,7.23,8,7.49,3.78,.23,7.59,.05,11.38,.05v.08c3.41,0,6.81,.02,10.22-.01,1.34-.01,3.13,.12,3.2-1.59,.07-1.85-1.8-1.57-3.09-1.58"/>
  </g>
</svg>