<?xml version="1.0" encoding="UTF-8"?>
<svg id="Capa_1" data-name="Capa 1" xmlns="http://www.w3.org/2000/svg" viewBox="0 0 26.35 14.59">
  <defs>
    <style>
      .cls-1 {
        fill: #5a5aff;
      }
    </style>
  </defs>
  <path id="Trazado_2046" data-name="Trazado 2046" class="cls-1" d="M1.33,8.12c2.72,.04,5.44,.12,8.15,.04,2.14-.06,3.02,.83,2.96,2.76-.02,.82,.01,1.64,.09,2.45,.05,.67,.25,1.28,1.34,1.21,.31-.14,.75-.33,1.17-.55,3.37-1.81,6.71-3.66,10.1-5.44,1.72-.91,1.48-1.62-.07-2.44-3.04-1.61-6.04-3.29-9.07-4.93-3.45-1.87-3.6-1.85-3.49,1.85,.08,2.76-1.05,3.77-3.94,3.56-2.41-.17-4.85-.02-7.28,.01-.57,0-1.31,.03-1.29,.75s.77,.71,1.34,.72"/>
</svg>