<?xml version="1.0" encoding="UTF-8"?>
<svg id="Capa_1" data-name="Capa 1" xmlns="http://www.w3.org/2000/svg" viewBox="0 0 33.65 32.15">
  <defs>
    <style>
      .cls-1 {
        fill: none;
      }

      .cls-2 {
        fill: #fff;
      }
    </style>
  </defs>
  <g id="Accion_descartar" data-name="Accion descartar">
    <g id="Elipse_62" data-name="Elipse 62">
      <circle class="cls-1" cx="16.82" cy="16.07" r="9.5"/>
      <path class="cls-2" d="M23.54,22.79c-3.7,3.7-9.73,3.7-13.44,0s-3.7-9.73,0-13.44,9.73-3.7,13.44,0,3.7,9.73,0,13.44ZM10.81,10.06c-3.31,3.31-3.31,8.71,0,12.02s8.71,3.31,12.02,0,3.31-8.71,0-12.02-8.71-3.31-12.02,0Z"/>
    </g>
    <g id="Grupo_921" data-name="Grupo 921">
      <g id="Trazado_1692" data-name="Trazado 1692">
        <path class="cls-2" d="M21.8,16.64c-.13,.13-.32,.2-.51,.2l-8.93-.03c-.41,0-.75-.34-.75-.75s.34-.75,.75-.75l8.93,.03c.41,0,.75,.34,.75,.75,0,.22-.09,.41-.24,.55Z"/>
      </g>
      <g id="Trazado_1693" data-name="Trazado 1693">
        <path class="cls-2" d="M17.32,21.09c-.13,.13-.32,.2-.51,.2-.41,0-.75-.34-.75-.75l.03-8.93c0-.41,.34-.75,.75-.75,.41,0,.75,.34,.75,.75l-.03,8.93c0,.22-.09,.41-.24,.55Z"/>
      </g>
    </g>
  </g>
</svg>