<?xml version="1.0" encoding="UTF-8"?><svg id="Vista_1" xmlns="http://www.w3.org/2000/svg" viewBox="0 0 67.44 63.24"><defs><style>.cls-1{fill:#fff;}</style></defs><path class="cls-1" d="M32.94,57.65H14.41c-.99,0-1.79-.8-1.79-1.79s.8-1.79,1.79-1.79h18.53c.99,0,1.79,.8,1.79,1.79s-.8,1.79-1.79,1.79Z"/><path class="cls-1" d="M51.47,57.65h-4.75c-.99,0-1.79-.8-1.79-1.79s.8-1.79,1.79-1.79h4.75c2.06,0,3.74-1.68,3.74-3.74s-1.68-3.74-3.74-3.74H14.41c-2.06,0-3.74,1.68-3.74,3.74s1.68,3.74,3.74,3.74c.99,0,1.79,.8,1.79,1.79s-.8,1.79-1.79,1.79c-4.03,0-7.32-3.28-7.32-7.32s3.28-7.32,7.32-7.32H51.47c4.03,0,7.32,3.28,7.32,7.32s-3.28,7.32-7.32,7.32Z"/><circle class="cls-1" cx="40.24" cy="55.86" r="1.79"/><g id="KMfWwr.tif"><g><path class="cls-1" d="M33.49,4.56c.07,.18,.26,.14,.39,.21,.8,.41,1.28,1.03,1.29,1.94,.02,2.3,.02,4.61,0,6.91-.01,1.18-.95,2.05-2.22,2.14-1,.07-2.01-.81-2.19-1.87-.08-.5-.05-1.01-.05-1.51,0-1.55,.05-3.11-.02-4.66-.06-1.4,.26-2.53,1.64-3.15h1.15Z"/><path class="cls-1" d="M6.13,30.77c.18-.06,.15-.25,.22-.38,.38-.66,.9-1.11,1.68-1.2,.97-.1,1.95-.12,2.93,0,1.12,.14,1.88,1.08,1.88,2.22,0,1.11-.78,2.02-1.88,2.17-.92,.13-1.85,.09-2.77,.03-.92-.06-1.54-.58-1.92-1.41-.03-.07-.01-.18-.14-.18v-1.26Z"/><path class="cls-1" d="M48.19,46.61c-10.17,0-20.33,0-30.49,0-.13,0-.25,0-.36,0h-.12l-1.74-.06v-1.74c.02-1.13,.01-2.28,0-3.4-.01-2.13-.03-4.33,.07-6.52,.17-3.66,1.44-6.99,3.79-9.91,3-3.73,6.87-5.89,11.5-6.42,4.59-.53,9.1,.7,12.7,3.46,3.5,2.68,5.85,6.55,6.6,10.88,.17,.96,.25,1.96,.25,2.96v10.68l-1.73,.06s-.08,0-.12,0c-.11,0-.23,.01-.37,.01Zm-29.12-3.58c9.25,0,18.5,0,27.75,0v-7.19c0-.8-.06-1.59-.2-2.35-.6-3.45-2.46-6.52-5.25-8.66-2.86-2.19-6.46-3.17-10.12-2.74-3.66,.42-6.73,2.14-9.13,5.11-1.86,2.31-2.87,4.94-3.01,7.83-.1,2.09-.08,4.25-.07,6.33,0,.55,0,1.1,0,1.66Z"/><path class="cls-1" d="M21.79,18.08c-.03,.82-.44,1.53-1.3,1.92-.87,.4-1.74,.3-2.43-.37-1.67-1.61-3.31-3.25-4.92-4.92-.85-.88-.76-2.21,.09-3.07,.85-.85,2.19-.93,3.07-.08,1.67,1.61,3.3,3.27,4.93,4.92,.39,.4,.56,.92,.57,1.59Z"/><path class="cls-1" d="M44.18,17.99c-.02-.63,.22-1.16,.66-1.6,1.56-1.57,3.12-3.14,4.7-4.7,.92-.91,2.27-.91,3.15-.04,.88,.86,.92,2.23,.02,3.15-1.57,1.61-3.17,3.2-4.78,4.77-.69,.68-1.54,.81-2.42,.43-.87-.37-1.3-1.07-1.33-2.01Z"/><path class="cls-1" d="M56.18,29.19c.49,0,.98-.01,1.47,0,1.2,.03,2.14,1.01,2.14,2.2,0,1.19-.94,2.18-2.14,2.2-1,.02-1.99,.02-2.99,0-1.21-.03-2.11-1-2.1-2.22,0-1.19,.91-2.14,2.09-2.18,.51-.02,1.01,0,1.52,0Z"/><path class="cls-1" d="M21.71,35.2c.07-4.39,3.34-8.25,7.65-9.03,.58-.1,1.16-.17,1.74-.17,.93,0,1.75,.71,1.85,1.61,.11,1.02-.49,1.91-1.46,2.09-.72,.13-1.45,.1-2.16,.33-2.22,.73-3.84,2.9-3.88,5.23-.02,1.2-.79,2.01-1.92,1.99-1.07-.01-1.85-.89-1.83-2.05Z"/><circle class="cls-1" cx="23.49" cy="41.08" r="2.15"/></g></g></svg>