<svg id="filtro_salud" data-name="filtro salud" xmlns="http://www.w3.org/2000/svg" xmlns:xlink="http://www.w3.org/1999/xlink" width="34.12" height="34.12" viewBox="0 0 34.12 34.12">
  <defs>
    <clipPath id="clip-path">
      <rect id="Rectángulo_477" data-name="Rectángulo 477" width="23.943" height="23.949" fill="none"/>
    </clipPath>
  </defs>
  <circle id="Elipse_76" data-name="Elipse 76" cx="17.06" cy="17.06" r="17.06" fill="#fff"/>
  <g id="Grupo_996" data-name="Grupo 996" transform="translate(5.088 5.086)">
    <g id="Grupo_995" data-name="Grupo 995" transform="translate(0 0)" clip-path="url(#clip-path)">
      <path id="Trazado_1727" data-name="Trazado 1727" d="M11,23.949a15.889,15.889,0,0,1-1.838-.311A11.906,11.906,0,0,1,1.6,17.968,11.249,11.249,0,0,1,.066,13.3,11.765,11.765,0,0,1,2.994,4.071,11.452,11.452,0,0,1,9.649.238,11.664,11.664,0,0,1,19.907,3.012a11.741,11.741,0,0,1,3.943,7.254c.039.245.063.493.094.738v1.963a.676.676,0,0,0-.028.112,11.491,11.491,0,0,1-1.557,4.895,11.89,11.89,0,0,1-7.536,5.659,15.583,15.583,0,0,1-1.86.315Zm.986-1.077a10.891,10.891,0,1,0-10.9-10.88,10.909,10.909,0,0,0,10.9,10.88" transform="translate(0 0)" fill="#5957f4"/>
      <path id="Trazado_1728" data-name="Trazado 1728" d="M18.343,11.567c0,.623,0,1.246,0,1.869,0,.555-.206.756-.767.757h-3.06c-.326,0-.326,0-.326.318q0,1.53,0,3.06c0,.575-.2.774-.772.775q-1.856,0-3.715,0c-.561,0-.764-.2-.766-.758,0-1.035-.007-2.072,0-3.107,0-.223-.063-.3-.29-.294-1.028.011-2.055.005-3.084,0-.589,0-.784-.195-.784-.786q0-1.845,0-3.691c0-.576.2-.774.772-.775,1.035,0,2.072-.005,3.107,0,.216,0,.281-.069.278-.282-.009-1.035,0-2.072,0-3.107,0-.571.2-.77.778-.77q1.856,0,3.715,0c.558,0,.759.2.76.763q0,1.541,0,3.084c0,.306,0,.306.313.306h3.061c.556,0,.776.221.779.781,0,.615,0,1.23,0,1.845M13.133,7.8c0-.537-.011-1.075,0-1.612.007-.229-.049-.313-.3-.309-.841.015-1.681.013-2.523,0-.225,0-.293.064-.29.29.011,1.05.005,2.1,0,3.154,0,.522-.2.717-.722.717-1.044,0-2.087.007-3.131,0-.228,0-.313.05-.309.3q.023,1.238,0,2.476c0,.247.08.3.309.3,1.043-.011,2.087-.005,3.131,0,.525,0,.722.195.722.717,0,1.059.005,2.118,0,3.178,0,.206.061.269.266.265.841-.01,1.682-.011,2.523,0,.216,0,.279-.065.277-.278-.009-1.059-.005-2.118,0-3.178,0-.506.2-.7.711-.7,1.059,0,2.118-.005,3.177,0,.211,0,.287-.059.284-.276-.01-.833-.011-1.667,0-2.5,0-.226-.072-.293-.295-.29-1.059.01-2.118.005-3.177,0-.457,0-.658-.2-.66-.652,0-.53,0-1.059,0-1.589" transform="translate(0.418 0.419)" fill="#5957f4"/>
    </g>
  </g>
</svg>
