<svg id="Filtro_Bombero" data-name="Filtro Bombero" xmlns="http://www.w3.org/2000/svg" xmlns:xlink="http://www.w3.org/1999/xlink" width="34.12" height="34.12" viewBox="0 0 34.12 34.12">
  <defs>
    <clipPath id="clip-path">
      <rect id="Rectángulo_476" data-name="Rectángulo 476" width="23.816" height="16.371" fill="none"/>
    </clipPath>
  </defs>
  <circle id="Elipse_75" data-name="Elipse 75" cx="17.06" cy="17.06" r="17.06" fill="#fff"/>
  <g id="Grupo_993" data-name="Grupo 993" transform="translate(5.163 7.376)">
    <g id="Grupo_987" data-name="Grupo 987" transform="translate(0 0)" clip-path="url(#clip-path)">
      <path id="Trazado_1724" data-name="Trazado 1724" d="M23.816,12.185A2.244,2.244,0,0,1,22.6,13.6a22.152,22.152,0,0,1-7.135,2.485c-.443.073-.89.115-1.334.174a.515.515,0,0,1-.642-.412A.5.5,0,0,1,14,15.286a21.161,21.161,0,0,0,3.777-.729,20.831,20.831,0,0,0,4.541-1.932.9.9,0,0,0,.426-1.252.908.908,0,0,0-1.314-.28,19.1,19.1,0,0,1-5.308,2.055,19.013,19.013,0,0,1-3.516.452A19.137,19.137,0,0,1,2.4,11.087a.892.892,0,0,0-1.408.6.869.869,0,0,0,.458.892A20.3,20.3,0,0,0,4.2,13.917a20.371,20.371,0,0,0,5.321,1.329c.13.014.262.027.391.048a.493.493,0,0,1,.435.539.5.5,0,0,1-.562.438,21.883,21.883,0,0,1-8.394-2.592,3.481,3.481,0,0,1-.85-.56,1.86,1.86,0,0,1,2.126-2.99c.257.126.508.265.757.407.154.088.212.072.209-.122-.008-.581-.02-1.162,0-1.743A8.193,8.193,0,0,1,7.888,1.554a6.654,6.654,0,0,1,.856-.415A.246.246,0,0,0,8.92.818a1.427,1.427,0,0,1-.03-.206A.518.518,0,0,1,9.453,0c.186-.006.372,0,.558,0h4.229c.589,0,.779.213.683.786-.034.2.029.285.211.366a8.26,8.26,0,0,1,4.9,5.945,9.4,9.4,0,0,1,.171,2.31c0,.333.005.666,0,1,0,.174.032.232.2.132.206-.122.42-.233.632-.346a1.85,1.85,0,0,1,2.715,1.052c.018.051.042.1.063.15ZM4.62,9.308c0,.642.007,1.091,0,1.54a.33.33,0,0,0,.239.366c.548.215,1.1.427,1.66.6.281.085.28.087.321-.213A1.719,1.719,0,0,1,8.346,10.12a4.785,4.785,0,0,1,.673-.024c.169,0,.236-.024.126-.2A6.509,6.509,0,0,1,8.823,9.3a7.007,7.007,0,0,1-.767-3.383c.016-.445.139-.591.57-.677.182-.036.36-.092.54-.135.126-.03.169-.089.154-.23-.091-.861-.172-1.723-.251-2.586C9.055,2.122,9,2.08,8.838,2.16a7.3,7.3,0,0,0-3.881,4.4A7.716,7.716,0,0,0,4.62,9.308m14.6.089a12.136,12.136,0,0,0-.056-1.558,7.233,7.233,0,0,0-4.135-5.662c-.217-.109-.236-.089-.26.157-.071.73-.163,1.46-.215,2.192-.044.621-.2.5.471.677.082.023.166.036.25.052a.534.534,0,0,1,.5.567,6.254,6.254,0,0,1-.059,1.273A7.659,7.659,0,0,1,14.7,9.89c-.1.162-.071.212.116.2a3.175,3.175,0,0,1,.878.06A1.717,1.717,0,0,1,17,11.615c.038.282.038.281.313.2.571-.173,1.127-.385,1.681-.607a.3.3,0,0,0,.224-.329c-.008-.457,0-.913,0-1.48m-7.3.695h.813c.7,0,.708.005,1.069-.6a6.4,6.4,0,0,0,1-3.082.262.262,0,0,0-.225-.311,6.307,6.307,0,0,1-2.473-1.336c-.131-.113-.209-.122-.346,0a6.2,6.2,0,0,1-2.47,1.336.272.272,0,0,0-.232.33,6.726,6.726,0,0,0,1.308,3.545.3.3,0,0,0,.282.123c.426,0,.852,0,1.278,0m0,.992q-1.637,0-3.274,0a.778.778,0,0,0-.851.872.221.221,0,0,0,.2.254,19.454,19.454,0,0,0,3.472.424,17.553,17.553,0,0,0,2.341-.1,19.029,19.029,0,0,0,2.037-.328.221.221,0,0,0,.2-.255.779.779,0,0,0-.852-.87q-1.637,0-3.275,0M11.92,1q-.86,0-1.719,0c-.267,0-.285.03-.257.3.107,1.023.215,2.045.31,3.069.018.189.05.239.225.125a6.53,6.53,0,0,0,.992-.8.534.534,0,0,1,.895,0,6.251,6.251,0,0,0,1.012.813c.151.1.188.059.2-.111.1-1.031.2-2.062.311-3.092.028-.27.01-.3-.256-.3q-.859,0-1.719,0" transform="translate(0 0)" fill="#4ece69"/>
      <path id="Trazado_1725" data-name="Trazado 1725" d="M17.009,23.368a.48.48,0,1,1,.479.492.486.486,0,0,1-.479-.492" transform="translate(-5.569 -7.49)" fill="#4ece69"/>
      <path id="Trazado_1726" data-name="Trazado 1726" d="M16.921,11.845c-.348,0-.7,0-1.043,0-.385,0-.6-.18-.6-.49s.211-.5.591-.5q1.067-.005,2.134,0a.5.5,0,0,1,.563.408.49.49,0,0,1-.527.581c-.371.009-.742,0-1.113,0Z" transform="translate(-5.001 -3.552)" fill="#4ece69"/>
    </g>
  </g>
</svg>
