<svg id="Filtro_Hidrantes" data-name="Filtro Hidrantes" xmlns="http://www.w3.org/2000/svg" width="34.12" height="34.12" viewBox="0 0 34.12 34.12">
  <circle id="Elipse_74" data-name="Elipse 74" cx="17.06" cy="17.06" r="17.06" fill="#fff"/>
  <g id="Grupo_990" data-name="Grupo 990" transform="translate(6.326 4.574)">
    <path id="Trazado_1711" data-name="Trazado 1711" d="M26.823,36.568h-5.3c-.612,0-.874-.264-.878-.878,0-.062,0-.124,0-.186,0-.746.192-.956.927-.983.187-.007.247-.078.244-.257q-.009-.839,0-1.679a.23.23,0,0,0-.2-.262.725.725,0,0,1-.571-.66,2.884,2.884,0,0,1,.013-.9.709.709,0,0,1,.542-.595.241.241,0,0,0,.215-.276q-.005-1.36,0-2.719c0-.182-.062-.259-.248-.252-.239.008-.48,0-.72,0a.7.7,0,0,1-.577-.279.758.758,0,0,0-.709-.141c-.105.053-.107.154-.121.25a.9.9,0,0,1-.918.849.932.932,0,0,1-.859-.949c-.01-.3-.013-.605,0-.907.011-.236-.062-.351-.315-.326-.158.015-.319,0-.479,0a.32.32,0,0,1-.367-.333q-.015-.959,0-1.919a.307.307,0,0,1,.345-.324c.187,0,.373-.008.559,0s.258-.064.254-.249c-.008-.328-.007-.658,0-.986a.911.911,0,0,1,.828-.947.886.886,0,0,1,.952.835c.017.11.006.265.157.272.2.01.458.114.6-.083a1.007,1.007,0,0,1,.936-.386c.674.012.674,0,.674-.674,0-.062,0-.124,0-.187a1.472,1.472,0,0,0-.033-.525c-.08-.18-.3-.062-.462-.1a.669.669,0,0,1-.488-.777,4.837,4.837,0,0,1,1.2-2.4,6.392,6.392,0,0,1,2.436-1.678c.169-.067.246-.157.226-.335a1.368,1.368,0,0,1,0-.16c0-.527.15-.674.688-.676s.479.028.481-.5c0-.178,0-.355,0-.533a.273.273,0,0,1,.292-.308c.453,0,.906,0,1.36,0,.2,0,.284.123.286.312,0,.258.008.516,0,.773,0,.18.064.264.249.254a3.35,3.35,0,0,1,.4,0c.352.026.542.2.512.546a.639.639,0,0,0,.481.739,5.772,5.772,0,0,1,3.028,2.831,4.2,4.2,0,0,1,.359,1.14.627.627,0,0,1-.631.767c-.3-.007-.366.107-.349.374.019.292.01.586,0,.879,0,.171.067.244.237.239.187-.006.373,0,.559,0a.863.863,0,0,1,.79.355.911.911,0,0,0,.723.092c.079-.055.063-.14.068-.219a.874.874,0,0,1,.882-.875.886.886,0,0,1,.891.905c.012.337.01.676,0,1.013,0,.192.062.279.261.268.177-.01.355,0,.533,0a.316.316,0,0,1,.367.332q.015.959,0,1.919a.312.312,0,0,1-.348.324c-.187,0-.373.008-.559,0s-.256.068-.252.251c.007.346.01.694,0,1.039a.888.888,0,0,1-.579.824.839.839,0,0,1-.916-.177.708.708,0,0,1-.272-.585c.012-.241-.1-.3-.319-.3a.61.61,0,0,0-.578.236.58.58,0,0,1-.5.212c-.248,0-.5.006-.746,0-.165,0-.243.054-.242.231,0,.915,0,1.83,0,2.745a.23.23,0,0,0,.193.266.768.768,0,0,1,.595.759c.01.177,0,.355,0,.533a.784.784,0,0,1-.615.877.226.226,0,0,0-.177.252c0,.568,0,1.138,0,1.706,0,.175.073.227.239.234.741.033.931.237.932.979,0,.089,0,.178,0,.266a.731.731,0,0,1-.817.8q-2.692,0-5.385,0M22.361,24.959q0,2.386,0,4.771c0,.379,0,.38.389.38h8.181c.369,0,.373,0,.373-.371q0-4.784,0-9.567c0-.262-.064-.354-.342-.353q-4.13.013-8.261,0c-.264,0-.353.068-.351.343.012,1.6.006,3.2.006,4.8m4.473,9.559c1.386,0,2.772,0,4.157,0,.247,0,.324-.08.318-.322-.015-.523-.012-1.048,0-1.572,0-.208-.072-.279-.279-.279q-4.2.007-8.394,0c-.21,0-.281.075-.277.281.01.515.017,1.031,0,1.546-.01.272.08.349.349.346,1.377-.012,2.754-.006,4.13-.006m.027-3.818h0q-2.331,0-4.661,0c-.592,0-.592,0-.591.608,0,.472.02.492.5.493h9.268c.685,0,.685,0,.681-.685,0-.393-.024-.415-.43-.415H26.861m-.028,5.317q2.612,0,5.222,0c.113,0,.254.039.328-.063a.884.884,0,0,0,.059-.718c-.037-.2-.228-.16-.375-.161q-2.132,0-4.263,0-3.09,0-6.181,0c-.121,0-.273-.046-.35.072a.906.906,0,0,0-.046.721c.046.2.239.149.384.149q2.611,0,5.222,0M21.809,24.128c0-.674,0-1.348,0-2.022,0-.179-.057-.263-.245-.254s-.391,0-.586,0-.277.076-.277.27q0,1.982,0,3.964c0,.209.093.285.292.276a4.262,4.262,0,0,1,.532,0c.228.018.289-.083.286-.3-.01-.647,0-1.295,0-1.942m10.046-.022c0,.488-.009.977,0,1.465.021.954-.2.777.844.8.178,0,.26-.075.26-.254q0-1.984,0-3.969c0-.181-.088-.257-.263-.253s-.373.01-.559,0c-.225-.015-.29.085-.288.3.01.639,0,1.279,0,1.918m-7.161-8.579a.9.9,0,0,0-.138.014,1.5,1.5,0,0,0-.149.056,5.74,5.74,0,0,0-2.184,1.7,4.188,4.188,0,0,0-.8,1.666c-.049.213,0,.32.245.313.355-.01.71,0,1.065,0,.407,0,.4,0,.468-.392a6.942,6.942,0,0,1,1.195-2.962c.086-.12.18-.236.3-.394m4.3-.05a1.814,1.814,0,0,0,.319.482,7.163,7.163,0,0,1,1.173,3.027c.034.216.113.3.341.294.363-.018.727,0,1.091-.006s.395-.037.3-.388A5.289,5.289,0,0,0,29,15.477m-2.186,3.8c.2,0,.408-.008.612,0s.272-.08.255-.27c-.021-.23-.033-.46-.053-.689a14.63,14.63,0,0,0-.4-2.437c-.061-.23-.182-.284-.4-.286a.339.339,0,0,0-.391.3,17.25,17.25,0,0,0-.449,3.1c-.017.2.045.3.263.288.185-.012.373,0,.559,0m2.309,0c.187,0,.373-.01.559,0,.212.015.281-.053.243-.275a6.354,6.354,0,0,0-1.259-2.958,2.858,2.858,0,0,0-.351-.364.427.427,0,0,0-.478-.05c-.14.071-.011.221,0,.335s.047.208.068.313a15.208,15.208,0,0,1,.321,2.639c.007.25.084.385.36.359.176-.017.355,0,.533,0m-4.563,0c.187,0,.374-.012.559,0,.243.021.32-.073.326-.317a14.9,14.9,0,0,1,.391-3c.025-.108.153-.254,0-.33a.451.451,0,0,0-.457.039.964.964,0,0,0-.156.145,6.107,6.107,0,0,0-1.474,3.247c-.028.17.039.223.2.216.2-.008.408,0,.612,0M35.42,24.128h0q0-1.28,0-2.559c0-.21-.1-.348-.319-.346s-.3.139-.31.332c0,.071,0,.142,0,.214q0,2.186,0,4.372a5.167,5.167,0,0,0,.012.586.289.289,0,0,0,.328.278.28.28,0,0,0,.286-.29c.008-.089.007-.178.007-.267q0-1.16,0-2.319m-17.173-.022v.746q0,.892,0,1.785c0,.2.077.355.3.364.241.009.318-.154.331-.364,0-.027,0-.053,0-.08q0-2.451,0-4.9c0-.285-.118-.437-.318-.437s-.313.148-.314.437c0,.817,0,1.634,0,2.451m15.984.027c0-.5-.01-.994,0-1.49.008-.266-.141-.279-.339-.277s-.349,0-.346.271q.013,1.491,0,2.981c0,.269.148.274.342.272s.352.009.344-.267c-.015-.5,0-.994,0-1.491m-14.118,0c0-.5-.008-.993,0-1.49,0-.238-.117-.281-.316-.277-.183,0-.335.008-.334.259q.009,1.5,0,3.007c0,.252.147.256.331.259s.326-.023.32-.268c-.012-.5,0-.993,0-1.49m6.718-9.757c-.443,0-.888.008-1.331,0-.228-.006-.266.113-.258.3.007.171-.024.342.243.34q1.344-.01,2.689,0c.264,0,.24-.165.245-.339s-.027-.307-.257-.3c-.444.01-.888,0-1.332,0m9.177,9.748h0c0,.177,0,.354,0,.53-.007.21.129.219.281.215s.3.019.3-.2c0-.362,0-.725,0-1.087a.164.164,0,0,0-.12-.18c-.3-.094-.455.015-.457.322,0,.133,0,.266,0,.4m-18.351-.034c0-.124-.007-.249,0-.373.015-.21-.03-.333-.286-.331-.24,0-.312.093-.3.318.013.266.01.533,0,.8-.008.208.033.331.286.335.271,0,.313-.131.3-.349-.008-.133,0-.266,0-.4M26.839,13c-.425,0-.425,0-.425.387,0,.4,0,.4.412.4s.425,0,.425-.391,0-.4-.413-.4" transform="translate(-16.493 -12.445)" fill="#ffa953" style="mix-blend-mode: multiply;isolation: isolate"/>
    <path id="Trazado_1712" data-name="Trazado 1712" d="M33.4,27.744A3.53,3.53,0,1,1,29.866,24.2,3.528,3.528,0,0,1,33.4,27.744m-.553,0a2.975,2.975,0,1,0-2.942,2.975,2.975,2.975,0,0,0,2.942-2.975" transform="translate(-19.531 -16.07)" fill="#ffa953" style="mix-blend-mode: multiply;isolation: isolate"/>
    <path id="Trazado_1713" data-name="Trazado 1713" d="M27.025,35.914c-.009.16-.006.32-.03.477a.265.265,0,0,1-.269.249.261.261,0,0,1-.272-.244,3.456,3.456,0,0,1,0-.956.264.264,0,0,1,.3-.242.257.257,0,0,1,.25.263c.013.149,0,.3,0,.452h.017" transform="translate(-19.556 -19.464)" fill="#ffa953" style="mix-blend-mode: multiply;isolation: isolate"/>
    <path id="Trazado_1714" data-name="Trazado 1714" d="M36.2,35.953c-.007.121,0,.282-.028.439a.272.272,0,0,1-.541,0,4.253,4.253,0,0,1-.006-.956.246.246,0,0,1,.242-.241.271.271,0,0,1,.3.213,2.451,2.451,0,0,1,.037.541" transform="translate(-22.386 -19.464)" fill="#ffa953" style="mix-blend-mode: multiply;isolation: isolate"/>
    <path id="Trazado_1715" data-name="Trazado 1715" d="M29.284,35.934c0,.141,0,.283,0,.424a.25.25,0,0,1-.228.279.257.257,0,0,1-.3-.234,4.288,4.288,0,0,1,0-.978.242.242,0,0,1,.279-.225.247.247,0,0,1,.248.259c.008.159,0,.318,0,.477h0" transform="translate(-20.267 -19.464)" fill="#ffa953" style="mix-blend-mode: multiply;isolation: isolate"/>
    <path id="Trazado_1716" data-name="Trazado 1716" d="M31.594,35.925c0,.15.01.3,0,.45a.255.255,0,0,1-.275.262.248.248,0,0,1-.256-.254c-.012-.308-.012-.618,0-.927a.245.245,0,0,1,.277-.256.253.253,0,0,1,.261.275c.007.149,0,.3,0,.45h0" transform="translate(-20.984 -19.465)" fill="#ffa953" style="mix-blend-mode: multiply;isolation: isolate"/>
    <path id="Trazado_1717" data-name="Trazado 1717" d="M33.359,35.9c0-.15-.008-.3,0-.45a.243.243,0,0,1,.255-.25.239.239,0,0,1,.271.234,9.323,9.323,0,0,1,0,.953.259.259,0,0,1-.288.254c-.172-.008-.241-.129-.245-.289s0-.3,0-.451h0" transform="translate(-21.695 -19.464)" fill="#ffa953" style="mix-blend-mode: multiply;isolation: isolate"/>
    <path id="Trazado_1718" data-name="Trazado 1718" d="M36.2,42.349c-.008.176,0,.328-.024.476a.268.268,0,0,1-.263.256.266.266,0,0,1-.289-.257,4.173,4.173,0,0,1,0-.956.257.257,0,0,1,.27-.245.27.27,0,0,1,.273.247c.024.166.021.335.03.479" transform="translate(-22.386 -21.446)" fill="#ffa953" style="mix-blend-mode: multiply;isolation: isolate"/>
    <path id="Trazado_1719" data-name="Trazado 1719" d="M27.011,42.364c0,.142.01.285,0,.425a.282.282,0,0,1-.285.294c-.17,0-.253-.12-.272-.275a4.24,4.24,0,0,1,0-.9.277.277,0,0,1,.3-.279c.171,0,.247.134.261.286s0,.3,0,.452Z" transform="translate(-19.557 -21.447)" fill="#ffa953" style="mix-blend-mode: multiply;isolation: isolate"/>
    <path id="Trazado_1720" data-name="Trazado 1720" d="M29.282,42.35c0,.151,0,.3,0,.452a.258.258,0,0,1-.241.271.241.241,0,0,1-.283-.221,3.957,3.957,0,0,1,0-1.007.246.246,0,0,1,.287-.219.254.254,0,0,1,.239.272c0,.151,0,.3,0,.452" transform="translate(-20.266 -21.447)" fill="#ffa953" style="mix-blend-mode: multiply;isolation: isolate"/>
    <path id="Trazado_1721" data-name="Trazado 1721" d="M31.593,42.377c0,.151.011.3,0,.452a.251.251,0,0,1-.264.247.245.245,0,0,1-.266-.244c-.013-.319-.013-.638,0-.956a.252.252,0,0,1,.263-.25.257.257,0,0,1,.267.273c.01.159,0,.319,0,.479h0" transform="translate(-20.984 -21.447)" fill="#ffa953" style="mix-blend-mode: multiply;isolation: isolate"/>
    <path id="Trazado_1722" data-name="Trazado 1722" d="M33.358,42.338c0-.151,0-.3,0-.452a.265.265,0,0,1,.528-.03,4.386,4.386,0,0,1,0,.981.248.248,0,0,1-.272.239.254.254,0,0,1-.254-.259c-.009-.159,0-.319,0-.479h0" transform="translate(-21.696 -21.447)" fill="#ffa953" style="mix-blend-mode: multiply;isolation: isolate"/>
    <path id="Trazado_1723" data-name="Trazado 1723" d="M30.548,26.4a2.031,2.031,0,0,1,2.024,2.015,2.031,2.031,0,1,1-4.063-.011,2.04,2.04,0,0,1,2.039-2M29.1,28.416a1.4,1.4,0,0,0,1.429,1.461A1.444,1.444,0,0,0,32,28.447a1.472,1.472,0,0,0-1.429-1.489A1.442,1.442,0,0,0,29.1,28.416" transform="translate(-20.2 -16.751)" fill="#ffa953" style="mix-blend-mode: multiply;isolation: isolate"/>
  </g>
</svg>
