<?xml version="1.0" encoding="UTF-8"?><svg id="Capa_1" xmlns="http://www.w3.org/2000/svg" viewBox="0 0 40.09 38.36"><defs><style>.cls-1{fill:#fff;}</style></defs><path class="cls-1" d="M6.07,17.38c.79,.08,1.39,.75,1.37,1.55v.03c-.04,2.07,.42,4.06,1.35,5.92,.23,.45,.29,.9,.18,1.39-.31,1.5-.61,3-.9,4.5-.13,.68,.18,.99,.85,.86,1.49-.3,2.98-.58,4.46-.9,.52-.11,.98-.04,1.45,.19,2.56,1.25,5.26,1.63,8.06,1.13,7.04-1.25,11.75-7.94,10.61-15-.99-6.13-6.25-10.98-13.1-11.05-.59,.04-1.3,.08-2.02,.19-4.35,.72-8,3.55-9.78,7.49-.34,.75-1.21,1.09-1.96,.76h0c-.76-.33-1.11-1.23-.76-1.99,.61-1.33,1.43-2.59,2.43-3.76,2.58-3.02,6.17-4.99,10.11-5.53,4.14-.57,7.97,.37,11.39,2.79,3.61,2.55,5.81,6.03,6.63,10.38,.17,.92,.27,1.85,.25,2.8-.07,4.21-1.49,7.9-4.37,10.99-2.58,2.77-5.77,4.44-9.52,4.98-3.02,.44-5.94,0-8.73-1.22-.23-.1-.44-.13-.69-.08-1.48,.28-2.94,.66-4.43,.85-1.88,.25-3.69-1.25-3.9-3.14-.09-.86,.17-1.65,.32-2.46,.17-.93,.37-1.86,.56-2.78,.05-.24,0-.45-.1-.66-.94-2.12-1.41-4.34-1.37-6.65,0-.05,0-.09,0-.14,.02-.85,.77-1.51,1.61-1.42h0Z"/><g><path class="cls-1" d="M27.18,24.44c-.56-.65-1.55-.72-2.2-.16h0c-.43,.38-.99,.58-1.57,.58-1.3,0-2.36-1.04-2.36-2.31v-6.16c0-.86-.7-1.56-1.56-1.56s-1.56,.7-1.56,1.56v6.16c0,2.99,2.46,5.43,5.48,5.43,1.33,0,2.61-.48,3.61-1.34h0c.65-.56,.72-1.55,.16-2.2Z"/><path class="cls-1" d="M19.47,13.99c1.03,0,1.87-.84,1.87-1.87s-.84-1.87-1.87-1.87-1.87,.84-1.87,1.87,.84,1.87,1.87,1.87Z"/></g></svg>
