<?xml version="1.0" encoding="UTF-8"?><svg xmlns="http://www.w3.org/2000/svg" xmlns:xlink="http://www.w3.org/1999/xlink" viewBox="0 0 215.84 63.33"><defs><style>.cls-1{fill:#fff;}.cls-2{fill:#4c558e;}.cls-3{fill:url(#Degradado_sin_nombre_20-3);}.cls-3,.cls-4,.cls-5,.cls-6,.cls-7,.cls-8{mix-blend-mode:multiply;}.cls-4{fill:url(#Degradado_sin_nombre_20-2);}.cls-5{fill:url(#Degradado_sin_nombre_19-3);}.cls-6{fill:url(#Degradado_sin_nombre_19-2);}.cls-7{fill:url(#Degradado_sin_nombre_20);}.cls-8{fill:url(#Degradado_sin_nombre_19);}.cls-9{fill:url(#Degradado_sin_nombre_92);}.cls-10{isolation:isolate;}.cls-11{fill:url(#Degradado_sin_nombre_92-2);}</style><radialGradient id="Degradado_sin_nombre_19" cx="488.1" cy="59.85" fx="488.1" fy="59.85" r="16.21" gradientTransform="translate(-508.32 47.88) scale(1.18 .2)" gradientUnits="userSpaceOnUse"><stop offset="0" stop-color="#c9cbcc"/><stop offset=".11" stop-color="#c9cbcc" stop-opacity=".84"/><stop offset=".35" stop-color="#c9cbcc" stop-opacity=".55"/><stop offset=".56" stop-color="#c9cbcc" stop-opacity=".31"/><stop offset=".75" stop-color="#c9cbcc" stop-opacity=".14"/><stop offset=".9" stop-color="#c9cbcc" stop-opacity=".04"/><stop offset="1" stop-color="#c9cbcc" stop-opacity="0"/></radialGradient><radialGradient id="Degradado_sin_nombre_19-2" cx="452.85" fx="452.85" r="16.21" xlink:href="#Degradado_sin_nombre_19"/><radialGradient id="Degradado_sin_nombre_19-3" cx="567.84" fx="567.84" r="16.21" xlink:href="#Degradado_sin_nombre_19"/><radialGradient id="Degradado_sin_nombre_20" cx="520.78" cy="-397.76" fx="520.78" fy="-397.76" r="7.74" gradientTransform="translate(-508.32 226.5) scale(1.18 .42)" gradientUnits="userSpaceOnUse"><stop offset="0" stop-color="#c9cbcc" stop-opacity=".7"/><stop offset=".15" stop-color="#c9cbcc" stop-opacity=".51"/><stop offset=".32" stop-color="#c9cbcc" stop-opacity=".33"/><stop offset=".5" stop-color="#c9cbcc" stop-opacity=".19"/><stop offset=".67" stop-color="#c9cbcc" stop-opacity=".08"/><stop offset=".84" stop-color="#c9cbcc" stop-opacity=".02"/><stop offset="1" stop-color="#c9cbcc" stop-opacity="0"/></radialGradient><radialGradient id="Degradado_sin_nombre_20-2" cx="542.22" fx="542.22" xlink:href="#Degradado_sin_nombre_20"/><radialGradient id="Degradado_sin_nombre_20-3" cx="1244.24" cy="-408.98" fx="1244.24" fy="-408.98" r="7.74" gradientTransform="translate(-1746.6 237.2) scale(1.56 .43)" xlink:href="#Degradado_sin_nombre_20"/><linearGradient id="Degradado_sin_nombre_92" x1="56.72" y1="11.7" x2="50.45" y2=".84" gradientTransform="matrix(1, 0, 0, 1, 0, 0)" gradientUnits="userSpaceOnUse"><stop offset="0" stop-color="#7471d4"/><stop offset=".12" stop-color="#6d68de"/><stop offset=".4" stop-color="#6158f4"/><stop offset=".59" stop-color="#5d52fc"/><stop offset=".66" stop-color="#5c52f6"/><stop offset=".74" stop-color="#5952e6"/><stop offset=".84" stop-color="#5553cb"/><stop offset=".94" stop-color="#4f54a6"/><stop offset="1" stop-color="#4c558e"/></linearGradient><linearGradient id="Degradado_sin_nombre_92-2" x1="48.06" y1="45.51" x2="67.57" y2="34.25" xlink:href="#Degradado_sin_nombre_92"/></defs><g class="cls-10"><g id="Capa_1"><g><g><ellipse class="cls-8" cx="68.44" cy="59.85" rx="26.79" ry="3.36"/><ellipse class="cls-6" cx="26.79" cy="59.85" rx="26.79" ry="3.36"/><ellipse class="cls-5" cx="162.66" cy="59.85" rx="26.79" ry="3.36"/><ellipse class="cls-7" cx="107.06" cy="59.85" rx="12.79" ry="3.36"/><ellipse class="cls-4" cx="132.4" cy="59.85" rx="12.79" ry="3.36"/><ellipse class="cls-3" cx="198.91" cy="59.85" rx="16.92" ry="3.47"/></g><g><path class="cls-1" d="M119.48,15.38c-5.16,0-9.82,2.12-13.16,5.52-3.34-3.4-8.01-5.52-13.16-5.52-10.14,0-18.39,8.17-18.39,18.22v7.7c0,2.22-.97,4.33-2.67,5.8h0c2.18-1.89,5.48-1.66,7.38,.52,1.89,2.18,1.66,5.49-.52,7.38h0c3.99-3.46,6.28-8.46,6.28-13.71v-7.7c0-4.28,3.56-7.76,7.93-7.76s7.93,3.48,7.93,7.76v20.68c0,2.89,2.34,5.23,5.23,5.23s5.23-2.34,5.23-5.23v-20.68c0-4.28,3.56-7.76,7.93-7.76s7.93,3.48,7.93,7.76v20.68c0,2.89,2.34,5.23,5.23,5.23s5.23-2.34,5.23-5.23v-20.68c0-10.05-8.25-18.22-18.39-18.22Z"/><path class="cls-1" d="M106.3,59.5c-2.89,0-5.23-2.34-5.23-5.23v-20.68c0-4.28-3.56-7.75-7.93-7.75s-7.93,3.48-7.93,7.75v7.7c0,5.25-2.29,10.24-6.27,13.7-2.18,1.89-5.49,1.66-7.38-.52-1.89-2.18-1.66-5.48,.52-7.38,1.7-1.47,2.67-3.59,2.67-5.8v-7.7c0-10.04,8.25-18.21,18.39-18.21s18.39,8.17,18.39,18.21v20.68c0,2.89-2.34,5.23-5.23,5.23Z"/><g><path class="cls-2" d="M79.46,47.62c-1.9-2.18-5.2-2.42-7.38-.52h0c-2.18,1.9-2.41,5.2-.52,7.38,1.89,2.18,5.19,2.42,7.38,.52h0c2.18-1.89,2.42-5.2,.52-7.38Z"/><g><path class="cls-1" d="M45.34,35.3c-.84-1.98-2.11-3.65-3.79-4.97-1.65-1.3-3.76-2.37-6.24-3.19-2.45-.81-5.33-1.52-8.56-2.11-2.44-.48-4.55-1.03-6.28-1.63-1.67-.58-2.96-1.37-3.84-2.34-.85-.95-1.27-2.13-1.27-3.62,0-1.22,.36-2.27,1.09-3.2,.74-.93,1.86-1.69,3.34-2.24,1.51-.56,3.41-.85,5.64-.85,1.34,0,2.8,.22,4.36,.66,1.58,.45,3.09,1.01,4.51,1.66,1.39,.64,2.51,1.33,3.36,2.07,.74,.55,1.58,.83,2.5,.83,1.39,0,2.6-.55,3.62-1.62,1.01-1.07,1.52-2.28,1.52-3.6,0-1.78-.86-3.36-2.53-4.68-1.93-1.65-4.44-3.02-7.46-4.09-3.02-1.06-6.35-1.6-9.88-1.6-3.76,0-7.24,.66-10.36,1.97-3.14,1.32-5.67,3.28-7.52,5.82-1.86,2.55-2.8,5.67-2.8,9.26,0,2.37,.39,4.54,1.17,6.45,.78,1.92,1.95,3.61,3.48,5.03,1.52,1.41,3.43,2.58,5.68,3.49,2.23,.9,4.84,1.57,7.78,2.01,3,.42,5.5,1.02,7.44,1.78,1.89,.74,3.31,1.65,4.21,2.7,.89,1.03,1.32,2.26,1.32,3.75,0,1.2-.45,2.25-1.37,3.2-.96,.98-2.24,1.78-3.82,2.36-1.59,.59-3.37,.89-5.28,.89-2.86,0-5.3-.42-7.23-1.24-1.96-.83-3.96-2.08-5.95-3.71-.9-.72-1.94-1.09-3.08-1.09-1.49,0-2.75,.53-3.74,1.58-.98,1.04-1.48,2.26-1.48,3.64,0,.84,.21,1.68,.62,2.5,.41,.82,1,1.55,1.74,2.18,2.78,2.4,5.75,4.1,8.81,5.06,3.05,.95,6.52,1.43,10.31,1.43s7.2-.69,10.4-2.06c3.21-1.37,5.85-3.38,7.83-5.97,2-2.61,3.01-5.75,3.01-9.35,0-2.8-.42-5.21-1.25-7.18Z"/><g><path class="cls-1" d="M175.7,20.56h0c-1.92-2-4.15-3.6-6.65-4.75-2.5-1.16-5.2-1.74-8-1.74-3.62,0-7.1,.95-10.34,2.81-3.24,1.87-5.89,4.57-7.89,8.05-2,3.48-3.01,7.73-3.01,12.63,0,4.21,.93,8.04,2.76,11.37,1.84,3.35,4.51,6.03,7.94,7.98,3.42,1.94,7.51,2.93,12.15,2.93,2.73,0,5.42-.46,7.99-1.36,2.57-.9,4.61-1.98,6.03-3.19,1.64-1.29,2.46-2.76,2.46-4.38,0-1.21-.45-2.29-1.32-3.2-1.51-1.56-3.79-1.86-6.33-.58-.59,.32-1.24,.71-2,1.19-.68,.43-1.59,.8-2.71,1.1-1.13,.31-2.68,.46-4.61,.46-2.04,0-4-.51-5.81-1.5-1.81-.99-3.31-2.47-4.46-4.39-.55-.91-.96-1.95-1.26-3.15h25.86c1.41,0,2.67-.45,3.73-1.34,1.09-.91,1.67-2.1,1.73-3.56,0-2.96-.57-5.79-1.69-8.43-1.12-2.62-2.66-4.97-4.58-6.97Zm-18.99,4.09c2.7-.83,6.05-.95,8.81,.41,1.39,.68,2.58,1.62,3.52,2.79,.91,1.14,1.43,2.44,1.53,3.84h-19.85c.1-.41,.2-.79,.31-1.11,.56-1.63,1.33-2.94,2.28-3.9s2.09-1.64,3.39-2.04Z"/><path class="cls-1" d="M206.03,48.85c-.77,0-1.47,.14-2.08,.41-.89,.4-2.06,.43-2.98,.04-.4-.17-.71-.44-.95-.83-.24-.39-.36-.92-.36-1.56V25.64h5.17c1.43,0,2.64-.47,3.6-1.4,.97-.94,1.46-2.11,1.46-3.5s-.49-2.65-1.45-3.61c-.96-.96-2.18-1.45-3.61-1.45h-5.17v-4.6c0-1.53-.5-2.84-1.48-3.88-.99-1.05-2.28-1.58-3.82-1.58s-2.85,.53-3.89,1.57-1.57,2.35-1.57,3.89v4.6h-3.15c-1.43,0-2.64,.47-3.6,1.4-.97,.94-1.46,2.11-1.46,3.5s.49,2.65,1.45,3.61c.96,.96,2.17,1.45,3.61,1.45h3.15v21.67c0,2.71,.43,4.88,1.27,6.46,.85,1.58,1.93,2.78,3.22,3.55,1.26,.76,2.63,1.24,4.07,1.44,1.38,.19,2.67,.29,3.82,.29,1.97,0,3.84-.51,5.55-1.53,1.81-1.07,2.73-2.47,2.73-4.18,0-1.37-.36-2.46-1.06-3.26-.72-.82-1.55-1.23-2.47-1.23Z"/></g></g><g><path class="cls-1" d="M92.78,12.54c3.46,0,6.27-2.81,6.27-6.27s-2.81-6.27-6.27-6.27-6.27,2.81-6.27,6.27,2.81,6.27,6.27,6.27Z"/><path class="cls-9" d="M53.58,12.54c3.46,0,6.27-2.81,6.27-6.27s-2.81-6.27-6.27-6.27-6.27,2.81-6.27,6.27,2.81,6.27,6.27,6.27Z"/><path class="cls-11" d="M78.94,55c-2.18,1.89-5.48,1.66-7.38-.52-1.89-2.18-1.66-5.48,.52-7.38-1.45,1.26-3.32,1.95-5.26,1.95-4.37,0-7.93-3.48-7.93-7.76V20.61c0-2.89-2.34-5.23-5.23-5.23s-5.23,2.34-5.23,5.23v20.68c0,10.05,8.25,18.22,18.39,18.22,4.46,0,8.77-1.6,12.12-4.51h0Z"/></g></g></g></g></g></g></svg>