<?xml version="1.0" encoding="UTF-8"?><svg id="Vista_1" xmlns="http://www.w3.org/2000/svg" viewBox="0 0 67.44 63.24"><defs><style>.cls-1{fill:#fff;}</style></defs><path class="cls-1" d="M48.19,54.37c-1.65-1.66-3.3-3.31-4.95-4.97-.15-.16-.31-.19-.52-.15-1.16,.24-2.06-.2-2.74-1.12-.17-.24-.29-.24-.54-.13-1.24,.58-2.53,.22-3.32-.91-.16-.22-.26-.28-.52-.15-1.53,.74-3.24,0-3.72-1.64-.1-.35-.21-.39-.54-.29-1.71,.53-3.39-.69-3.43-2.48,0-.31-.01-.62,0-.93,.02-.46,.3-.76,.7-.75,.39,0,.67,.31,.69,.77,0,.27,0,.53,0,.8,.04,.79,.57,1.3,1.3,1.28,.7-.02,1.13-.51,1.14-1.31,0-.61,0-1.21,0-1.82,0-.57,.31-.94,.74-.93,.44,.01,.71,.36,.71,.95,0,1.33,0,2.66,0,4,0,.54,.27,.93,.77,1.14,.48,.2,.9,.07,1.27-.26,.28-.25,.39-.58,.39-.96,0-.99,0-1.98,0-2.97,0-.59,.28-.94,.72-.93,.43,0,.72,.37,.73,.94,0,1.35,0,2.69,.01,4.04,.01,.81,.56,1.29,1.35,1.23,.5-.04,.91-.39,1.02-.91,.15-.75,.04-1.5,.07-2.26,.01-.33,0-.65,0-.98,.02-.43,.29-.73,.67-.74,.39-.01,.71,.3,.71,.74,.01,1.23,0,2.46,0,3.68,0,.24,.02,.47,.09,.7,.18,.53,.7,.86,1.29,.8,.55-.05,.99-.48,1.05-1.04,.02-.19,.02-.38,.02-.58,0-3.48,0-6.96,0-10.43,0-.16,0-.33,0-.49,.02-.33,.14-.61,.47-.74,.33-.12,.6-.01,.84,.23,1.02,1.03,2.04,2.06,3.08,3.08,.65,.64,1.51,.7,2.17,.18,.73-.58,.86-1.61,.21-2.28-1.41-1.45-2.86-2.88-4.31-4.29-.45-.44-1.01-.71-1.61-.92-2.81-1.02-5.61-2.06-8.42-3.07-.47-.17-.86-.41-1.21-.78-4.88-5.16-9.76-10.32-14.65-15.47-.35-.37-.69-.73-1.03-1.1-.36-.39-.38-.81-.07-1.1,.31-.29,.74-.26,1.1,.12,2.04,2.14,4.08,4.29,6.11,6.44,.52,.55,1.06,1.08,1.55,1.65,.23,.27,.31,.23,.47-.06,.77-1.4,2.34-1.97,3.8-1.39,.42,.17,.77,.43,1.09,.75,1.04,1.04,2.08,2.07,3.11,3.11,.75,.76,1.29,1.65,1.65,2.65,.55,1.55,1.13,3.08,1.68,4.63,.11,.29,.28,.45,.57,.56,1.56,.56,3.11,1.13,4.67,1.7,1.06,.38,1.97,1,2.77,1.8,1.17,1.18,2.35,2.34,3.51,3.52,1.73,1.74,1.29,4.15-.95,5.14-.28,.13-.24,.22-.06,.4,.27,.25,.53,.52,.79,.78,.39,.41,.43,.82,.1,1.13-.3,.29-.73,.25-1.1-.12-1.49-1.48-2.97-2.97-4.46-4.45-.11-.11-.2-.26-.37-.31-.1,.15-.05,.32-.05,.47,0,2.93,0,5.86,0,8.79,0,.64-.09,1.24-.47,1.77-.18,.25-.03,.37,.12,.52,1.46,1.45,2.91,2.91,4.36,4.36,.53,.53,.53,.78,.04,1.36h-.71ZM29.19,18.59c-.04,.21,.12,.41,.31,.61,1.86,1.97,3.74,3.91,5.55,5.92,.66,.73,1.42,1.17,2.33,1.43,.11,.03,.23,.14,.33,.03,.09-.1,0-.23-.04-.33-.44-1.22-.89-2.45-1.34-3.66-.19-.51-.44-1.01-.81-1.42-1.2-1.31-2.47-2.55-3.75-3.77-.46-.44-1.06-.5-1.66-.22-.55,.26-.86,.71-.91,1.41Z"/><path class="cls-1" d="M19.5,24.5c.46,0,.92,0,1.38,0,.76-.02,1.33-.52,1.36-1.2,.02-.64-.45-1.14-1.19-1.24-.52-.07-.8-.36-.76-.8,.04-.43,.42-.69,.94-.65,1.68,.15,2.82,1.83,2.3,3.44-.14,.42-.02,.48,.35,.45,.25-.02,.5,0,.75,0,1.71,.03,2.95,1.68,2.48,3.33-.11,.38-.12,.53,.35,.63,1.55,.35,2.39,1.94,1.85,3.45-.12,.32-.09,.47,.24,.64,.91,.45,1.41,1.21,1.45,2.22,.04,1.05-.39,1.87-1.3,2.4-.28,.16-.41,.34-.38,.66,.02,.2,.02,.42-.01,.62-.05,.36-.35,.62-.7,.61-.36,0-.63-.26-.67-.64-.1-.85-.1-.84-.97-.85-.38,0-.77-.02-1.15-.05-1.7-.13-2.81-1.7-2.38-3.34q.13-.49-.39-.5c-2.01-.03-3.2-1.6-2.66-3.54,.1-.36-.09-.35-.31-.41-1.36-.33-2.21-1.4-2.16-2.7,.01-.28,.08-.56,.17-.82,.09-.24,.01-.32-.23-.32-1.74,0-3.14-1.91-2.27-3.78,.13-.28-.01-.41-.17-.57-1.26-1.25-2.51-2.51-3.77-3.77-.11-.11-.24-.23-.33-.36-.2-.3-.17-.6,.07-.85,.24-.26,.54-.31,.85-.14,.15,.09,.28,.21,.41,.34,1.26,1.25,2.52,2.5,3.76,3.77,.23,.24,.44,.36,.77,.2,.15-.08,.34-.1,.52-.12,.38-.04,.72,.21,.78,.57,.06,.39-.1,.66-.47,.81-.08,.03-.17,.05-.26,.07-.66,.16-1.04,.66-.99,1.28,.05,.64,.53,1.11,1.2,1.15,.52,.03,1.04,0,1.55,0h0Zm3.04,3.85h0c.68,0,1.36,0,2.04,0,.54-.01,.95-.32,1.11-.8,.29-.83-.28-1.58-1.27-1.63-.59-.03-1.18-.01-1.78,0-.72,0-1.45-.03-2.17,.04-.77,.07-1.17,.6-1.12,1.32,.04,.65,.53,1.07,1.28,1.08,.64,0,1.27,0,1.91,0Zm2.29,3.89c.62,0,1.24,0,1.86,0,.03,0,.06,0,.09,0,.71-.02,1.23-.52,1.24-1.18,.01-.69-.5-1.24-1.22-1.25-1.3-.02-2.6-.02-3.9,0-.74,0-1.23,.53-1.23,1.23,0,.71,.5,1.19,1.26,1.2,.64,0,1.27,0,1.91,0Zm2.34,1.46c-.38,0-.77,0-1.15,0-.74,.02-1.23,.48-1.24,1.17-.02,.68,.45,1.22,1.16,1.26,.82,.04,1.65,.04,2.48,0,.69-.03,1.15-.61,1.12-1.29-.03-.67-.5-1.12-1.22-1.14-.38-.01-.77,0-1.15,0Z"/><path class="cls-1" d="M52.59,43.01c.24,0,.42,.12,.58,.28,.94,.94,1.89,1.88,2.82,2.82,.35,.36,.36,.76,.06,1.06-.3,.29-.71,.28-1.06-.06-.95-.93-1.88-1.88-2.82-2.82-.24-.24-.34-.52-.2-.85,.12-.27,.34-.39,.62-.43Z"/></svg>
