<?xml version="1.0" encoding="UTF-8"?><svg id="Capa_1" xmlns="http://www.w3.org/2000/svg" viewBox="0 0 40.09 38.36"><defs><style>.cls-1{fill:#fff;}</style></defs><path class="cls-1" d="M25.39,31.43c-.55,0-1.09-.31-1.34-.84-.36-.74-.05-1.64,.69-2,3.71-1.81,6.02-5.5,6.02-9.63,0-5.91-4.81-10.71-10.71-10.71s-10.71,4.81-10.71,10.71c0,3.92,2.14,7.52,5.58,9.4,.72,.4,.99,1.31,.59,2.03-.4,.72-1.31,.99-2.03,.59-4.4-2.41-7.13-7.02-7.13-12.03,0-7.56,6.15-13.7,13.7-13.7s13.7,6.15,13.7,13.7c0,5.28-2.95,10-7.7,12.32-.21,.1-.43,.15-.65,.15Z"/><path class="cls-1" d="M20.04,32.98c-.83,0-1.49-.67-1.49-1.49v-10.88c0-.83,.67-1.49,1.49-1.49s1.49,.67,1.49,1.49v10.88c0,.83-.67,1.49-1.49,1.49Z"/></svg>
