<?xml version="1.0" encoding="UTF-8"?><svg id="Capa_1" xmlns="http://www.w3.org/2000/svg" viewBox="0 0 40.09 38.36"><defs><style>.cls-1{fill:#fff;}</style></defs><path class="cls-1" d="M28.75,33.29c-.77,0-1.39-.62-1.39-1.39v-4.21c0-4.04-3.29-7.32-7.32-7.32s-7.32,3.29-7.32,7.32v4.21c0,.77-.62,1.39-1.39,1.39s-1.39-.62-1.39-1.39v-4.21c0-5.57,4.53-10.1,10.1-10.1s10.1,4.53,10.1,10.1v4.21c0,.77-.62,1.39-1.39,1.39Z"/><path class="cls-1" d="M20.04,20.11c-4.18,0-7.59-3.4-7.59-7.59s3.4-7.59,7.59-7.59,7.59,3.4,7.59,7.59-3.4,7.59-7.59,7.59Zm0-12.4c-2.65,0-4.81,2.16-4.81,4.81s2.16,4.81,4.81,4.81,4.81-2.16,4.81-4.81-2.16-4.81-4.81-4.81Z"/></svg>