<?xml version="1.0" encoding="UTF-8"?>
<svg id="Capa_1" data-name="Capa 1" xmlns="http://www.w3.org/2000/svg" viewBox="0 0 40 40">
  <defs>
    <style>
      .cls-1 {
        fill: #5a5aff;
      }
    </style>
  </defs>
  <g id="Trazado_2206" data-name="Trazado 2206">
    <path class="cls-1" d="M20.06,39.96C9.06,40,.07,31.07,.04,20.06S8.93,.07,19.94,.04C30.94,0,39.93,8.93,39.96,19.94s-8.89,19.99-19.9,20.03Zm-.12-38.29C9.83,1.7,1.64,9.95,1.67,20.06s8.28,18.3,18.39,18.27,18.3-8.28,18.27-18.39S30.05,1.64,19.94,1.67Z"/>
  </g>
  <g id="Trazado_2207" data-name="Trazado 2207">
    <path class="cls-1" d="M20.02,26.22h0c-1.66,0-3.23-.64-4.4-1.81s-1.83-2.73-1.84-4.39c-.01-3.43,2.77-6.23,6.2-6.24,3.43-.01,6.23,2.77,6.24,6.2h0c0,1.66-.64,3.23-1.81,4.4-1.17,1.18-2.73,1.83-4.39,1.84Zm-.04-10.81c-2.53,0-4.58,2.07-4.57,4.6,0,1.23,.48,2.38,1.35,3.24,.87,.86,2.02,1.34,3.25,1.33h0c1.22,0,2.37-.48,3.24-1.35,.86-.87,1.34-2.02,1.33-3.25,0-2.53-2.07-4.58-4.6-4.57Zm5.42,4.57h0s0,0,0,0Z"/>
  </g>
  <g id="Trazado_2208" data-name="Trazado 2208">
    <path class="cls-1" d="M19.9,27.86c-6.04,.02-12.09-2.21-16.77-6.73l-.26-.25c-.15-.15-.24-.36-.24-.58v-.25c0-.21,.08-.42,.23-.57,4.46-4.63,10.45-7.24,16.88-7.35,6.43-.09,12.51,2.28,17.13,6.74l.26,.25c.15,.15,.24,.36,.24,.58v.25c0,.21-.08,.42-.23,.57-4.69,4.87-10.96,7.33-17.24,7.35Zm-15.42-7.69c8.75,8.22,22.48,8.05,31.03-.33-8.75-8.22-22.48-8.05-31.03,.33Zm32.07-.22h0s0,0,0,0Z"/>
  </g>
</svg>